<ttFont>
          <CharString index="0">
            542 145 rmoveto
            3 4 -6 5 -3 -4 -94 callgsubr
            51 -37 8 -43 -28 vhcurveto
            -77 callgsubr
            -92 callgsubr
            rrcurveto
            -113 57 -101 callgsubr
            return
          </CharString>
          <CharString index="1">
            423 -6 rmoveto
            6 -1 6 6 vvcurveto
            24 15 23 17 19 19 72 75 -47 69 -98 -37 -19 -8 -21 -9 -23 -15 -38 36 -48 24 -46 1 rrcurveto
            -5 -1 -8 6 hhcurveto
            44 -1 44 -23 35 -35 -8 -5 -7 -6 -8 -6 -25 -21 -25 -24 -25 -28 -2 -2 -7 -21 12 14 20 24 23 20 24 19 10 8 13 9 15 9 25 -29 19 -34 8 -35 rrcurveto
            -75 -46 -96 -15 -70 37 -12 6 -11 7 -9 9 rrcurveto
            -3 19 -1 21 22 vvcurveto
            61 16 69 32 64 vhcurveto
            11 90 101 4 71 23 -1 13 -16 hhcurveto
            -72 -95 3 -5 -87 hvcurveto
            47 80 72 69 97 26 5 2 -3 7 -5 -1 -113 -33 -75 -70 -46 -81 -15 -1 -14 -1 -15 -2 73 128 123 103 161 -21 20 -3 14 -7 10 -11 -9 -9 -27 -34 -3 -21 rrcurveto
            -9 -53 65 17 15 39 9 25 -7 26 -14 18 15 19 16 16 14 11 8 7 -9 7 -9 -7 -8 -6 -17 -17 -18 -22 -13 13 -18 9 -21 3 -161 29 -171 -117 -73 -139 -6 -12 rcurveline
            -20 -4 -16 -5 -12 -31 15 3 rlinecurve
            6 2 32 callgsubr
            1 -49 -124 26 -106 89 -46 rrcurveto
            58 -217 239 24 205 vvcurveto
            -281 -19 rmoveto
            3 -2 4 17 callgsubr
            77 -26 99 16 79 43 rrcurveto
            1 -3 0 30 callgsubr
            -189 -209 -28 -57 198 vhcurveto
            221 152 rmoveto
            19 11 21 11 19 7 79 32 20 -36 -33 -50 -18 -27 -24 -23 -28 -20 -9 34 -20 33 -26 28 rrcurveto
            -248 -87 rmoveto
            -44 56 -3 85 38 80 3 7 rcurveline
            46 7 rlineto
            -29 -63 -13 -66 -58 vvcurveto
            -17 1 -16 1 -15 vhcurveto
            return
          </CharString>
          <CharString index="2">
            450 162 13 230 13 hstem
            84 -19 rmoveto
            -5 1 -1 -8 6 -1 139 -7 77 166 32 112 5 17 4 17 3 17 42 13 rcurveline
            -39 -109 rlineto
            -28 callgsubr
            -165 82 227 35 224 hvcurveto
            9 2 0 12 -8 -1 rrcurveto
            -29 -272 -50 -260 181 -41 callsubr
            rlineto
            2 hlineto
            45 -82 40 -105 72 -62 rrcurveto
            -23 26 36 -21 35 hhcurveto
            44 27 33 42 30 -13 31 -19 22 hvcurveto
            -5 6 -8 1 5 -8 rrcurveto
            18 -24 11 -30 -30 vvcurveto
            -25 -9 -26 -29 -20 -24 13 11 -16 vhcurveto
            -76 52 -63 111 -59 86 171 18 133 78 6 83 -55 callgsubr
            -20 -4 -19 -12 -16 -17 rrcurveto
            -63 -53 -7 -11 -46 hvcurveto
            -13 26 -18 22 -25 16 -99 64 -134 -76 23 -121 7 -37 31 -30 38 -14 -2 -45 44 -34 89 9 21 3 20 3 19 4 -3 -15 -4 -16 -4 -15 -32 -113 -68 -157 -132 6 rrcurveto
            418 527 rmoveto
            107 -4 89 -45 -5 -63 -5 -57 -71 -73 -162 -34 -9 -2 -17 -1 -18 -2 -4 6 rcurveline
            10 32 10 33 9 32 38 18 36 22 37 25 15 -17 callsubr
            -32 -23 -35 -19 -36 -16 19 67 18 58 23 33 rrcurveto
            -185 -9 rmoveto
            -112 -31 -59 -58 -9 -49 -31 14 -25 26 -6 33 -21 114 118 71 94 -61 23 -15 16 -20 12 -24 rrcurveto
            15 -184 rmoveto
            -24 -6 -24 -4 -24 -2 -78 -9 -32 20 4 32 37 -9 41 8 29 29 4 4 -5 6 -4 -4 -29 -28 -37 -6 -34 8 12 41 63 55 93 32 17 -49 0 -60 -9 -58 rrcurveto
            1 170 rmoveto
            43 14 50 9 53 1 -33 -41 -27 -65 -25 -71 -15 -5 -16 -5 -16 -4 8 58 -2 60 -20 49 rrcurveto
            return
          </CharString>
          <CharString index="3">
            -6 12 387 13 hstem
            -106 callgsubr
            return
          </CharString>
          <CharString index="4">
            -4 15 377 13 hstem
            -106 callsubr
            return
          </CharString>
          <CharString index="5">
            hstem
            354 30 vstem
            320 379 rmoveto
            3 -5 7 5 -3 4 -36 51 5 59 23 37 54 -10 49 -41 27 -84 -4 -39 -11 -45 -18 -46 -51 -11 -49 -25 -40 -39 -61 -58 21 -67 47 -26 rrcurveto
            -72 -63 -76 -50 -78 hhcurveto
            -34 -20 30 32 hvcurveto
            26 16 23 6 vvcurveto
            2 callsubr
            -1 -2 -2 -2 -1 vhcurveto
            -15 -19 -10 -23 -24 vvcurveto
            -40 27 -23 38 62 66 32 38 47 vhcurveto
            22 17 20 19 19 21 31 -9 37 5 33 31 4 4 -5 6 -4 -4 -31 -28 -33 -6 -26 8 56 62 47 77 30 79 14 3 14 1 14 -1 12 -76 15 -71 35 -74 rrcurveto
            -10 -6 -14 1 -4 vvcurveto
            -8 9 -1 6 7 6 1 4 5 vhcurveto
            -26 19 26 -23 33 hhcurveto
            33 34 23 23 22 hvcurveto
            2 2 -4 -1 4 25 callgsubr
            vhcurveto
            -5 -30 -40 -36 hhcurveto
            -35 -23 38 28 -14 hvcurveto
            6 12 5 14 5 17 24 -63 29 -19 22 10 32 15 7 73 -46 63 -11 15 -13 14 -14 11 rrcurveto
            140 33 45 164 112 hhcurveto
            43 24 -35 -16 5 hvcurveto
            3 -10 7 6 -2 8 rrcurveto
            26 -6 -26 53 -58 hhcurveto
            -124 -39 -179 -147 -30 hvcurveto
            -14 10 -15 9 -15 6 -24 142 -43 198 -126 -21 -16 -2 -15 -9 -11 -12 -93 3 -105 -66 -51 -100 -38 -75 -3 -138 91 7 47 3 59 66 11 26 3 7 -4 7 -6 -9 rrcurveto
            -8 -14 -43 -62 -45 -4 -80 -6 12 114 25 64 40 103 92 65 82 -9 -23 -40 -3 -62 36 -50 rrcurveto
            91 -127 rmoveto
            -29 -72 -42 -74 -52 -61 -40 23 -16 59 56 54 36 34 43 25 44 12 rrcurveto
            101 14 rmoveto
            -9 49 -10 48 -12 44 -25 92 -57 42 -65 7 10 8 11 6 12 2 103 18 58 -220 21 -105 -12 4 -12 3 -13 2 rrcurveto
            78 -154 rmoveto
            8 28 8 34 8 35 12 -10 11 -12 11 -14 45 -62 -12 -65 -23 -11 -16 -8 -28 15 -24 70 rrcurveto
            -39 135 rmoveto
            5 -28 7 -40 7 -33 9 -27 rlinecurve
            -5 -19 -5 -16 -6 -13 -21 48 -14 68 -14 70 13 -2 12 -3 12 -5 rrcurveto
            return
          </CharString>
          <CharString index="6">
            -39 callgsubr
            hstem
            -103 callgsubr
            return
          </CharString>
          <CharString index="7">
            -72 callsubr
            -122 -86 rlineto
            -82 callgsubr
            108 58 -71 callsubr
            return
          </CharString>
          <CharString index="8">
            -17 callgsubr
            hstem
            -105 callgsubr
            return
          </CharString>
          <CharString index="9">
            rmoveto
            1 -14 callgsubr
            -4 1 rrcurveto
            -4 -2 0 -2 -1 hvcurveto
            -6 -14 -11 -7 -13 1 -8 1 -11 3 -15 6 -15 7 -12 3 -8 1 -20 2 -18 -14 -17 -31 rrcurveto
            -1 -1 2 -1 4 hhcurveto
            12 callsubr
            0 callgsubr
            7 14 10 6 12 -1 rrcurveto
            8 11 -4 -7 15 hvcurveto
            15 -7 12 -3 7 -1 22 -2 19 15 15 32 rrcurveto
            return
          </CharString>
          <CharString index="10">
            rmoveto
            18 1 20 0 21 -1 -1 -64 -25 -145 -40 -120 -11 -5 -12 30 callsubr
            37 101 20 109 -7 79 -2 18 -3 17 -4 15 rrcurveto
            -98 -459 rmoveto
            20 34 18 36 14 39 12 2 11 2 12 4 -16 -46 -19 -42 -20 -31 rrcurveto
            1 -11 -10 1 -11 hhcurveto
            17 -24 rmoveto
            -15 -18 -16 -12 -17 -4 rrcurveto
            -1 -4 -3 -1 -4 hhcurveto
            10 12 9 12 8 13 rrcurveto
            1 hlineto
            10 10 0 -1 11 hvcurveto
            return
          </CharString>
          <CharString index="11">
            369 339 rmoveto
            -6 56 -18 49 -38 55 -23 callgsubr
            8 -23 4 -25 3 -26 -7 -2 33 callgsubr
            -1 rrcurveto
            -125 205 -29 callgsubr
            111 -207 -50 callgsubr
            -134 -454 -46 callgsubr
            22 -20 -70 callgsubr
            250 108 -62 callsubr
            68 274 -93 callsubr
            50 -28 66 -10 63 6 3 -35 -1 -37 -4 -42 -36 callgsubr
            rrcurveto
            4 43 1 37 -3 36 rrcurveto
            4 hlineto
            8 1 7 1 8 2 10 -112 -27 -131 -29 -71 -57 callsubr
            return
          </CharString>
          <CharString index="12">
            -98 callgsubr
            endchar
          </CharString>
          <CharString index="13">
            rmoveto
            26 -17 30 -18 36 -20 rrcurveto
            -1 -32 callgsubr
            hhcurveto
            5 -22 callsubr
            -1 2 -3 2 hvcurveto
            -34 27 -29 21 -21 16 rrcurveto
            5 -6 -5 3 -4 hhcurveto
            -6 -3 -5 -8 -7 2 -6 4 -4 hvcurveto
            return
          </CharString>
          <CharString index="14">
            rmoveto
            4 10 31 callgsubr
            -13 -28 -61 -15 -106 -27 -98 -84 -32 -85 -28 -78 -34 -8 17 -12 15 -16 12 -105 80 -142 -134 84 -134 -11 -26 -1 -27 15 -24 32 -55 84 -11 77 21 rrcurveto
            45 12 44 21 41 28 117 81 69 126 28 114 26 12 30 20 24 16 18 12 18 20 -32 -18 -26 -15 -24 -14 -29 -12 8 24 -6 265 136 201 16 24 -24 -1 -9 -8 rrcurveto
            -114 -100 -85 -184 -46 -76 -17 -28 -52 -103 -27 -12 38 76 34 129 -5 111 59 19 44 36 4 48 rrcurveto
            6 -8 0 -5 vvcurveto
            -3 -44 -41 -33 -56 -19 -2 28 -4 27 -8 24 -27 82 -60 35 -65 -2 -115 102 -117 -100 59 -105 -7 -9 -6 -11 -6 -11 rrcurveto
            -59 -31 1 -102 82 hhcurveto
            42 43 39 21 8 hvcurveto
            3 6 -1 5 -4 -6 rrcurveto
            -11 -8 -31 -38 -40 hhcurveto
            -72 2 81 51 19 hvcurveto
            5 11 4 10 6 10 16 -24 27 -23 37 -21 return
          </CharString>
          <CharString index="15">
            293 185 rmoveto
            -29 -34 -15 27 -23 hvcurveto
            -4 38 -55 33 -19 -22 -45 -4 -32 -70 -14 -43 -43 -126 98 -78 74 130 24 41 14 49 -2 19 16 -7 40 1 26 13 rrcurveto
            6 11 2 8 -5 hhcurveto
            -110 -16 rmoveto
            3 -16 -15 -60 -24 -38 -49 -78 -52 23 26 97 14 52 30 57 24 6 rrcurveto
            0 0 -36 43 -7 vhcurveto
            return
          </CharString>
          <CharString index="16">
            15 -7 7 -15 -15 -7 -7 -15 -14 8 -8 15 14 7 8 14 vhcurveto
            return
          </CharString>
          <CharString index="17">
            rmoveto
            -91 callsubr
            -86 hmoveto
            -91 callsubr
            endchar
          </CharString>
          <CharString index="18">
            243 70 rmoveto
            11 13 -8 4 -6 -6 -19 -20 -52 -45 -53 -9 -26 -4 -34 13 3 52 1 19 4 18 6 15 34 6 12 -2 40 3 -10 -11 rcurveline
            -8 -8 -1 -11 19 14 7 5 7 7 6 7 rrcurveto
            5 22 26 9 -17 hhcurveto
            -20 hlineto
            23 32 10 40 -30 19 -35 22 -39 -6 -28 -27 -36 -35 -26 -56 -7 -37 -7 -44 12 -33 14 -13 57 -52 113 75 35 41 rrcurveto
            return
          </CharString>
          <CharString index="19">
            195 48 18 412 15 hstem
            105 315 rmoveto
            -39 -85 54 -64 113 5 -7 -20 -8 -21 -8 -17 -34 17 -45 20 -30 6 -65 callgsubr
            6 12 21 47 13 44 105 31 73 74 33 68 -59 callgsubr
            rrcurveto
            148 -69 -81 callgsubr
            -112 13 8 133 122 -22 21 -4 30 -13 25 -11 -64 callsubr
            -6 -66 rmoveto
            13 2 13 2 14 3 -11 -35 -8 -29 -13 -25 rrcurveto
            0 -14 8 -20 10 vhcurveto
            9 19 9 23 8 22 rrcurveto
            return
          </CharString>
          <CharString index="20">
            340 67 rmoveto
            0 -3 -61 callgsubr
            -72 -40 5 123 1 41 2 34 -17 -9 -16 -23 -24 -35 -34 -55 -22 -21 -47 -45 -12 30 16 46 15 42 40 80 35 35 10 10 -55 10 -10 -16 rrcurveto
            -71 -107 -32 -119 68 -10 rrcurveto
            45 -6 68 129 -3 vvcurveto
            -1 -1 2 -101 41 -14 56 -18 66 79 2 6 rrcurveto
            return
          </CharString>
          <CharString index="21">
            225 208 rmoveto
            10 -35 8 -6 -43 vhcurveto
            -27 -38 -62 -85 5 vvcurveto
            1 1 19 102 -32 18 -18 10 -23 -9 -21 -16 -13 -10 3 -10 12 8 70 45 -33 -148 -8 -35 -10 -47 45 38 7 26 35 41 26 40 26 47 -9 -44 -16 -99 -15 -38 rrcurveto
            -115 -30 -143 -37 -91 -61 -48 -33 -25 -51 17 -52 19 -58 58 -23 57 9 32 5 33 13 31 21 89 61 76 123 37 103 21 5 30 14 3 22 2 16 -11 -2 -3 -13 rrcurveto
            -2 -11 -9 -8 -23 -5 rrcurveto
            17 38 32 139 38 vvcurveto
            -89 -239 rmoveto
            -48 -110 -48 -158 -164 -23 -46 -6 -68 9 -17 50 -13 40 34 37 32 21 72 49 179 71 87 20 rrcurveto
            return
          </CharString>
          <CharString index="22">
            183 387 18 3 13 hstem
            281 152 rmoveto
            -133 -29 -101 -56 -70 -63 -211 -189 104 -212 260 163 -88 callgsubr
            68 74 107 58 123 32 -51 callgsubr
            -70 275 -54 callsubr
            return
          </CharString>
          <CharString index="23">
            43 -7 15 215 15 hstem
            -87 callsubr
            return
          </CharString>
          <CharString index="24">
            7 callsubr
            hstem
            -89 callgsubr
            return
          </CharString>
          <CharString index="25">
            -10 callsubr
            hstem
            -95 callgsubr
            return
          </CharString>
          <CharString index="26">
            rmoveto
            15 4 16 6 16 6 -40 -112 -30 -118 -5 -61 -2 -18 31 -20 4 9 15 29 40 61 -2 -8 -24 -71 84 -26 97 13 -103 -188 -226 14 63 308 9 47 19 62 23 63 rrcurveto
            -4 23 rmoveto
            -28 -8 -27 -5 -21 -2 -154 -18 26 122 113 67 46 27 66 18 71 7 -7 -16 -7 -16 -7 -13 -2 -5 rcurveline
            1 -5 -5 0 -6 hhcurveto
            -101 3 -50 -81 12 -44 2 -5 7 2 -1 5 -11 37 53 81 89 -6 rrcurveto
            4 4 0 -1 4 hvcurveto
            -21 -45 -23 -52 -21 -53 rrcurveto
            75 149 rmoveto
            13 -2 13 -3 12 -5 -18 -36 -18 -41 -16 -43 -16 -6 -16 -5 -16 -4 19 51 22 51 21 43 rrcurveto
            123 -68 rmoveto
            -28 -16 -29 -14 -30 -13 11 30 12 30 12 26 20 -11 17 -15 15 -17 rrcurveto
            -95 128 rmoveto
            1 17 16 0 17 hhcurveto
            -12 -17 -12 -21 -12 -23 -12 4 -13 3 -13 1 7 15 9 18 8 19 rrcurveto
            endchar
          </CharString>
          <CharString index="27">
            rmoveto
            -4 1 -3 3 3 2 2 4 vhcurveto
            2 18 13 14 24 12 rrcurveto
            9 20 20 5 21 hhcurveto
            20 17 -5 -9 13 hvcurveto
            12 -10 7 -11 -13 vvcurveto
            -27 -23 -20 -45 -11 vhcurveto
            -5 -2 -17 -2 -29 -3 rrcurveto
            -22 -2 -11 -3 -4 vvcurveto
            -3 3 -2 6 1 vhcurveto
            20 19 -2 -6 17 hvcurveto
            20 -7 9 -9 -12 vvcurveto
            -11 -7 -11 -15 -12 vhcurveto
            -21 -26 -30 -11 -34 hhcurveto
            -17 -11 4 8 -6 hvcurveto
            -3 4 -1 4 5 vvcurveto
            32 callgsubr
            4 5 vhcurveto
            5 4 4 2 3 hhcurveto
            4 2 0 3 -14 callgsubr
            -3 hvcurveto
            -18 -3 -9 -10 -15 vvcurveto
            -6 1 -5 2 -5 vhcurveto
            -14 6 16 -7 26 hhcurveto
            36 32 10 20 28 hvcurveto
            20 15 10 15 17 vvcurveto
            12 -5 10 -11 8 vhcurveto
            8 -11 -15 3 -19 hhcurveto
            41 8 rlineto
            52 16 26 23 29 vvcurveto
            14 -8 12 -15 10 vhcurveto
            10 -15 -20 5 -24 hhcurveto
            -24 -23 -5 -10 -23 hvcurveto
            -28 -12 -15 -16 -1 -20 rrcurveto
            return
          </CharString>
          <CharString index="28">
            rmoveto
            9 -3 7 -58 callgsubr
            -7 -9 vvcurveto
            -8 3 -7 7 -5 -49 callsubr
            5 9 callgsubr
            return
          </CharString>
          <CharString index="29">
            486 371 15 18 13 hstem
            99 19 vstem
            458 -28 rmoveto
            60 11 64 26 45 39 224 195 -102 247 -329 27 13 18 13 11 11 2 26 6 15 -12 8 -6 rrcurveto
            -8 12 -1 -8 6 hhcurveto
            25 2 -69 64 -52 -25 -14 -7 -15 -14 -15 -21 -18 1 -17 0 -17 -1 10 25 8 24 -1 16 rrcurveto
            -1 5 -6 4 -5 vvcurveto
            -3 -19 -8 -26 -11 -24 -79 -5 -74 -16 -48 -24 -146 -73 20 -157 166 18 16 2 19 3 19 5 -24 -62 -19 -60 -10 -46 -66 -326 252 -24 113 218 rrcurveto
            28 68 rmoveto
            36 114 -14 138 -68 85 26 19 24 20 21 22 3 3 7 20 -16 -17 -20 -21 -25 -19 -28 -17 -17 18 -19 16 -23 12 13 29 14 25 13 19 272 -21 119 -221 -198 -182 rrcurveto
            -38 -35 -47 -24 -46 -14 rrcurveto
            return
          </CharString>
          <CharString index="30">
            268 24 rmoveto
            -8 -10 -23 -24 -25 -3 -29 -3 11 77 15 62 14 58 19 33 -4 14 -2 10 -35 5 -7 -12 -26 -41 -61 -83 -40 -36 5 8 17 100 7 34 7 33 -61 -22 3 -30 rrcurveto
            8 -71 -31 -91 -5 -22 -5 -19 37 12 11 30 10 28 88 91 28 36 -4 -20 -69 -179 82 -14 28 -5 28 18 11 12 13 13 -1 17 -6 -6 rrcurveto
            return
          </CharString>
          <CharString index="31">
            -1 3 2 0 3 hhcurveto
            2 1 0 1 3 vvcurveto
            return
          </CharString>
          <CharString index="32">
            -2 -4 0 -3 4 -2 3 -1 20 8 39 18 return
          </CharString>
          <CharString index="33">
            rmoveto
            -32 -31 -35 -39 -38 -36 -8 2 -8 3 -7 3 32 29 28 33 25 36 16 1 15 0 12 -1 rrcurveto
            return
          </CharString>
          <CharString index="34">
            -43 22 -46 -19 -39 -36 -75 -65 callsubr
            return
          </CharString>
          <CharString index="35">
            rmoveto
            -30 86 -1 3 -10 0 -20 -3 rlinecurve
            return
          </CharString>
          <CharString index="36">
            37 -58 1 -2 3 17 callgsubr
            rlinecurve
            return
          </CharString>
          <CharString index="37">
            -20 -6 -30 -15 -1 -22 -1 -16 10 2 2 14 1 10 9 9 23 6 -15 -39 -24 -140 2 -38 rrcurveto
            -10 33 17 3 43 vhcurveto
            29 37 50 65 29 callsubr
            -1 -19 -125 39 -19 53 -27 80 114 3 8 rrcurveto
            0 -2 9 -3 -3 vhcurveto
            -5 -5 -27 -39 -29 -21 rrcurveto
            -42 -31 -12 22 59 vvcurveto
            28 6 42 6 38 vhcurveto
            8 47 -43 -40 -6 -26 -32 -43 -27 -30 -24 -37 7 45 13 77 14 38 113 36 141 44 87 67 46 35 23 52 -19 51 rrcurveto
            return
          </CharString>
          <CharString index="38">
            11 vstem
            375 203 rmoveto
            48 -17 40 -32 32 vhcurveto
            32 -33 -40 16 -48 hhcurveto
            -56 -49 -20 -42 -43 hvcurveto
            -42 -42 -21 -49 -56 vvcurveto
            -48 16 -40 33 -32 vhcurveto
            -33 33 40 -16 49 hhcurveto
            56 49 21 42 42 hvcurveto
            42 42 21 49 56 vvcurveto
            -12 -1 rmoveto
            -53 -19 -46 -40 -40 vhcurveto
            -39 -40 -46 -20 -53 hhcurveto
            -45 -38 15 31 -31 hvcurveto
            -30 30 -16 38 46 vvcurveto
            53 20 46 40 39 vhcurveto
            40 39 46 19 53 hhcurveto
            46 38 -15 -30 30 hvcurveto
            31 -31 15 -38 -45 vvcurveto
            return
          </CharString>
          <CharString index="39">
            127 508 19 hstem
            563 517 rmoveto
            6 -12 -13 4 -13 hhcurveto
            -38 -43 -25 -48 -51 hvcurveto
            -37 -36 -42 -49 -44 -64 -27 -39 -26 -41 -28 -40 -50 -74 -57 -66 -63 -58 rrcurveto
            -4 -3 -2 30 callgsubr
            -2 2 -2 3 3 4 2 3 4 vhcurveto
            47 31 60 64 75 96 85 109 62 76 39 43 rrcurveto
            73 66 48 37 28 hhcurveto
            6 5 -1 -3 6 hvcurveto
            -3 5 4 -2 3 hhcurveto
            3 2 2 3 5 -4 5 -6 4 hvcurveto
            endchar
          </CharString>
          <CharString index="40">
            -48 callsubr
            -8 9 9 -5 12 hhcurveto
            12 10 5 8 8 hvcurveto
            9 8 4 10 12 vvcurveto
            -12 hmoveto
            -64 callgsubr
          </CharString>
          <CharString index="41">
            rmoveto
            -31 16 0 76 -43 hhcurveto
            -28 1 -61 -70 -30 -52 7 15 20 82 5 15 8 26 -58 -12 -2 -26 -1 -27 -16 -144 -9 -37 -2 -11 17 -3 3 12 6 20 18 55 26 40 43 66 57 53 24 -48 rrcurveto
            return
          </CharString>
          <CharString index="42">
            -71 -47 -135 67 -10 rrcurveto
            45 -6 62 115 -3 vvcurveto
            return
          </CharString>
          <CharString index="43">
            -24 -42 -31 -27 -40 2 rrcurveto
            -5 0 -8 6 hhcurveto
            42 -2 34 29 27 44 rrcurveto
            20 -10 15 -8 0 vvcurveto
            8 167 rmoveto
            -4 -16 -4 -16 -5 -16 rrcurveto
            -60 -66 39 68 7 hvcurveto
            30 -34 44 -23 58 -2 rrcurveto
            return
          </CharString>
          <CharString index="44">
            318 452 rmoveto
            21 9 -3 38 -28 9 -113 33 -80 -233 -29 -75 -7 -2 -20 0 -11 -2 -9 -1 8 -26 33 5 -21 -62 -50 -196 10 -95 6 -52 50 -19 21 8 8 4 -15 1 -11 11 rrcurveto
            -38 38 19 125 6 47 11 77 17 75 17 42 rrcurveto
            14 45 6 6 26 hvcurveto
            4 20 4 7 -14 hhcurveto
            -88 hlineto
            20 59 87 192 70 3 rrcurveto
            19 12 -12 -24 -7 hvcurveto
            return
          </CharString>
          <CharString index="45">
            rmoveto
            42 17 -34 -174 -127 -124 -137 -36 rlinecurve
            -62 -16 -96 -6 -28 48 -9 15 1 16 7 15 27 -30 41 -18 40 -5 104 -14 114 82 62 94 25 39 17 48 13 49 rrcurveto
            return
          </CharString>
          <CharString index="46">
            -2 -2 -1 -2 -2 vvcurveto
            -7 4 -3 9 vhcurveto
            0 6 3 11 5 vhcurveto
            5 11 10 3 10 hhcurveto
            13 11 -3 -6 9 hvcurveto
            11 -8 6 -9 -12 vvcurveto
            -8 -3 -10 -7 -9 vhcurveto
            -16 -10 -22 -8 -32 hhcurveto
            -27 -19 5 11 -11 hvcurveto
            5 -5 -3 3 -2 hhcurveto
            -3 -1 -2 -3 -10 12 -8 24 -6 hvcurveto
            -4 17 16 -3 15 hhcurveto
            23 17 4 8 11 hvcurveto
            23 15 11 17 18 vvcurveto
            endchar
          </CharString>
          <CharString index="47">
            rmoveto
            14 -6 14 -8 13 -9 -6 -31 -6 -30 -6 -25 -7 23 -6 29 -6 34 rrcurveto
            -123 49 rmoveto
            10 28 8 29 6 28 4 -29 4 -28 5 -27 rrcurveto
            -13 -12 0 -1 -12 hvcurveto
            endchar
          </CharString>
          <CharString index="48">
            1 vlineto
            -1 -1 1 0 0 -4 -3 -8 -8 hvcurveto
            -8 -7 -10 -3 -13 hhcurveto
            -11 -15 4 8 -21 hvcurveto
            8 -20 -15 4 -11 hhcurveto
            -9 -10 -4 -9 -12 hvcurveto
            -12 -9 -6 -14 callsubr
            -2 -4 callgsubr
            1 3 4 7 6 vhcurveto
            7 6 8 3 12 hhcurveto
            12 16 -4 -8 20 hvcurveto
            -8 20 15 -4 9 hhcurveto
            13 16 9 8 9 hvcurveto
            12 9 6 8 6 vvcurveto
            return
          </CharString>
          <CharString index="49">
            -17 -23 -24 -35 -28 10 callgsubr
            -46 2 callgsubr
            return
          </CharString>
          <CharString index="50">
            rrcurveto
            -3 -2 2 -4 4 hhcurveto
            23 64 98 21 14 hvcurveto
            44 69 72 139 89 107 -96 -178 -19 -242 -4 -22 -13 -6 -14 -5 -13 -5 23 93 11 98 29 64 rrcurveto
            return
          </CharString>
          <CharString index="51">
            rmoveto
            -8 -14 -24 -12 3 23 2 22 11 21 14 21 9 -18 2 -23 -9 -20 rrcurveto
            return
          </CharString>
          <CharString index="52">
            85 265 -21 22 -21 hstemhm
            hintmask 01000000
            -43 callsubr
            hintmask 10000000
            -11 callgsubr
          </CharString>
          <CharString index="53">
            rmoveto
            -8 11 -9 9 -8 8 18 7 22 7 24 6 30 7 67 3 13 1 -7 -76 -27 -121 -40 -122 -42 -7 rcurveline
            23 101 -6 100 -50 66 rrcurveto
            return
          </CharString>
          <CharString index="54">
            -9 -3 -9 -5 -8 -5 rrcurveto
            -8 -6 -5 -5 -4 vvcurveto
            -6 10 -3 18 1 vhcurveto
            return
          </CharString>
          <CharString index="55">
            -16 callsubr
            207 192 -66 callsubr
            return
          </CharString>
          <CharString index="56">
            -75 callgsubr
            -1 2 4 7 3 7 11 vhcurveto
            22 13 20 20 20 27 19 26 8 19 -1 18 callgsubr
          </CharString>
          <CharString index="57">
            -4 -12 hvcurveto
            -53 callsubr
            return
          </CharString>
          <CharString index="58">
            vhcurveto
            -6 6 7 -26 callgsubr
            8 3 6 6 hvcurveto
            6 return
          </CharString>
          <CharString index="59">
            rmoveto
            12 -4 10 -9 8 vhcurveto
            8 -8 -10 5 -12 hhcurveto
            -12 -9 -5 -8 -9 hvcurveto
            -8 -8 -4 -10 -12 vvcurveto
            -12 4 -10 8 -8 vhcurveto
            return
          </CharString>
          <CharString index="60">
            -56 callgsubr
            -54 callgsubr
            29 21 28 29 6 10 rrcurveto
            return
          </CharString>
          <CharString index="61">
            11 13 -6 5 -6 -6 -18 -21 -49 -47 -45 -8 -51 -10 7 61 13 36 rrcurveto
            36 12 45 97 43 hhcurveto
            10 8 -4 -7 4 hvcurveto
            4 -9 2 -4 3 7 4 11 -10 19 -5 4 -26 23 -33 -5 -27 -28 -34 -36 -29 -58 -10 -39 return
          </CharString>
          <CharString index="62">
            -1 5 -4 2 rlineto
            -3 -47 -28 -58 -92 hvcurveto
            3 -17 4 -17 4 -18 5 -21 4 -17 5 -13 rrcurveto
            -1 2 2 -1 1 hhcurveto
            5 2 3 7 1 90 19 14 19 13 19 13 rlinecurve
            29 22 17 15 5 8 rrcurveto
            endchar
          </CharString>
          <CharString index="63">
            -6 6 vhcurveto
            6 -7 -7 -26 callsubr
            -7 -3 -6 -7 hvcurveto
            -6 -6 -3 return
          </CharString>
          <CharString index="64">
            267 249 -100 callsubr
            return
          </CharString>
          <CharString index="65">
            rmoveto
            -9 -46 -14 -3 -13 -2 -12 -1 rlinecurve
            5 16 4 16 4 16 rrcurveto
            12 11 1 3 12 hvcurveto
            return
          </CharString>
          <CharString index="66">
            hhcurveto
            151 81 120 126 46 hvcurveto
            9 27 return
          </CharString>
          <CharString index="67">
            rmoveto
            -91 callsubr
            86 hmoveto
            -91 callsubr
            endchar
          </CharString>
          <CharString index="68">
            -39 23 4 4 38 -25 return
          </CharString>
          <CharString index="69">
            10 -33 -9 -31 -26 vhcurveto
            -7 -6 24 -9 13 3 rrcurveto
            14 4 20 27 6 vvcurveto
            return
          </CharString>
          <CharString index="70">
            -1 -1 0 -2 -1 vvcurveto
            -4 2 -2 4 4 16 callsubr
            1 vhcurveto
            16 39 return
          </CharString>
          <CharString index="71">
            vvcurveto
            -22 6 -21 13 -19 vhcurveto
            13 -19 17 -14 20 -9 rrcurveto
            -13 -31 -7 -28 -26 vvcurveto
            -36 13 -28 25 -21 vhcurveto
            -23 28 42 -11 55 hhcurveto
            return
          </CharString>
          <CharString index="72">
            26 39 2 37 -42 -68 -29 -47 -53 -43 -70 -21 27 55 -8 63 -44 23 -4 3 -4 -7 4 -3 38 -20 6 -65 -29 -53 return
          </CharString>
          <CharString index="73">
            -74 callsubr
            endchar
          </CharString>
          <CharString index="74">
            94 1 25 1 18 -8 12 -11 4 -3 14 -5 -12 18 rrcurveto
            return
          </CharString>
          <CharString index="75">
            vstem
            239 149 rmoveto
            11 7 9 17 -20 -10 rrcurveto
            -18 -9 -25 -16 3 vvcurveto
            -8 58 -27 29 -36 23 -1 -1 return
          </CharString>
          <CharString index="76">
            -1 0 -1 return
          </CharString>
          <CharString index="77">
            1 42 -45 5 -35 -29 -87 -73 -45 -151 -26 -108 return
          </CharString>
          <CharString index="78">
            hhcurveto
            9 8 -3 -6 6 hvcurveto
            6 -6 3 return
          </CharString>
          <CharString index="79">
            -35 -28 9 18 -19 hvcurveto
            -20 18 -10 25 32 vvcurveto
            21 5 23 9 25 vhcurveto
            -9 33 33 -5 32 hhcurveto
            19 return
          </CharString>
          <CharString index="80">
            7 -47 49 20 34 vvcurveto
            17 -5 9 -11 1 vhcurveto
            2 return
          </CharString>
          <CharString index="81">
            3 -9 hhcurveto
            -9 return
          </CharString>
          <CharString index="82">
            4 11 2 9 -11 18 -29 8 -8 2 -9 -5 7 -3 4 -4 11 -5 -3 -18 rrcurveto
            -4 -26 return
          </CharString>
          <CharString index="83">
            8 9 21 22 -6 17 -23 -30 callgsubr
            endchar
          </CharString>
          <CharString index="84">
            4 rrcurveto
            4 -45 callgsubr
            -4 hlineto
            -52 -49 return
          </CharString>
          <CharString index="85">
            -9 callsubr
            3 return
          </CharString>
          <CharString index="86">
            rmoveto
            17 -9 13 -19 10 vhcurveto
            7 -15 -17 4 -19 hhcurveto
            -8 -9 -1 -1 -9 hvcurveto
            1 return
          </CharString>
          <CharString index="87">
            rmoveto
            14 vlineto
            -1 1 rlineto
            -127 hlineto
            -1 -1 rlineto
            -14 vlineto
            128 -1 rlineto
            endchar
          </CharString>
          <CharString index="88">
            4 -5 hhcurveto
            -7 -5 -5 -9 -2 hvcurveto
            -10 -41 -8 -32 -5 -24 rrcurveto
            -12 -18 1 return
          </CharString>
          <CharString index="89">
            rmoveto
            -22 hlineto
            -389 -507 rlineto
            21 hlineto
            return
          </CharString>
          <CharString index="90">
            9 -2 15 -15 -11 return
          </CharString>
          <CharString index="91">
            -61 -2 13 151 23 5 13 hstem
            return
          </CharString>
          <CharString index="92">
            76 75 121 117 2 112 return
          </CharString>
          <CharString index="93">
            -8 -8 vvcurveto
            return
          </CharString>
          <CharString index="94">
            -123 -31 -106 42 108 94 7 5 -12 7 -20 -16 return
          </CharString>
          <CharString index="95">
            36 16 36 20 33 22 63 -82 13 -130 -32 -111 return
          </CharString>
          <CharString index="96">
            48 23 41 19 31 16 22 rrcurveto
            return
          </CharString>
          <CharString index="97">
            31 198 13 return
          </CharString>
          <CharString index="98">
            3 2 5 return
          </CharString>
          <CharString index="99">
            -16 7 -14 12 -10 16 rrcurveto
            -11 15 -5 17 19 vvcurveto
            return
          </CharString>
          <CharString index="100">
            rrcurveto
            5 -27 callgsubr
            3 vvcurveto
            3 -3 2 -7 -1 vhcurveto
            return
          </CharString>
          <CharString index="101">
            -17 -3 -17 -3 -18 -1 -110 -7 -82 59 -32 86 return
          </CharString>
          <CharString index="102">
            -1 -1 -1 return
          </CharString>
          <CharString index="103">
            -11 hhcurveto
            -30 -31 5 9 -31 hvcurveto
            14 33 20 32 return
          </CharString>
          <CharString index="104">
            rlineto
            110 hlineto
            12 7 5 6 6 vvcurveto
            endchar
          </CharString>
          <CharString index="105">
            vvcurveto
            -17 4 -14 8 -12 vhcurveto
            return
          </CharString>
          <CharString index="106">
            -1 -5 callsubr
            return
          </CharString>
          <CharString index="107">
            1 rrcurveto
            -8 1 -4 -2 -5 vvcurveto
            -3 4 -1 return
          </CharString>
          <CharString index="108">
            125 rmoveto
            20 1 return
          </CharString>
          <CharString index="109">
            1 -1 2 return
          </CharString>
          <CharString index="110">
            7 -1 17 2 4 36 hvcurveto
            4 34 34 return
          </CharString>
          <CharString index="111">
            hlineto
            12 29 12 28 11 29 rrcurveto
            18 45 return
          </CharString>
          <CharString index="112">
            9 -7 7 vhcurveto
            7 -7 -10 4 -11 hhcurveto
            return
          </CharString>
          <CharString index="113">
            3 -27 callgsubr
            vvcurveto
            8 return
          </CharString>
          <CharString index="114">
            -13 210 13 return
          </CharString>
          <CharString index="115">
            192 13 hstem
            return
          </CharString>
          <CharString index="116">
            29 callgsubr
            -2 return
          </CharString>
          <CharString index="117">
            -3 -1 -1 return
          </CharString>
          <CharString index="118">
            1 2 2 return
          </CharString>
          <CharString index="119">
            4 -1 3 return
          </CharString>
          <CharString index="120">
            8 4 3 5 7 -5 3 -9 hvcurveto
            return
          </CharString>
          <CharString index="121">
            5 9 vvcurveto
            10 -7 4 -15 -1 vhcurveto
            return
          </CharString>
          <CharString index="122">
            rrcurveto
            21 15 16 10 17 hhcurveto
            20 10 return
          </CharString>
          <CharString index="123">
            3 1 3 return
          </CharString>
          <CharString index="124">
            16 16 16 return
          </CharString>
          <CharString index="125">
            -100 -167 11 hstem
            97 15 vstem
            return
          </CharString>
          <CharString index="126">
            -12 -9 -7 -3 -6 -7 vhcurveto
            -6 return
          </CharString>
          <CharString index="127">
            -5 rrcurveto
            -6 4 6 -2 8 hhcurveto
            return
          </CharString>
          <CharString index="128">
            rlineto
            45 hlineto
            147 403 rlineto
            return
          </CharString>
          <CharString index="129">
            -71 13 15 hstem
            10 129 vstem
            return
          </CharString>
          <CharString index="130">
            7 hstem
            28 24 25 51 75 15 return
          </CharString>
          <CharString index="131">
            3 10 hhcurveto
            18 8 -8 -15 -13 return
          </CharString>
          <CharString index="132">
            3 31 callgsubr
            vhcurveto
            return
          </CharString>
          <CharString index="133">
            448 459 15 return
          </CharString>
          <CharString index="134">
            1 0 callgsubr
            return
          </CharString>
          <CharString index="135">
            21 13 21 return
          </CharString>
          <CharString index="136">
            -5 vvcurveto
            -1 return
          </CharString>
          <CharString index="137">
            -3 -11 -2 return
          </CharString>
          <CharString index="138">
            7 3 6 return
          </CharString>
          <CharString index="139">
            -8 5 -1 return
          </CharString>
        <CharString name=".notdef">
          85 302 29 hstem
          302 329 rmoveto
          2 -14 callgsubr
          -5 hhcurveto
          -5 1 10 callsubr
          vvcurveto
          -8 -17 -12 -8 -17 1 -9 1 -13 4 -17 7 -18 7 -14 4 -9 1 -24 3 -22 -17 -20 -36 rrcurveto
          -1 -1 3 -2 5 hhcurveto
          5 3 0 2 1 hvcurveto
          9 16 11 7 14 -1 9 -1 14 -4 17 -8 18 -8 14 -4 9 -1 25 -2 22 18 19 37 rrcurveto
          endchar
        </CharString>
        <CharString name="A">
          -101 callsubr
          endchar
        </CharString>
        <CharString name="AE">
          731 -115 11 64 19 75 8 124 17 63 26 218 15 56 9 hstem
          -150 11 123 32 143 15 266 13 125 29 345 8 15 31 vstem
          491 186 rmoveto
          -4 vlineto
          -30 -31 -15 -32 -32 vvcurveto
          -42 22 -33 45 -24 vhcurveto
          48 -26 64 -8 78 10 67 8 58 19 49 30 53 33 28 38 2 43 rrcurveto
          7 0 3 -3 -3 -1 -3 -6 -1 vhcurveto
          -3 -36 -27 -33 -49 -30 -46 -28 -54 -18 -61 -8 rrcurveto
          -3 -19 -17 -1 -17 hhcurveto
          -53 -42 11 23 -31 hvcurveto
          -29 21 -15 27 32 vvcurveto
          30 14 29 28 27 vhcurveto
          31 29 44 22 56 15 61 23 callgsubr
          9 14 callsubr
          -45 -2 -41 5 -37 13 -43 15 -20 20 3 25 2 25 14 24 26 23 25 23 31 17 36 11 rrcurveto
          12 39 34 6 28 hhcurveto
          29 22 -6 -12 14 22 callgsubr
          -3 -10 -7 -9 vhcurveto
          -6 -9 -8 -5 -8 0 callsubr
          8 6 callgsubr
          6 -19 callgsubr
          -39 hvcurveto
          -45 -12 -39 -18 -31 -22 -37 -26 -20 -28 -4 -31 -2 -23 12 -20 25 -17 rrcurveto
          -16 26 30 -8 34 hhcurveto
          -95 -20 -45 -15 -39 -18 -31 -21 rlinecurve
          24 115 19 84 13 52 2 6 -1 5 -2 3 rrcurveto
          14 28 8 23 18 vvcurveto
          27 -17 14 -33 1 vhcurveto
          -7 -4 -2 -4 -2 2 -1 4 hvcurveto
          17 -1 9 -9 -16 vvcurveto
          -33 -37 -63 -75 -94 vhcurveto
          -54 -67 -51 -57 -48 -47 -15 -2 -14 -2 -14 -1 9 10 rcurveline
          82 93 51 68 20 43 rrcurveto
          14 30 7 28 26 vvcurveto
          28 -7 22 -16 16 vhcurveto
          16 -16 -20 8 -24 hhcurveto
          -34 -33 -14 -30 -32 hvcurveto
          -38 -33 -30 -49 -23 -62 rrcurveto
          -14 -38 -7 -41 -44 vvcurveto
          -35 4 -30 9 -27 vhcurveto
          -23 -6 -61 -17 -46 -29 -32 -39 rlinecurve
          -17 -22 -9 -21 -20 vvcurveto
          -30 18 -23 35 -16 vhcurveto
          -62 -38 -51 -18 -41 1 rrcurveto
          -15 -7 6 9 6 2 8 4 9 hvcurveto
          -5 -2 -4 -4 -2 -7 rrcurveto
          -4 -7 -2 -6 -5 vvcurveto
          -11 9 -7 19 vhcurveto
          43 -2 57 20 71 42 24 -11 27 -7 31 -3 rrcurveto
          8 -1 4 1 4 vvcurveto
          2 -3 1 -5 vhcurveto
          -30 3 -25 7 -20 10 34 20 44 34 54 50 36 33 rcurveline
          -23 29 36 -11 44 hhcurveto
          31 22 8 15 16 hvcurveto
          -32 callgsubr
          -2 2 -2 2 -2 0 -1 -2 rrcurveto
          -14 -14 -21 -7 -29 hhcurveto
          -41 -34 10 22 -27 hvcurveto
          90 85 73 4 56 2 37 1 rlinecurve
          -317 73 rmoveto
          45 7 43 15 40 vhcurveto
          22 61 28 47 35 32 rrcurveto
          29 30 30 14 30 hhcurveto
          20 17 -7 -14 13 hvcurveto
          13 -15 6 -19 -24 vvcurveto
          -26 -7 -28 -15 -31 vhcurveto
          -35 -75 -54 -73 -71 -71 -29 -3 -24 -4 -20 -4 rrcurveto
          -7 25 -4 27 31 vvcurveto
          20 -131 rmoveto
          -38 -32 -33 -24 -27 -19 -2 -31 callsubr
          1 -2 rrcurveto
          -2 2 callsubr
          21 35 23 47 48 vhcurveto
          4 -6 5 -6 5 -5 -45 -42 rcurveline
          -51 -47 -41 -33 -31 -20 rrcurveto
          -21 16 -11 18 19 vvcurveto
          40 37 38 74 37 vhcurveto
          16 8 19 8 21 7 3 -7 4 -7 4 -6 rrcurveto
          372 317 rmoveto
          -12 -38 -12 -39 -11 -39 -16 -50 -12 -43 -8 -33 rrcurveto
          -1 -12 -25 -1 -38 hhcurveto
          -32 -1 -25 -1 -18 -2 59 56 40 39 20 21 38 41 34 44 30 47 rrcurveto
          -272 -270 rmoveto
          -71 -69 -5 5 -4 6 -4 6 rlinecurve
          -1 hlineto
          41 43 rlineto
          -56 -15 rmoveto
          12 4 12 3 14 4 -30 -27 rcurveline
          endchar
        </CharString>
        <CharString name="Aacute">
          -101 callsubr
          282 470 -95 callsubr
        </CharString>
        <CharString name="Acircumflex">
          -39 callgsubr
          -87 callgsubr
          329 415 -100 callgsubr
          -272 -414 -34 callsubr
        </CharString>
        <CharString name="Adieresis">
          -39 callgsubr
          175 44 hstem
          607 -5 callgsubr
          vstem
          -103 callgsubr
          176 431 -40 callsubr
        </CharString>
        <CharString name="Agrave">
          -101 callsubr
          124 460 -90 callgsubr
        </CharString>
        <CharString name="Aring">
          -39 callgsubr
          136 11 63 12 hstem
          638 11 62 12 vstem
          723 601 -48 callsubr
          2 -2 2 -3 3 -1 -11 -2 -11 -5 -12 -8 -77 callgsubr
          rrcurveto
          -92 callgsubr
          3 4 -6 5 -3 -4 rrcurveto
          -94 callgsubr
          19 -6 13 -9 8 vhcurveto
          8 2 8 4 6 6 rrcurveto
          9 8 4 10 12 vvcurveto
          -294 -399 -101 callgsubr
          57 1 -74 callsubr
          236 413 rmoveto
          -64 callgsubr
        </CharString>
        <CharString name="Atilde">
          -39 callgsubr
          204 25 -87 callgsubr
          349 462 -98 callsubr
          -292 -461 -34 callsubr
        </CharString>
        <CharString name="B">
          354 420 13 hstem
          336 585 rmoveto
          5 3 -4 7 -4 -3 -21 -11 -23 -29 -22 -40 -285 -42 -34 -210 205 21 rrcurveto
          1 5 6 1 5 hhcurveto
          -18 -52 -18 -51 -18 -46 -60 -11 -55 -18 -33 -14 -227 -102 197 -201 133 220 17 28 18 42 18 49 13 2 13 2 13 1 -16 -54 -10 -47 -4 -31 -2 -18 30 -20 5 9 rrcurveto
          15 29 42 61 -2 -8 -16 -44 32 -50 41 -8 112 -21 117 72 43 49 rrcurveto
          87 77 -73 94 -170 hhcurveto
          69 7 157 64 7 91 7 84 -124 40 -124 1 rrcurveto
          -7 hlineto
          17 24 15 17 12 3 26 6 15 -13 8 -5 rrcurveto
          -9 12 -2 -8 7 hhcurveto
          24 2 -68 64 -52 -25 -18 -8 -19 -21 -19 -28 -17 -1 -17 -2 -15 -2 21 36 20 26 18 10 rrcurveto
          -128 -441 rmoveto
          11 35 8 26 0 vvcurveto
          225 49 173 -89 -138 -116 -26 -22 -45 -27 -46 -16 -161 -56 -8 119 72 62 7 5 -11 7 -21 -16 -9 -7 -22 -25 -4 -8 -13 -20 -20 -36 -9 -8 7 36 15 54 13 44 rrcurveto
          80 2 71 -21 11 -68 1 -5 7 2 -1 5 -9 74 -74 22 -84 -2 rrcurveto
          66 186 rmoveto
          25 61 33 70 30 48 rrcurveto
          11 hlineto
          114 -1 97 -46 -5 -66 -5 -57 -70 -73 -163 -34 rrcurveto
          -4 -16 -61 -6 -31 hhcurveto
          5 16 11 31 15 37 60 20 53 31 57 38 14 -17 callsubr
          -47 -34 -54 -26 -56 -18 rrcurveto
          -163 -205 rmoveto
          -18 -45 -17 -38 -17 -27 -129 -209 -157 183 199 94 30 14 52 17 57 11 rrcurveto
          66 182 rmoveto
          -10 -2 -11 -1 -10 -1 -198 -23 102 167 208 48 -28 -52 -28 -67 -25 -69 rrcurveto
          91 191 rmoveto
          16 3 17 3 17 2 -31 -49 -33 -69 -28 -71 -13 -4 -13 -2 -13 -2 25 70 28 67 28 52 rrcurveto
          -89 -213 rmoveto
          13 2 12 2 12 3 -20 -51 -17 -53 -14 -47 -13 -1 -13 -2 -12 -2 17 46 17 51 18 52 rrcurveto
          endchar
        </CharString>
        <CharString name="C">
          315 -1 11 395 13 hstem
          488 414 rmoveto
          -48 callgsubr
          28 -153 170 -36 85 118 87 27 66 60 29 43 rrcurveto
          -35 callsubr
          -6 callsubr
          rrcurveto
          -16 callgsubr
          rrcurveto
          63 -24 -69 callgsubr
          14 -130 rmoveto
          49 -49 73 -27 87 10 14 1 14 3 13 3 -78 -90 -138 21 -34 128 rrcurveto
          endchar
        </CharString>
        <CharString name="Ccedilla">
          348 -238 173 hstem
          278 33 177 81 vstem
          311 -143 rmoveto
          24 -11 19 -22 15 vhcurveto
          30 10 28 20 23 31 87 27 66 60 29 43 -35 callsubr
          rrcurveto
          -6 callsubr
          -16 callgsubr
          -48 callgsubr
          10 -54 28 -40 35 -23 -7 -6 -5 -5 -1 -2 rrcurveto
          -2 -3 -2 -3 -4 vvcurveto
          -10 6 -5 11 1 7 4 8 14 vhcurveto
          6 3 5 3 6 2 19 -6 21 -1 21 2 7 -5 rcurveline
          15 -11 7 -14 -19 vvcurveto
          -13 -4 -14 -8 -15 vhcurveto
          -24 -14 -28 -12 -43 hhcurveto
          -36 -25 8 17 -14 hvcurveto
          7 -6 -4 4 -3 hhcurveto
          -4 -2 -2 -5 -16 16 -12 32 -9 hvcurveto
          -6 23 21 -4 19 hhcurveto
          30 22 6 12 15 hvcurveto
          30 23 16 26 28 vvcurveto
          240 533 -69 callgsubr
          223 -196 rmoveto
          14 1 14 3 13 3 -22 -25 -26 -16 -27 -8 rrcurveto
          9 -18 -20 4 -22 hhcurveto
          -11 -11 -1 -2 -12 hvcurveto
          1 12 12 26 22 vhcurveto
          27 -5 31 -1 32 3 rrcurveto
          -209 66 rmoveto
          27 -28 36 -20 41 -11 -24 -22 rcurveline
          -15 -13 -30 19 -24 31 -11 44 rlinecurve
          endchar
        </CharString>
        <CharString name="D">
          -78 callsubr
          -18 -5 rmoveto
          -13 callsubr
          -3 callgsubr
          5 49 36 136 45 125 -12 callsubr
          rrcurveto
          -4 -15 -5 -14 -6 -13 rrcurveto
          -231 271 -81 callsubr
        </CharString>
        <CharString name="Delta">
          95 endchar
        </CharString>
        <CharString name="E">
          284 -103 callsubr
          420 377 -56 callsubr
          endchar
        </CharString>
        <CharString name="Eacute">
          330 -103 callsubr
          424 584 -98 callgsubr
          -4 -207 -56 callsubr
          endchar
        </CharString>
        <CharString name="Ecircumflex">
          330 -103 callsubr
          419 546 -100 callgsubr
          1 -169 -56 callsubr
          endchar
        </CharString>
        <CharString name="Edieresis">
          330 -4 15 377 13 176 44 hstem
          399 -5 callgsubr
          vstem
          -106 callsubr
          420 377 -56 callsubr
          -6 182 -90 callsubr
        </CharString>
        <CharString name="Egrave">
          330 -103 callsubr
          286 583 -94 callsubr
          134 -206 -56 callsubr
          endchar
        </CharString>
        <CharString name="Eth">
          -78 callsubr
          -32 116 -33 callgsubr
          -34 3 -21 hhcurveto
          -21 -17 -2 -4 -12 hvcurveto
          -8 -3 -8 -4 -7 -4 15 54 20 61 21 59 -12 callsubr
          -4 -15 -5 -14 -6 -13 -13 callsubr
          rrcurveto
          -3 callgsubr
          2 22 9 40 13 49 4 -1 6 0 8 1 -6 callgsubr
          -217 150 -81 callsubr
        </CharString>
        <CharString name="Euro">
          669 -37 13 92 11 224 11 hstem
          157 12 322 17 138 10 vstem
          427 248 rmoveto
          39 9 16 6 -48 hvcurveto
          -31 4 -100 3 -82 -1 16 28 19 25 21 24 73 3 71 3 78 2 rrcurveto
          39 9 16 6 -48 hvcurveto
          -27 3 -83 4 -75 -1 62 57 76 43 77 28 203 73 201 -33 -63 -138 -17 -37 31 18 13 24 rrcurveto
          61 33 -9 106 -166 hhcurveto
          -89 -98 -20 -39 -91 hvcurveto
          -77 -32 -77 -49 -60 -62 -40 -1 -33 -3 -14 -4 -29 -10 -29 -25 61 3 52 2 rcurveline
          -18 -23 -15 -26 -13 -27 -34 -1 -28 -2 -12 -4 -30 -10 -28 -25 61 3 57 2 rcurveline
          -21 -70 2 -64 38 -49 54 -69 117 -39 149 19 75 9 149 28 86 81 8 8 1 18 -15 -14 -91 -83 -144 -13 -71 -6 -143 -13 -108 31 -47 63 -31 42 -5 56 29 67 rrcurveto
          76 3 73 3 82 2 rrcurveto
          endchar
        </CharString>
        <CharString name="F">
          296 261 13 hstem
          280 336 rmoveto
          -7 -12 -7 -11 -8 -10 -121 -158 -153 90 114 161 16 -11 21 -11 26 -11 33 -14 43 -9 43 -4 rrcurveto
          30 226 rmoveto
          -85 -19 -88 -46 -56 -68 -80 89 178 83 131 -39 rrcurveto
          110 -334 rmoveto
          18 46 11 52 58 vvcurveto
          87 -39 54 -53 29 vhcurveto
          105 16 84 -45 -34 -143 -12 -47 -20 -53 -26 -53 rrcurveto
          -11 -12 0 -1 -11 hvcurveto
          134 -10 rmoveto
          -18 5 -21 3 -22 2 25 49 20 49 11 45 41 161 -122 55 -136 -21 -148 55 -221 -101 109 -103 -4 -5 rcurveline
          -131 -183 199 -125 134 185 10 13 10 15 9 17 rrcurveto
          -2 20 19 0 18 6 0 8 -6 hhcurveto
          -17 -18 1 1 -18 hvcurveto
          17 33 15 39 13 45 4 11 -11 9 -3 -11 -15 -49 -18 -41 -20 -34 -41 5 -41 10 -33 14 -27 11 -21 12 -16 11 55 72 93 54 84 18 rrcurveto
          54 -26 40 -52 -87 vvcurveto
          -58 -12 -53 -20 -49 vhcurveto
          -123 -11 -140 -46 -49 -74 -6 -10 6 -39 6 9 47 70 132 57 117 22 -58 -126 -106 -90 -57 -54 -4 -4 2 -8 4 4 79 72 106 86 55 123 12 2 11 1 11 1 rrcurveto
          -79 -154 -126 -154 -103 -33 -10 -4 5 -16 10 4 110 35 145 162 87 161 rrcurveto
          22 20 -2 -5 17 hvcurveto
          10 -3 11 13 -10 3 rrcurveto
          endchar
        </CharString>
        <CharString name="G">
          334 -11 25 160 11 202 14 hstem
          590 304 rmoveto
          1 8 -13 5 -11 -1 -2 5 -8 -4 -6 -11 -49 -95 -64 -76 -64 -51 -22 44 -43 27 -61 -14 -11 -2 -35 -25 2 -29 rrcurveto
          -5 8 1 5 vvcurveto
          -1 23 30 22 8 2 57 13 38 -27 19 -43 -56 -42 -56 -22 -47 1 -47 1 -38 21 -17 51 15 52 24 56 32 53 rrcurveto
          -4 23 27 -3 30 hhcurveto
          100 118 49 59 69 hvcurveto
          175 151 -152 93 -174 -64 -116 -43 -110 -88 -63 -96 -119 74 96 173 124 1 rrcurveto
          1 13 -5 12 -14 hhcurveto
          -143 -2 -95 -195 130 -85 rrcurveto
          -26 -45 -14 -46 -43 vvcurveto
          -52 11 -37 20 -25 vhcurveto
          -4 -31 -12 -130 64 -67 73 -8 rlinecurve
          -115 -190 254 42 119 224 22 43 22 51 19 54 rrcurveto
          2 14 13 1 14 15 4 13 -22 hhcurveto
          -11 -11 -1 -1 -11 hvcurveto
          30 87 24 96 11 87 rrcurveto
          -69 193 rmoveto
          5 0 8 -5 hhcurveto
          -142 -122 -104 -127 -81 hvcurveto
          -17 3 -15 4 -14 5 53 96 102 89 109 43 160 63 134 -96 -179 -127 rrcurveto
          -48 -68 -94 -38 -98 hhcurveto
          -22 -20 1 3 -19 hvcurveto
          123 80 118 102 135 hhcurveto
          -317 -693 rmoveto
          -70 5 -62 63 13 128 rrcurveto
          7 1 7 1 8 vhcurveto
          26 -26 36 -10 41 1 54 2 62 29 61 47 9 -25 3 -30 -3 -30 -50 -32 -42 -41 -34 -41 -19 -23 -15 -20 -12 -19 rrcurveto
          273 206 rmoveto
          -17 -54 -20 -50 -20 -41 -92 -185 -207 -71 106 187 70 6 73 57 18 105 1 5 rcurveline
          28 18 30 14 30 9 rrcurveto
          -86 -20 rmoveto
          2 30 -4 29 -10 25 60 49 59 67 47 77 -15 -72 -22 -87 -25 -81 -33 -8 -31 -13 -28 -16 rrcurveto
          -19 -32 rmoveto
          -4 vlineto
          -19 -88 -61 -51 -60 -10 16 26 rcurveline
          32 48 43 45 49 34 rrcurveto
          -276 147 rmoveto
          -3 15 -1 17 18 vvcurveto
          35 9 37 17 36 vhcurveto
          13 -5 14 -5 16 -3 -28 -47 -22 -50 -15 -48 rrcurveto
          endchar
        </CharString>
        <CharString name="H">
          595 -6 13 377 13 hstem
          627 387 rmoveto
          3 5 -8 4 -2 -5 -18 -39 -29 -32 -34 -24 14 48 8 54 -8 52 -11 83 -56 32 -44 -24 -6 9 rcurveline
          -61 81 -80 -17 -42 -28 -121 -80 59 -254 199 -8 rrcurveto
          16 16 1 2 16 hvcurveto
          -21 -42 -116 -4 -117 -7 -72 -24 rlinecurve
          -55 -19 -42 -41 -3 -53 -3 -59 45 -36 54 -6 31 -4 35 5 35 12 103 34 118 84 65 99 rrcurveto
          11 94 1 4 56 hvcurveto
          -1 -9 -19 -153 35 -29 37 -9 rlinecurve
          40 -9 75 54 20 34 6 10 2 25 -17 -27 -25 -42 -63 -36 -28 19 -29 19 -10 54 13 103 29 5 25 8 11 8 9 6 5 15 -17 -11 -10 -6 -22 -4 -27 -3 rrcurveto
          13 85 80 262 80 -12 22 -3 -8 11 -15 2 -99 11 -93 -261 -16 -97 -44 -2 -54 -1 -56 -1 10 21 12 27 9 29 39 25 32 35 20 43 rrcurveto
          -186 -131 rmoveto
          -3 -16 -17 -1 -17 hhcurveto
          -183 8 -55 249 104 70 40 26 69 14 57 -77 7 -9 rcurveline
          -33 -28 -23 -64 14 -103 rrcurveto
          2 -11 10 -2 11 vvcurveto
          97 18 58 22 26 vhcurveto
          43 -77 -6 -97 -36 -87 rrcurveto
          22 -68 rmoveto
          -67 -95 -115 -130 -157 19 -44 6 -59 25 3 51 2 41 44 26 37 12 68 23 137 18 94 4 -67 -108 -112 -78 -115 16 -5 1 -1 32 callsubr
          119 -17 118 83 70 112 rrcurveto
          17 1 15 0 13 -1 rrcurveto
          -12 339 rmoveto
          30 21 33 -30 6 -63 6 -62 -13 -68 -17 -53 -13 -6 -14 -4 -15 -4 37 91 6 99 -46 79 rrcurveto
          42 -265 rmoveto
          -7 -22 -8 -19 -7 -15 rrcurveto
          -14 -14 0 -1 -15 hvcurveto
          9 15 7 14 6 15 15 3 14 5 14 5 rrcurveto
          endchar
        </CharString>
        <CharString name="I">
          203 -104 callgsubr
          endchar
        </CharString>
        <CharString name="IJ">
          624 -12 15 378 19 -13 18 -2 13 -8 13 hstem
          722 152 rmoveto
          -126 -28 -97 -51 -70 -59 -6 5 -7 5 -7 3 -5 2 -4 -4 4 -3 8 -5 6 -5 5 -4 -5 -4 rcurveline
          -13 -12 -14 3 -40 10 -45 8 -45 5 rlinecurve
          -72 callgsubr
          -102 callgsubr
          rrcurveto
          2 2 0 -1 3 hvcurveto
          -176 -182 106 -187 249 156 -88 callgsubr
          11 callsubr
          2 2 2 15 2 5 7 -2 9 68 62 97 49 110 29 -51 callgsubr
          -537 -7 -86 callgsubr
          467 282 -54 callsubr
          -407 60 -97 callsubr
          endchar
        </CharString>
        <CharString name="Iacute">
          266 -104 callgsubr
          103 599 -95 callsubr
        </CharString>
        <CharString name="Icircumflex">
          266 -104 callgsubr
          71 526 -96 callgsubr
        </CharString>
        <CharString name="Idieresis">
          266 -31 callgsubr
          145 44 hstemhm
          335 -5 callgsubr
          hintmask 11100000
          -107 callgsubr
          hintmask 00011100
          56 556 -90 callsubr
        </CharString>
        <CharString name="Igrave">
          266 -104 callgsubr
          -73 589 -90 callgsubr
        </CharString>
        <CharString name="Itilde">
          203 -31 callgsubr
          189 25 hstemhm
          hintmask 11100000
          -107 callgsubr
          hintmask 00010000
          69 601 -91 callgsubr
        </CharString>
        <CharString name="J">
          -85 callsubr
          endchar
        </CharString>
        <CharString name="Jcircumflex">
          -85 callsubr
          275 124 -96 callgsubr
        </CharString>
        <CharString name="K">
          417 408 13 hstem
          376 506 rmoveto
          -2 45 -38 -46 0 vvcurveto
          -1 -15 -15 1 -14 hhcurveto
          2 20 1 17 11 vvcurveto
          1 5 -8 1 -1 -5 rrcurveto
          -12 -1 -17 -2 -20 vhcurveto
          -251 -7 -109 -141 219 -75 -50 -28 -38 -34 -17 -25 -119 -176 192 -109 88 206 28 64 20 71 15 67 13 3 13 1 14 1 -31 -152 -61 -189 -74 -17 -26 -6 -15 12 -8 6 rrcurveto
          -12 8 1 9 -6 -1 -24 -2 69 -66 51 27 70 38 51 128 35 129 28 -51 26 -59 32 -52 -30 -6 -32 5 -28 18 -5 3 -4 -7 4 -3 31 -20 36 -4 33 6 rrcurveto
          19 -30 22 -27 26 -22 rrcurveto
          -23 26 35 -22 36 hhcurveto
          44 27 34 42 29 -14 32 -19 22 hvcurveto
          2 -2 -2 3 -3 hhcurveto
          -1 callsubr
          -2 28 callgsubr
          hvcurveto
          17 -25 11 -29 -31 vvcurveto
          -24 -9 -26 -29 -20 -23 13 11 -17 vhcurveto
          -24 17 -31 35 -30 38 37 18 29 30 10 33 17 59 -43 65 -93 26 51 89 66 94 85 10 62 8 65 -30 8 -68 rrcurveto
          -2 0 -10 4 vhcurveto
          3 1 -2 12 2 vvcurveto
          -8 69 -56 53 -71 -9 -5 -1 -5 0 -5 -2 -103 -25 -53 -89 -49 -99 -16 4 -18 2 -20 1 13 58 9 54 6 40 rrcurveto
          29 0 22 1 -24 hvcurveto
          -207 -220 rmoveto
          25 13 28 11 31 6 -14 -65 -20 -69 -27 -63 -79 -184 -165 101 104 154 17 25 36 35 50 28 7 -2 rcurveline
          9 -3 11 10 -9 2 rrcurveto
          108 198 rmoveto
          -5 -44 -8 -55 -13 -59 -36 -8 -34 -13 -30 -15 -157 38 38 149 245 7 rrcurveto
          166 -385 rmoveto
          -36 46 -34 49 -22 29 50 92 rcurveline
          90 -25 34 -63 -15 -53 -9 -31 -26 -27 -32 -17 rrcurveto
          -144 233 rmoveto
          -13 -14 -2 -2 -12 hvcurveto
          12 58 8 55 5 43 rrcurveto
          11 12 0 -1 11 hvcurveto
          -33 -7 -55 -13 -63 vhcurveto
          38 -7 rmoveto
          19 -1 18 -3 16 -3 -44 -89 rcurveline
          -23 36 5 20 5 20 4 20 rlinecurve
          endchar
        </CharString>
        <CharString name="L">
          -88 callsubr
          54 70 -42 callsubr
          endchar
        </CharString>
        <CharString name="Ldotaccent">
          -88 callsubr
          192 -37 -79 callsubr
          -138 107 -42 callsubr
          endchar
        </CharString>
        <CharString name="Lslash">
          195 48 18 53 35 324 15 hstem
          331 -40 callgsubr
          -33 4 11 34 105 31 73 74 33 68 rlinecurve
          -59 callgsubr
          -39 -85 54 -64 113 5 -6 -18 rcurveline
          1 -15 -16 0 -15 hhcurveto
          -27 -20 -1 -3 -13 hvcurveto
          -7 3 -7 1 -6 2 -65 callgsubr
          19 43 rlineto
          -35 123 -81 callgsubr
          -94 11 -9 94 70 18 rrcurveto
          -6 10 -3 18 1 vhcurveto
          13 16 1 1 18 hvcurveto
          17 -6 18 -8 17 -7 -64 callsubr
          48 4 -42 callsubr
          -46 -152 rmoveto
          0 -14 8 -20 10 vhcurveto
          5 12 43 2 -4 -11 -5 -11 -5 -10 rlinecurve
          -8 82 rmoveto
          13 2 13 2 14 3 -9 -29 rcurveline
          -38 3 rlineto
          -28 -40 rmoveto
          -10 5 rlineto
          4 4 0 1 5 hvcurveto
          endchar
        </CharString>
        <CharString name="M">
          595 383 12 hstem
          52 17 491 32 vstem
          554 498 rmoveto
          -9 -2 -10 -4 -9 -6 rrcurveto
          38 -30 -47 23 -73 hhcurveto
          -7 -7 0 -1 -7 hvcurveto
          -5 3 -68 32 -74 -9 -57 -34 rlinecurve
          -89 -54 -25 -92 21 -69 rrcurveto
          -86 -27 19 -106 111 hhcurveto
          68 71 57 31 13 hvcurveto
          4 9 -2 8 -6 -10 rrcurveto
          -16 -12 -51 -56 -66 hhcurveto
          -83 -22 61 62 6 hvcurveto
          -28 21 31 -18 39 hhcurveto
          58 -1 63 42 6 50 rrcurveto
          5 -8 1 -5 vvcurveto
          -5 -45 -58 -40 -56 1 rrcurveto
          -40 -31 24 35 -18 hvcurveto
          4 18 5 18 7 15 rrcurveto
          99 42 111 84 93 hhcurveto
          7 7 0 -1 7 hvcurveto
          45 -28 29 -45 16 -51 -48 -75 -39 -103 -25 -54 -7 -17 -8 -17 -9 -17 -64 -15 -59 -27 -36 -42 -32 -37 -10 -33 4 -25 -13 -2 -23 1 -18 5 -14 4 -29 18 13 18 rrcurveto
          8 10 -25 1 -23 vvcurveto
          -40 60 -6 24 7 7 0 1 7 vhcurveto
          19 -47 76 -16 69 33 67 31 78 71 34 121 10 -1 10 -1 10 -2 -13 -52 -16 -46 -13 -33 rrcurveto
          -3 -1 2 -3 3 hhcurveto
          24 64 98 20 13 hvcurveto
          2 3 61 -23 37 -43 -23 -64 rlinecurve
          -2 -5 8 -3 2 5 23 67 -38 46 -64 26 72 113 136 221 117 53 rrcurveto
          5 12 14 4 13 hhcurveto
          28 18 -15 -29 -7 8 -6 1 17 hvcurveto
          35 2 -22 31 -33 hhcurveto
          -141 -165 -292 -101 -61 hvcurveto
          -13 -23 -10 3 -10 3 -11 2 rlinecurve
          40 119 25 147 -57 86 6 4 6 3 6 1 10 2 4 12 -10 -1 rrcurveto
          -189 -378 rmoveto
          30 5 32 2 30 -2 -25 -91 -56 -84 -88 -41 -68 -32 -62 15 -15 42 104 15 70 80 48 91 rrcurveto
          514 314 rmoveto
          -123 8 -55 -318 1 -81 3 -132 123 20 46 91 5 11 -7 5 -7 -11 -43 -69 -68 -25 -9 101 -6 61 54 332 85 -5 rrcurveto
          -1 8 1 13 -8 hhcurveto
          -540 111 rmoveto
          -105 -14 -104 -72 -53 -91 -9 -18 rcurveline
          -8 63 25 76 70 42 53 32 68 8 63 -26 rrcurveto
          126 -175 rmoveto
          14 -68 -3 -73 -9 -59 -2 -12 -2 -12 -3 -12 -29 2 -31 0 -29 -4 13 30 rcurveline
          24 53 27 85 30 70 rrcurveto
          -326 -423 rmoveto
          -3 24 11 31 29 34 30 35 51 25 56 14 -39 -73 -55 -74 -80 -16 rrcurveto
          362 493 rmoveto
          39 -83 -13 -124 -25 -103 -30 3 rcurveline
          2 8 2 7 1 8 13 62 10 94 -23 83 8 17 8 15 8 13 rrcurveto
          -34 -16 rmoveto
          -16 41 -26 37 -40 27 51 -9 34 -26 22 -37 -8 -10 -9 -11 -8 -12 rrcurveto
          84 -314 rmoveto
          -23 -41 -35 -62 -21 -10 16 32 18 42 16 47 rrcurveto
          endchar
        </CharString>
        <CharString name="N">
          26 callsubr
          -102 callsubr
          9 -4 -60 callsubr
        </CharString>
        <CharString name="Nacute">
          26 callsubr
          -102 callsubr
          127 354 -98 callgsubr
          -118 -358 -60 callsubr
        </CharString>
        <CharString name="Ntilde">
          26 callsubr
          97 25 -102 callsubr
          141 347 -98 callsubr
          -132 -351 -60 callsubr
        </CharString>
        <CharString name="O">
          296 -99 callsubr
          3 -344 -49 callgsubr
          endchar
        </CharString>
        <CharString name="OE">
          893 -28 21 112 8 37 19 97 26 218 15 22 25 82 23 callsubr
          885 8 15 31 vstem
          585 567 rmoveto
          -35 5 -36 2 -39 -2 -67 -3 -65 -13 -64 -21 39 52 48 36 57 19 rrcurveto
          8 24 22 4 19 hhcurveto
          56 32 -29 -58 9 hvcurveto
          -374 -288 rmoveto
          11 -43 21 -35 32 -30 rrcurveto
          -1 -10 -11 -1 -4 callsubr
          26 31 rrcurveto
          20 200 rmoveto
          -19 -43 -9 -45 -48 vvcurveto
          -9 0 -10 1 -9 vhcurveto
          -41 -37 -32 -40 -23 -41 -8 callsubr
          35 17 36 34 35 vhcurveto
          32 34 43 29 53 27 rrcurveto
          356 66 rmoveto
          1 -17 -2 -18 -3 -19 -14 -71 -31 -66 -48 -59 -56 -69 -67 -41 -77 -12 -36 32 -22 39 -9 48 33 38 39 33 43 27 41 26 38 15 34 7 -7 callsubr
          -32 -6 -37 -13 -41 -21 -43 -22 -40 -28 -38 -32 rrcurveto
          6 -1 5 5 vvcurveto
          52 11 48 23 44 vhcurveto
          72 33 74 20 76 7 40 3 38 0 36 -5 rrcurveto
          194 -282 rmoveto
          8 17 7 16 5 17 rrcurveto
          -17 25 30 -8 36 hhcurveto
          -62 -12 -37 -9 -12 -4 rrcurveto
          -178 -143 rmoveto
          -84 -102 -121 -43 -141 hhcurveto
          -28 callsubr
          18 2 3 19 hvcurveto
          -33 44 51 -17 57 -24 callgsubr
          -27 -36 -43 -14 -49 hhcurveto
          -52 -47 15 30 -41 hvcurveto
          74 17 65 42 54 66 50 61 33 69 15 79 rrcurveto
          3 18 2 16 16 vvcurveto
          50 -9 40 -18 30 -25 30 -25 16 -32 2 -38 -3 -7 -2 -8 -1 33 callgsubr
          1 -7 2 -7 -8 -37 -21 -40 -32 -42 -1 -1 rcurveline
          -56 -32 -35 -36 -13 -42 rrcurveto
          508 15 rmoveto
          7 1 -1 3 -2 hhcurveto
          -3 -2 -3 -6 -1 hvcurveto
          -3 -36 -26 -33 -49 -30 -47 -28 -53 -18 -62 -8 rrcurveto
          -3 -18 -18 -1 -17 hhcurveto
          -52 -42 11 23 -31 hvcurveto
          -30 21 -14 27 32 vvcurveto
          4 0 4 1 4 vhcurveto
          48 36 39 40 30 45 17 7 18 6 19 6 62 23 callgsubr
          8 14 callsubr
          -40 -2 -37 5 -35 10 -41 11 -23 17 -6 21 rrcurveto
          1 8 0 9 8 vvcurveto
          6 23 15 22 25 21 24 21 29 15 33 10 rrcurveto
          12 40 33 6 28 hhcurveto
          29 22 -6 -12 15 22 callgsubr
          -4 -10 -6 -9 vhcurveto
          -7 -9 -7 -5 -9 0 callsubr
          9 6 callgsubr
          5 -19 callgsubr
          -38 hvcurveto
          -64 -17 -48 -26 -32 -33 -27 69 -65 44 -104 19 -4 31 -13 25 -22 16 rrcurveto
          16 -20 -26 8 -31 hhcurveto
          -43 -43 -14 -26 -43 hvcurveto
          -40 -25 -33 -31 -26 -38 -69 -26 -54 -34 -41 -40 rrcurveto
          -45 -45 -22 -49 -53 -36 callsubr
          59 61 9 18 63 hvcurveto
          63 18 58 25 54 33 4 -33 18 -27 34 -21 rrcurveto
          -23 36 48 -11 58 hhcurveto
          19 19 2 2 21 hvcurveto
          67 8 58 19 49 30 53 32 27 39 2 43 rrcurveto
          endchar
        </CharString>
        <CharString name="Oacute">
          339 -99 callsubr
          377 253 -98 callgsubr
          -374 -597 -49 callgsubr
          endchar
        </CharString>
        <CharString name="Ocircumflex">
          -1 callgsubr
          hstem
          459 535 -72 callsubr
          -88 -62 -38 17 -39 1 -34 -17 rlinecurve
          -57 -27 -19 -58 2 -55 -84 callgsubr
          -24 28 -26 21 -26 15 78 42 rcurveline
          -71 callsubr
          -76 callsubr
          -104 -216 -99 callgsubr
          29 15 34 -2 33 -15 -23 -16 rcurveline
          -82 callgsubr
          17 9 22 -13 23 -18 21 -22 rlinecurve
          -93 callgsubr
          3 -344 -49 callgsubr
          endchar
        </CharString>
        <CharString name="Odieresis">
          -1 callgsubr
          41 44 hstem
          361 -5 callgsubr
          vstem
          -105 callgsubr
          3 -344 -49 callgsubr
          348 595 -90 callsubr
        </CharString>
        <CharString name="Ograve">
          339 -99 callsubr
          201 256 -94 callsubr
          -198 -600 -49 callgsubr
          endchar
        </CharString>
        <CharString name="Omega">
          -69 endchar
        </CharString>
        <CharString name="Oslash">
          575 -28 21 112 9 36 19 380 24 3 25 53 23 callsubr
          370 17 168 37 vstem
          770 557 rmoveto
          -29 hlineto
          -25 -32 -32 19 -38 13 -43 8 rlinecurve
          -4 27 -11 23 -17 16 rrcurveto
          20 -21 -28 10 -35 hhcurveto
          -77 -67 -34 -67 -58 hvcurveto
          -10 -11 -8 -12 -8 -11 -57 -21 -47 -26 -38 -32 rrcurveto
          -59 -48 -30 -55 -64 -36 callsubr
          18 17 1 2 18 hvcurveto
          -63 -83 rlineto
          28 hlineto
          66 86 63 8 64 18 63 28 rlinecurve
          96 42 76 56 54 70 rrcurveto
          47 60 23 58 55 vvcurveto
          56 -25 47 -49 36 vhcurveto
          -454 -331 rmoveto
          -32 30 -20 38 -8 43 19 22 22 20 24 20 59 47 54 27 51 10 -7 callsubr
          -53 -9 -61 -27 -66 -46 -19 -13 -17 -13 -16 -14 rrcurveto
          16 vlineto
          52 11 48 22 43 vhcurveto
          27 12 31 10 33 10 rrcurveto
          21 70 61 10 52 hhcurveto
          22 21 -2 -2 20 hvcurveto
          -6 vlineto
          -59 -16 -57 -32 -58 vhcurveto
          -32 -57 -42 -46 -52 -36 -40 -28 -41 -18 -42 -7 -3 2 -2 3 -3 3 rrcurveto
          426 50 rmoveto
          -99 -129 -123 -77 -144 -24 81 105 rcurveline
          -1 8 8 0 8 -24 callgsubr
          -43 -32 -49 -13 -56 5 292 379 rcurveline
          34 -28 18 -35 -43 vvcurveto
          -47 -21 -53 -44 -56 vhcurveto
          -469 -238 rmoveto
          -28 callsubr
          19 2 3 18 hvcurveto
          30 -23 34 -16 38 -7 -87 -112 rcurveline
          -2 -23 -24 -2 -24 hhcurveto
          -36 350 rmoveto
          -10 0 -9 1 -9 vhcurveto
          -41 -36 -32 -40 -23 -42 -8 callsubr
          52 31 48 61 44 vhcurveto
          26 18 29 18 33 15 rrcurveto
          -19 -42 -10 -45 -48 vvcurveto
          277 -86 rmoveto
          62 65 40 78 18 92 rrcurveto
          3 17 2 16 14 vvcurveto
          3 vlineto
          37 -7 32 -12 28 -17 -299 -389 rcurveline
          -36 6 -31 14 -27 20 63 14 57 33 51 53 rrcurveto
          26 316 rmoveto
          -61 -65 -10 -20 -69 hvcurveto
          -33 -10 5 6 39 50 46 35 55 18 rlinecurve
          8 24 22 4 19 hhcurveto
          33 25 -11 -22 17 hvcurveto
          11 -14 7 -18 4 -21 rrcurveto
          3 -25 -26 2 -28 hhcurveto
          -231 -402 rmoveto
          -2 -10 -11 0 -4 callsubr
          25 31 11 -42 21 -36 33 -30 rrcurveto
          endchar
        </CharString>
        <CharString name="Otilde">
          -1 callgsubr
          76 25 hstem
          -105 callgsubr
          299 287 -98 callsubr
          -296 -631 -49 callgsubr
          endchar
        </CharString>
        <CharString name="P">
          368 162 13 230 13 hstem
          32 110 rmoveto
          -80 -52 26 -90 107 -41 callsubr
          49 4 46 8 41 12 rlinecurve
          -6 -41 -27 -40 -46 -21 -5 -2 4 -7 5 2 50 22 28 44 5 46 107 34 74 59 5 61 -55 callgsubr
          rrcurveto
          -20 -4 -19 -12 -16 -17 -279 1 -112 -140 50 -67 -52 -41 -47 -53 -13 -79 rrcurveto
          -2 -10 -1 -10 -10 vvcurveto
          124 194 rmoveto
          21 -18 37 -10 53 5 22 3 21 3 20 5 -7 -22 rcurveline
          -23 -81 -68 -200 -117 14 -35 4 -30 27 -4 56 34 55 72 55 101 16 9 2 0 12 -8 -1 -97 -10 -68 -40 -41 -46 1 5 rcurveline
          12 75 45 52 50 39 rrcurveto
          294 74 rmoveto
          16 54 16 47 20 29 107 -4 89 -45 -5 -63 -4 -45 -45 -55 -100 -38 -1 37 -18 38 -36 25 19 11 20 13 19 13 15 -17 callsubr
          -22 -16 -23 -14 -25 -12 rrcurveto
          -7 4 -9 4 -9 4 rrcurveto
          -17 102 rmoveto
          4 3 -5 7 -4 -3 -20 -15 -21 -40 -19 -42 -74 -1 -79 -26 -56 -41 -37 53 150 131 207 3 -25 -30 -20 -44 -20 -49 rrcurveto
          2 -8 -9 1 -9 hhcurveto
          1 -3 -3 0 -3 hhcurveto
          17 40 19 36 18 14 rrcurveto
          -87 -184 rmoveto
          13 4 14 4 13 5 -39 -110 rcurveline
          -28 callgsubr
          -81 -22 55 60 27 hvcurveto
          11 -45 32 -25 36 -4 124 -15 77 211 22 77 rrcurveto
          199 -13 rmoveto
          -25 -9 -27 -8 -30 -6 -10 -2 -21 -1 -19 -3 11 34 10 36 10 34 15 7 15 8 15 8 37 -24 18 -37 1 -37 rrcurveto
          -173 127 rmoveto
          -10 -23 -9 -22 -7 -21 -26 -6 -26 -5 -26 -2 -46 -6 -30 5 -16 12 54 40 71 26 71 2 rrcurveto
          12 hmoveto
          4 4 0 -1 4 hvcurveto
          8 8 -1 -1 7 hvcurveto
          -6 -15 -5 -16 -6 -16 -40 -12 rcurveline
          6 20 8 21 8 21 rrcurveto
          91 -20 rmoveto
          -25 -12 6 20 rlineto
          endchar
        </CharString>
        <CharString name="Q">
          297 397 13 hstem
          485 113 rmoveto
          45 55 28 68 70 vvcurveto
          73 -39 55 -55 31 vhcurveto
          13 -1 14 -5 13 vhcurveto
          -39 115 -201 -23 -77 -166 -18 -12 -16 -13 -14 -16 rrcurveto
          -32 -33 -22 -43 -46 vvcurveto
          -25 6 -25 12 -21 vhcurveto
          -119 -41 32 -110 153 hhcurveto
          18 17 2 3 17 hvcurveto
          44 -29 48 -8 44 15 75 26 28 72 -7 64 rrcurveto
          39 206 rmoveto
          -58 -20 -54 -32 -45 vhcurveto
          -35 74 -111 62 -55 -100 -2 -4 7 -4 2 4 50 92 107 -57 30 -77 -58 -77 -92 -53 -82 -16 -54 52 -44 85 -8 102 -2 35 rcurveline
          78 58 83 63 68 hhcurveto
          5 8 -1 5 1 hvcurveto
          7 2 -10 2 -5 hhcurveto
          -75 -78 -51 -63 -55 hvcurveto
          3 31 6 28 8 25 rrcurveto
          51 55 75 25 79 hhcurveto
          37 35 -10 -18 29 hvcurveto
          -8 -42 -34 -37 -43 -1 rrcurveto
          -5 0 -8 5 hhcurveto
          46 1 36 38 10 44 rrcurveto
          39 -27 24 -44 -57 vvcurveto
          110 -580 rmoveto
          8 11 -9 1 -7 -10 -24 -34 -47 1 -27 8 -163 42 -79 147 -129 44 -131 45 -70 -154 140 -47 20 -7 5 12 -19 5 -109 29 42 157 109 -53 110 -53 101 -152 127 -34 rrcurveto
          44 -12 72 2 36 52 rrcurveto
          -178 730 rmoveto
          16 -31 -36 8 -36 hhcurveto
          -66 -68 -16 -33 -58 hvcurveto
          77 147 176 14 36 -101 rrcurveto
          4 -11 2 -12 -12 vvcurveto
          -345 -210 rmoveto
          -4 1 -4 -4 vvcurveto
          9 -107 41 -84 53 -53 rrcurveto
          -6 -6 -1 -6 hhcurveto
          -112 -6 -46 79 31 100 9 28 14 29 18 27 rrcurveto
          161 -283 rmoveto
          77 18 73 46 53 61 3 -59 -26 -61 -65 -22 -37 -13 -40 7 -38 23 rrcurveto
          -149 406 rmoveto
          -7 -25 -4 -27 -1 -30 -19 -25 -16 -27 -10 -26 rrcurveto
          -1 5 0 5 4 vvcurveto
          30 9 35 13 26 vhcurveto
          10 21 12 18 14 16 rrcurveto
          endchar
        </CharString>
        <CharString name="R">
          -105 callsubr
          endchar
        </CharString>
        <CharString name="RS">
          95 endchar
        </CharString>
        <CharString name="Racute">
          -105 callsubr
          380 122 -95 callsubr
        </CharString>
        <CharString name="Rcaron">
          -105 callsubr
          324 79 -96 callgsubr
        </CharString>
        <CharString name="Rcommaaccent">
          -105 callsubr
          22 -574 -66 callgsubr
          endchar
        </CharString>
        <CharString name="S">
          282 393 13 hstem
          366 -84 rmoveto
          1 6 -8 0 -1 -5 -12 -84 -176 -56 -19 163 32 -2 40 2 46 10 168 33 107 109 -58 111 -4 8 -6 8 -5 8 47 94 -53 87 -119 -71 -25 20 rcurveline
          -65 57 7 53 40 35 48 -10 39 -27 19 -42 2 -4 7 3 -2 5 -18 42 -40 28 -49 11 13 9 14 9 16 6 69 26 78 -14 19 -49 -10 -9 -31 -32 -6 -22 rrcurveto
          -15 -52 67 14 19 38 13 25 -4 26 -11 19 17 18 19 16 14 10 10 6 -8 8 -10 -6 -9 -6 -20 -16 -20 -21 -34 47 -83 13 -72 -23 -26 -9 -23 -12 -19 -14 rrcurveto
          -72 5 -82 -27 -58 -64 -90 -99 17 -123 73 -68 -11 -10 -8 -10 -6 -11 -37 -71 23 -77 107 -16 12 -189 208 67 14 96 rrcurveto
          -149 293 rmoveto
          -53 -11 -56 -23 -37 -32 -66 67 -9 119 85 94 53 59 71 26 63 -2 -50 -42 -13 -62 65 -60 11 -10 14 -10 14 -11 -20 -17 rcurveline
          -26 -22 -24 -30 -22 -33 rrcurveto
          223 -26 rmoveto
          2 -4 1 -4 1 -3 28 -87 -73 -85 -131 -32 -45 -12 -41 -1 -33 6 rrcurveto
          17 1 20 2 22 vhcurveto
          3 21 5 23 8 23 rrcurveto
          -1 6 7 -1 6 hhcurveto
          67 -3 88 14 69 59 11 9 10 9 8 10 rrcurveto
          -270 -89 rmoveto
          12 35 17 36 20 33 30 5 30 1 25 -4 11 -1 -3 14 -11 2 -20 3 -26 -2 -27 -4 20 29 22 26 24 21 7 7 8 6 7 6 43 -30 49 -34 26 -46 rrcurveto
          -10 -12 -12 -12 -13 -11 -68 -57 -77 -16 -66 3 rrcurveto
          -57 -127 rmoveto
          -68 21 -30 56 35 67 3 5 3 5 4 5 22 -17 26 -12 29 -6 -10 -29 -7 -27 -4 -26 rrcurveto
          -2 -15 -1 -14 -13 vvcurveto
          330 274 rmoveto
          -31 37 -42 30 -35 26 104 61 43 -71 -39 -83 rrcurveto
          -303 -143 rmoveto
          -28 6 -26 12 -20 17 28 33 48 22 48 10 -20 -32 -17 -34 -13 -34 rrcurveto
          360 328 rmoveto
          -9 -15 -25 -10 5 23 5 22 14 20 16 20 7 -18 0 -23 -13 -19 rrcurveto
          endchar
        </CharString>
        <CharString name="T">
          226 374 19 hstem
          324 538 rmoveto
          -61 81 -82 -15 -37 -28 -14 -11 -11 -12 -9 -15 -164 -29 30 -178 147 -13 20 -24 28 -16 34 -2 rrcurveto
          6 0 6 -5 hhcurveto
          -29 2 -24 13 -18 20 rrcurveto
          4 hlineto
          108 -1 64 61 16 42 4 11 -9 6 -4 -11 rrcurveto
          -34 -13 -68 -57 -98 hhcurveto
          -6 -5 0 1 -6 hvcurveto
          -29 46 -7 69 18 54 25 10 32 4 39 -4 36 -3 47 -11 52 -12 67 -157 -100 -266 -144 -122 rrcurveto
          -4 -15 -17 -3 -18 hhcurveto
          -165 99 228 35 227 hvcurveto
          9 1 1 13 -9 -1 rrcurveto
          -29 -273 -70 -260 181 hhcurveto
          9 8 0 1 8 hvcurveto
          -47 -33 -50 -16 -50 7 rrcurveto
          -5 -2 -7 -1 6 hvcurveto
          56 -8 56 21 52 39 127 19 78 109 50 114 44 101 32 111 35 71 97 -14 93 2 58 51 9 7 0 16 -9 -7 -63 -54 -87 -3 -91 15 18 32 18 21 22 4 rrcurveto
          11 1 4 14 -11 -2 -32 -5 -28 -25 -26 -36 -52 10 -53 16 -50 13 -6 11 -6 10 -7 10 rrcurveto
          29 -54 rmoveto
          43 -11 47 -10 46 -8 -46 -71 -39 -107 -43 -96 -37 -83 -56 -108 -88 -39 137 127 93 250 -57 156 rrcurveto
          -30 29 rmoveto
          -44 12 -40 10 -35 4 -32 4 -27 0 -24 -3 7 11 9 10 11 8 35 27 71 10 57 -76 rrcurveto
          -202 -193 rmoveto
          -83 21 -17 101 83 40 -18 -53 8 -63 27 -46 rrcurveto
          endchar
        </CharString>
        <CharString name="Thorn">
          120 501 15 hstem
          394 644 rmoveto
          -8 8 -17 9 -17 2 -7 2 -58 -1 -4 -1 -31 -13 -36 -67 -17 -41 -25 -58 -34 -80 -17 -62 -9 -25 -9 -27 -9 -29 -4 11 -2 11 -1 11 -22 -21 -4 -32 19 -20 rrcurveto
          -29 -90 -29 -93 -12 -58 -13 -63 26 -69 45 -6 38 -7 -6 12 -17 4 -50 8 19 78 4 31 4 37 18 72 24 82 13 44 rcurveline
          57 -12 86 39 46 70 45 71 14 96 -9 30 -8 28 -38 -2 -18 -14 -15 -12 -78 -85 -27 -45 25 78 67 203 70 1 24 1 17 -6 13 -7 3 -2 14 -4 -11 13 rrcurveto
          -101 -166 rmoveto
          22 11 -1 -82 -37 -76 -22 -45 -75 -101 -57 37 6 20 6 21 7 20 40 82 63 88 48 25 rrcurveto
          endchar
        </CharString>
        <CharString name="U">
          -104 callsubr
          endchar
        </CharString>
        <CharString name="US">
          95 endchar
        </CharString>
        <CharString name="Uacute">
          -104 callsubr
          255 234 -95 callsubr
        </CharString>
        <CharString name="Ucircumflex">
          -104 callsubr
          242 192 -96 callgsubr
        </CharString>
        <CharString name="Udieresis">
          -6 12 387 13 138 44 hstem
          488 -5 callgsubr
          vstem
          -106 callgsubr
          154 194 -40 callsubr
        </CharString>
        <CharString name="Ugrave">
          -104 callsubr
          77 228 -90 callgsubr
        </CharString>
        <CharString name="V">
          305 425 13 hstem
          -10 23 vstem
          247 545 rmoveto
          -55 -5 -55 -27 -45 -40 -18 88 69 58 77 -52 10 -7 9 -7 8 -8 rrcurveto
          91 -209 rmoveto
          -103 -12 -109 38 -30 95 rrcurveto
          45 41 54 30 47 hhcurveto
          8 7 0 -1 7 hvcurveto
          42 -49 25 -70 11 -76 rrcurveto
          -64 192 rmoveto
          72 -19 32 -74 8 -89 -11 -4 -12 -2 -11 -2 -11 73 -25 67 -42 50 rrcurveto
          262 -10 rmoveto
          -4 3 -5 -6 4 -3 8 -8 1 -23 -9 -21 -20 -47 -41 -34 -49 -21 -7 104 -43 85 -108 -2 rrcurveto
          -5 hlineto
          -10 11 -11 9 -13 8 -84 58 -86 -71 25 -99 -21 -21 -18 -25 -14 -26 rrcurveto
          -76 -40 2 -131 105 hhcurveto
          53 56 50 27 11 hvcurveto
          3 8 -1 7 -6 -9 rrcurveto
          -14 -9 -41 -48 -52 hhcurveto
          -92 3 104 66 25 hvcurveto
          10 25 14 24 18 22 33 -87 114 -40 107 11 19 -150 -36 -174 -70 -84 -4 -4 6 -5 4 4 76 91 39 173 -20 151 11 2 12 2 11 3 9 -123 -32 -150 -31 -74 rrcurveto
          -3 -2 2 -3 4 hhcurveto
          24 63 98 20 14 hvcurveto
          70 109 169 293 120 55 rrcurveto
          5 12 14 3 13 hhcurveto
          28 18 -15 -28 -7 9 -6 1 17 hvcurveto
          35 1 -21 31 -34 hhcurveto
          -141 -193 -353 -101 -61 hvcurveto
          -17 -28 -52 -102 -27 -13 40 80 40 149 -5 122 53 21 45 36 22 52 9 21 -2 28 -13 18 callgsubr
        </CharString>
        <CharString name="W">
          578 515 16 hstem
          212 31 308 37 vstem
          543 364 rmoveto
          93 48 28 -46 vvcurveto
          -38 -29 -62 -17 -34 vhcurveto
          -1 20 -1 19 20 vvcurveto
          -270 -188 rmoveto
          -23 -98 -40 -90 -32 -45 -84 -118 -117 49 100 141 47 65 71 57 78 39 rrcurveto
          232 54 rmoveto
          -1 vlineto
          -46 -80 -102 -117 -72 -71 -4 -4 -7 -4 -7 -2 29 58 46 102 27 101 20 6 20 4 20 2 27 4 26 1 23 1 rrcurveto
          204 -46 rmoveto
          -58 -75 -63 -63 -33 -46 14 37 -1 68 -6 42 -4 26 -3 30 -3 26 70 -5 51 -17 36 -23 rrcurveto
          -559 286 rmoveto
          -5 -2 3 -8 5 3 40 18 83 7 13 -125 6 -57 -7 -61 -13 -60 -86 -43 -81 -65 -48 -67 -106 -149 140 -50 90 127 34 47 48 97 24 102 13 6 15 6 14 5 rrcurveto
          -19 -93 -35 -95 -28 -68 -9 -21 16 -3 28 23 75 63 108 143 39 61 rrcurveto
          7 -61 24 -82 -61 vvcurveto
          -17 3 -29 9 15 vhcurveto
          26 40 74 74 72 85 39 -31 14 -36 -5 -27 -10 -47 -71 -27 -26 39 -3 5 -7 -5 3 -4 33 -48 79 35 10 51 6 31 -14 40 -40 33 130 156 116 187 -210 69 rrcurveto
          -25 8 4 -15 12 -4 58 -18 20 -31 1 -51 2 -107 -57 -99 -64 -85 -37 25 -55 20 -74 4 rrcurveto
          -2 20 -2 16 7 vvcurveto
          21 36 38 70 43 vvcurveto
          17 -8 18 -19 -6 -5 -2 -3 -5 vhcurveto
          -46 -27 -16 -121 3 -74 rrcurveto
          -21 -22 -2 -3 -23 hvcurveto
          -22 -2 -22 -5 -22 -7 rrcurveto
          149 37 -8 144 -166 hhcurveto
          -89 -96 -60 -82 -37 hvcurveto
          -13 -27 -7 -33 -30 vvcurveto
          -52 25 -44 57 51 68 50 43 27 vhcurveto
          1 2 11 callsubr
          vvcurveto
          2 callsubr
          -1 -2 -1 10 callsubr
          vhcurveto
          -39 -27 -51 -41 -50 hhcurveto
          -52 -21 38 47 102 96 107 107 60 35 -36 -48 17 hvcurveto
          20 -58 -3 -73 -14 -75 -14 -5 -14 -6 -14 -7 rrcurveto
          1 vlineto
          12 58 5 56 -6 56 -13 132 -98 -6 -42 -20 rrcurveto
          endchar
        </CharString>
        <CharString name="X">
          339 387 13 hstem
          440 494 rmoveto
          -3 5 -7 -4 2 -5 12 -21 -23 -61 -59 -38 -3 92 -12 91 -121 -18 -7 9 -8 8 -8 7 -80 66 -84 -54 31 -116 -24 -23 -23 -28 -18 -33 rrcurveto
          -73 -42 1 -126 111 hhcurveto
          57 59 48 27 12 hvcurveto
          3 7 -1 6 -6 -8 rrcurveto
          -14 -10 -43 -46 -55 hhcurveto
          -98 3 101 63 27 hvcurveto
          13 32 19 28 20 22 17 -45 39 -42 63 -14 27 -5 27 -2 27 2 rrcurveto
          2 -35 -1 -35 -32 vvcurveto
          -126 -106 -120 -117 -87 -139 -8 -11 -3 -10 1 -7 rrcurveto
          -7 3 -3 5 1 vhcurveto
          12 1 13 13 14 26 69 126 114 116 113 98 rrcurveto
          -18 0 -16 1 -16 vhcurveto
          -75 4 -13 -173 111 hhcurveto
          22 24 10 19 22 hvcurveto
          4 4 -6 6 -4 -4 rrcurveto
          -19 -20 -22 -6 -20 hhcurveto
          -93 8 175 63 -4 hvcurveto
          -2 61 13 10 12 11 12 10 rlinecurve
          2 -65 -17 -245 95 6 24 2 30 17 36 31 28 24 10 9 38 44 10 13 -10 6 -8 -9 -40 -50 -10 -9 -27 -17 -14 -9 -24 -8 -12 -1 -77 -5 8 197 -1 56 rrcurveto
          48 vlineto
          40 33 67 51 94 71 64 49 41 33 17 19 17 19 9 13 -1 7 rrcurveto
          3 -2 1 -4 vhcurveto
          -13 -1 -19 -13 -23 -27 -25 -28 -39 -36 -55 -43 -169 -135 rcurveline
          -1 18 -1 18 18 vvcurveto
          70 37 24 65 -17 34 rrcurveto
          -165 -154 rmoveto
          -26 -3 -27 3 -26 5 -63 14 -37 42 -15 44 43 44 52 24 41 4 rrcurveto
          1 4 4 0 4 hhcurveto
          33 -48 10 -64 3 -66 rrcurveto
          -58 193 rmoveto
          -2 -2 -1 -2 hhcurveto
          -44 -9 -47 -24 -43 -38 -19 88 71 61 68 -57 8 -6 6 -7 6 -7 rrcurveto
          21 -15 rmoveto
          71 -7 11 -84 3 -77 -13 -4 -13 -3 -13 -2 -5 65 -12 64 -29 48 rrcurveto
          85 -176 rmoveto
          -27 0 -25 1 -20 vhcurveto
          -36 -30 -1 30 0 32 -2 31 rlinecurve
          12 2 13 3 13 4 rrcurveto
          endchar
        </CharString>
        <CharString name="Y">
          26 callgsubr
          hstem
          -96 callsubr
          endchar
        </CharString>
        <CharString name="Yacute">
          26 callgsubr
          hstem
          564 246 -93 callsubr
          47 -27 63 -11 60 5 -61 -46 rcurveline
          -75 callsubr
          7 3 rcurveline
          1 -27 -1 -28 -3 -31 -36 callgsubr
          3 33 1 30 -1 29 11 5 9 4 7 4 6 -108 -25 -123 -28 -68 -57 callsubr
          -318 -382 -70 callgsubr
          112 474 -50 callgsubr
          138 -366 -62 callsubr
          -272 -88 -46 callgsubr
          23 661 -29 callgsubr
          60 -46 rmoveto
          -23 callgsubr
          7 -20 4 -21 3 -22 -7 -1 -8 -3 -8 -6 -3 -2 rcurveline
          -6 54 -18 48 -37 54 rrcurveto
          endchar
        </CharString>
        <CharString name="Ydieresis">
          26 callgsubr
          120 44 hstemhm
          466 -5 callgsubr
          hintmask 11000000
          -96 callsubr
          hintmask 00111000
          32 302 -90 callsubr
        </CharString>
        <CharString name="Z">
          308 -5 16 hstem
          454 433 rmoveto
          15 8 -6 4 -10 -5 -21 -10 -42 -39 -44 -45 rrcurveto
          3 -15 -15 2 -16 hhcurveto
          -350 29 -397 179 191 hvcurveto
          27 26 24 27 23 29 rrcurveto
          2 14 12 1 6 hhcurveto
          -44 -51 -52 -71 -38 -48 -25 5 -25 2 -26 -2 -136 -10 90 -135 131 110 44 -15 rcurveline
          -20 -63 38 -66 107 17 59 9 46 21 34 27 76 13 93 75 -42 85 -2 5 -8 -6 3 -5 30 -61 -56 -62 -59 -9 84 108 -44 167 -123 66 44 49 44 46 52 39 rrcurveto
          15 80 -1 23 2 hvcurveto
          11 1 -19 1 -5 hhcurveto
          -24 -23 -9 -12 -22 hvcurveto
          11 -94 -122 26 -97 hhcurveto
          -14 -14 -1 -3 -14 hvcurveto
          -36 -7 -48 -34 -4 -48 -2 -18 5 -16 8 -14 2 -1 rcurveline
          2 3 3 3 3 -11 15 2 19 hvcurveto
          52 4 79 14 31 hhcurveto
          90 120 -12 -5 90 hvcurveto
          -53 -33 -51 -43 -48 -46 -29 9 rcurveline
          43 42 40 38 16 8 rrcurveto
          -246 -402 rmoveto
          -11 4 -12 3 -11 3 43 53 54 72 49 55 rrcurveto
          1 20 20 0 20 hhcurveto
          19 19 0 -3 18 hvcurveto
          3 hlineto
          27 callgsubr
          1 hvcurveto
          2 -4 1 -1 vhcurveto
          -33 8 -37 3 -35 1 25 28 23 27 24 26 120 -63 35 -169 -87 -104 -98 -9 -82 32 -79 25 12 18 18 16 24 13 31 16 80 9 12 -26 2 -5 7 3 -2 5 rrcurveto
          -15 35 -90 -15 -29 -15 -25 -13 -19 -19 -13 -20 rrcurveto
          131 309 rmoveto
          -32 -33 -29 -35 -30 -35 -47 -1 -62 -8 -3 -37 -1 -7 2 -7 3 -5 rrcurveto
          -2 2 9 -9 3 hhcurveto
          1 1 rlineto
          2 -2 0 2 vvcurveto
          17 callgsubr
          2 1 3 1 20 38 11 34 6 -22 -24 -22 -24 -23 -22 rrcurveto
          -173 -184 13 375 313 hhcurveto
          13 13 -1 -2 13 hvcurveto
          -137 -339 rmoveto
          77 -28 81 -32 77 5 -30 -23 -39 -16 -49 -8 -96 -15 -39 59 18 58 rrcurveto
          -78 24 rmoveto
          -80 -88 -103 104 116 -5 22 -1 22 -4 23 -6 rrcurveto
          225 313 rmoveto
          10 -2 10 -3 9 -3 -30 -30 -28 -31 -28 -32 rrcurveto
          -6 -11 1 -12 hhcurveto
          28 34 27 34 31 32 rrcurveto
          endchar
        </CharString>
        <CharString name="a">
          -10 callsubr
          hstem
          325 -97 callgsubr
          endchar
        </CharString>
        <CharString name="aacute">
          -82 callsubr
          -33 294 -95 callsubr
        </CharString>
        <CharString name="acircumflex">
          -82 callsubr
          -40 211 -96 callgsubr
        </CharString>
        <CharString name="acute">
          -60 355 -20 hstem
          165 335 -95 callsubr
        </CharString>
        <CharString name="adieresis">
          -10 callsubr
          85 44 hstemhm
          141 -5 callgsubr
          hintmask 10000000
          -95 callgsubr
          hintmask 01110000
          -53 251 -90 callsubr
        </CharString>
        <CharString name="ae">
          89 -9 17 180 17 hstem
          -7 34 80 37 90 18 vstem
          344 77 rmoveto
          3 6 callsubr
          -5 0 -8 1 callgsubr
          -28 -9 -22 -18 callgsubr
          11 20 callgsubr
          -22 -15 -16 -7 -14 -16 vhcurveto
          3 -6 -6 1 -8 hhcurveto
          -13 -14 -3 -8 -16 hvcurveto
          -36 -16 -33 -31 -29 -44 rrcurveto
          -12 -19 -6 -19 -17 vvcurveto
          -21 8 -11 16 12 15 7 15 17 vhcurveto
          15 12 16 16 15 20 rrcurveto
          -10 vlineto
          -46 20 -22 42 28 33 10 20 38 vhcurveto
          35 18 25 19 16 19 rrcurveto
          -211 88 rmoveto
          -8 -16 -5 -20 -4 -23 -8 -20 -15 -20 -22 -19 rrcurveto
          -10 -13 -11 -6 -8 hhcurveto
          -8 -4 6 12 11 4 13 7 14 hvcurveto
          52 27 31 26 37 hhcurveto
          88 -26 rmoveto
          -13 -22 -23 -12 callgsubr
          9 hhcurveto
          5 3 -4 -8 -10 -4 -12 -9 -15 hvcurveto
          endchar
        </CharString>
        <CharString name="agrave">
          -82 callsubr
          -193 284 -90 callgsubr
        </CharString>
        <CharString name="ampersand">
          238 -222 13 197 16 274 11 217 24 13 8 hstem
          181 8 53 16 vstem
          149 -178 rmoveto
          -4 -4 6 -5 4 4 18 20 28 62 21 89 13 1 14 3 13 2 -15 -69 -35 -142 -83 8 -27 3 -24 16 -8 32 rrcurveto
          2 -2 -14 callgsubr
          vhcurveto
          -1 -2 -2 -2 1 hvcurveto
          5 -40 40 -21 30 -3 109 -10 37 142 14 96 70 19 60 39 42 61 19 27 26 45 -5 41 -5 41 -36 16 -31 3 -45 5 -45 -16 -33 -21 rrcurveto
          10 1 10 10 vvcurveto
          57 22 47 42 13 46 1 5 -7 2 -2 -5 -13 -45 -43 -39 -52 -20 2 34 2 32 8 34 29 18 56 32 -6 48 -2 14 -8 13 -14 1 -16 2 -13 -14 -9 -11 rrcurveto
          -20 -24 -9 -47 -6 -34 -56 -31 rcurveline
          -3 37 -7 34 -12 32 -60 155 -213 -100 126 -178 14 -20 16 -15 17 -11 -32 -21 -31 -24 -29 -32 -24 -26 -41 -60 6 -45 10 -79 104 -25 52 -5 20 -1 21 -1 21 2 rrcurveto
          -20 -88 -25 -59 -17 -19 rrcurveto
          26 182 rmoveto
          -48 5 -86 23 -10 71 -6 49 44 63 33 34 16 17 callsubr
          18 14 28 -13 31 -5 31 2 rrcurveto
          -19 0 -18 -1 -18 vhcurveto
          -26 -22 -20 -24 -10 -26 -3 -9 -5 -28 10 -17 3 -4 9 0 -4 4 -11 13 5 29 3 8 8 21 17 21 23 17 -2 -31 -2 -29 -3 -25 -5 -44 -6 -40 -8 -36 rrcurveto
          -13 -13 0 2 -13 hvcurveto
          310 211 rmoveto
          4 -35 -23 -39 -16 -23 -37 -53 -52 -30 -62 -16 11 75 -1 78 5 77 29 15 36 8 35 -3 28 -2 38 -13 5 -39 rrcurveto
          -339 98 rmoveto
          -18 10 -16 15 -14 19 -114 157 174 108 59 -153 11 -30 8 -37 3 -39 -32 -17 -31 -15 -30 -18 rrcurveto
          117 -305 rmoveto
          -13 -2 -13 -2 -12 -1 8 36 6 39 5 44 3 34 4 31 2 30 12 9 13 7 14 7 -8 -77 -6 -79 -15 -76 rrcurveto
          47 383 rmoveto
          -5 -30 -4 -32 -4 -32 -13 -3 -13 -3 -13 -1 1 25 -1 25 -1 23 rrcurveto
          -52 -29 rmoveto
          11 7 12 7 12 6 rrcurveto
          1 -21 1 -22 -22 vvcurveto
          -27 -1 -27 5 -25 11 13 10 14 10 15 10 rrcurveto
          182 173 rmoveto
          5 -1 2 -5 1 -5 3 -23 -49 -48 -16 -10 6 24 11 37 16 17 rrcurveto
          4 4 9 10 8 hhcurveto
          -93 -247 rmoveto
          -14 -8 -13 -9 -12 -9 3 46 rcurveline
          13 2 13 3 12 4 rrcurveto
          endchar
        </CharString>
        <CharString name="apple">
          343 167 25 hstem
          25 205 8 19 vstem
          350 -20 rmoveto
          -6 11 15 -11 32 hhcurveto
          68 57 95 75 25 hvcurveto
          -50 20 -35 48 -3 56 -3 73 40 43 34 20 -47 76 -82 -5 -17 -7 -13 -6 -31 -10 -24 -6 -18 -5 -16 -2 -20 6 -25 7 -30 11 -13 5 -19 7 -83 0 -51 -92 rrcurveto
          -56 -102 36 -159 70 -84 rrcurveto
          -37 31 25 -27 33 hhcurveto
          32 16 10 7 11 hvcurveto
          24 16 51 0 25 -16 rrcurveto
          -20 574 rmoveto
          -27 -40 -5 -47 5 -17 99 -5 54 116 -34 48 -15 5 -51 -21 -26 -39 rrcurveto
          -31 -240 rmoveto
          27 callsubr
          hvcurveto
          1 0 1 1 hvcurveto
          -3 5 5 -7 hlineto
          0 0 -5 callsubr
          vhcurveto
          -31 callsubr
          -1 hhcurveto
          -5 callsubr
          0 0 vvcurveto
          endchar
        </CharString>
        <CharString name="approxequal">
          11 97 20 4 20 40 -20 44 -20 hstem
          211 201 rmoveto
          -59 callsubr
          -64 vmoveto
          -59 callsubr
          endchar
        </CharString>
        <CharString name="aring">
          -10 callsubr
          61 11 63 12 hstemhm
          188 11 62 12 hintmask 10000000
          -95 callgsubr
          hintmask 01111000
          -51 248 -67 callsubr
        </CharString>
        <CharString name="asciicircum">
          85 190 13 hstem
          267 249 -96 callgsubr
        </CharString>
        <CharString name="asciitilde">
          -18 271 -20 hstem
          233 21 rmoveto
          -7 -9 -20 -21 -22 -2 -25 -3 6 61 20 54 18 50 32 35 -2 12 -1 9 -26 5 -7 -10 -14 -19 -19 -11 -29 -32 -13 -15 -60 -55 -9 -8 6 10 32 67 6 30 rrcurveto
          4 22 -43 -27 -13 vvcurveto
          -36 -43 -80 -4 -18 vhcurveto
          -4 -17 34 10 7 26 5 20 52 37 22 22 8 8 56 61 -6 -20 rrcurveto
          -4 -45 -88 -4 -41 vhcurveto
          -5 -47 23 -4 13 -2 25 -4 24 16 10 10 11 11 -1 15 -5 -5 rrcurveto
          26 252 rmoveto
          20 -27 -34 -13 vhcurveto
          -1 hlineto
          -34 -7 -17 53 -40 -10 rrcurveto
          -9 -24 -57 -37 32 hhcurveto
          5 14 4 17 23 hhcurveto
          35 17 -45 11 40 hvcurveto
          23 6 21 17 4 13 rrcurveto
          endchar
        </CharString>
        <CharString name="asterisk">
          49 233 27 hstem
          261 259 rmoveto
          -90 hlineto
          56 62 rlineto
          7 7 3 7 6 vvcurveto
          6 -2 2 -4 -2 -3 -1 -3 -3 vhcurveto
          -78 -78 -14 29 -13 26 -12 21 rlinecurve
          10 -5 -6 4 -7 hhcurveto
          -4 -3 -2 -5 -2 1 -3 1 -2 hvcurveto
          12 -26 13 -28 13 -30 rrcurveto
          -96 hlineto
          -10 -4 -4 -8 -4 1 -4 -2 callgsubr
          4 hhcurveto
          88 4 -67 -68 rlineto
          -4 -4 -2 -3 -4 vvcurveto
          -8 6 -5 11 4 2 1 2 3 vhcurveto
          72 79 20 -45 rlineto
          -25 11 8 -12 5 hhcurveto
          4 3 2 4 4 hvcurveto
          3 5 2 4 5 2 callsubr
          1 vvcurveto
          -10 18 -12 24 -13 28 88 3 rcurveline
          15 1 7 4 10 vvcurveto
          4 -3 2 -7 vhcurveto
          endchar
        </CharString>
        <CharString name="at">
          412 33 13 109 18 215 23 26 13 39 19 hstem
          13 28 110 31 188 13 228 11 vstem
          578 257 rmoveto
          15 30 12 31 -3 34 97 158 -284 31 -155 -63 -60 -25 -47 -26 -35 -29 -50 -42 -33 -52 -16 -63 rrcurveto
          -4 -18 -2 -17 -17 vvcurveto
          -46 16 -37 32 -29 vhcurveto
          -29 33 42 -15 52 hhcurveto
          52 -1 57 13 63 27 61 28 46 31 44 40 28 26 22 29 17 31 rrcurveto
          22 109 rmoveto
          -4 23 -11 19 -18 14 -26 21 -39 9 -50 -2 -52 -2 10 -15 43 3 rrcurveto
          82 7 41 -26 -58 vvcurveto
          -11 -1 -11 -3 -11 vhcurveto
          -48 -60 -71 -51 -61 -33 -39 -20 -14 14 -7 41 -4 20 2 29 1 27 2 33 -17 -9 -16 -23 -25 -35 -27 10 callgsubr
          -47 2 callgsubr
          20 49 17 43 44 60 40 34 rrcurveto
          50 43 43 -22 -23 -39 callsubr
          13 -42 23 -46 -19 -39 -37 -76 -70 -47 -135 68 -10 45 -6 61 115 1 10 callsubr
          -3 -87 41 -14 18 -6 28 8 25 13 rrcurveto
          60 30 61 50 48 56 -5 -13 -6 -13 -8 -14 -18 -33 -24 -29 -29 -26 -43 -39 -44 -30 -51 -25 rrcurveto
          -27 -55 -52 -13 -48 hhcurveto
          -49 -37 11 23 -25 hvcurveto
          -22 20 -11 28 37 vvcurveto
          37 11 39 23 43 vhcurveto
          22 42 29 37 37 33 35 30 46 26 56 20 109 40 261 -26 -69 -120 rrcurveto
          endchar
        </CharString>
        <CharString name="atilde">
          -10 callsubr
          96 25 hstemhm
          hintmask 10000000
          -95 callgsubr
          hintmask 01000000
          -35 263 -91 callgsubr
        </CharString>
        <CharString name="b">
          21 501 15 hstem
          334 486 rmoveto
          -8 13 -17 12 -17 4 -8 3 -42 -13 -4 -2 -32 -20 -39 -48 -27 -52 rrcurveto
          -59 -113 -29 -163 -48 vvcurveto
          7 -2 26 -39 1 25 2 68 50 78 61 31 18 9 -1 -67 -30 -63 -22 -46 -42 -44 -35 -5 -38 -4 -13 36 -4 33 -23 -22 2 -36 33 -13 46 -18 80 32 40 62 rrcurveto
          37 58 11 79 -7 24 -7 23 -31 -1 -15 -12 -12 -10 -72 -74 -22 -37 5 63 105 306 71 1 25 1 17 -8 13 -11 3 -3 15 -5 -12 18 rrcurveto
          endchar
        </CharString>
        <CharString name="backslash">
          313 497 26 vstem
          523 -84 rmoveto
          183 -244 346 -115 145 vhcurveto
          -28 36 -29 41 -35 29 rrcurveto
          12 -14 -15 7 -19 hhcurveto
          -5 -8 0 -6 -1 hvcurveto
          168 -173 319 -391 -241 vvcurveto
          -7 2 -7 -2 -6 vhcurveto
          18 8 16 16 hvcurveto
          endchar
        </CharString>
        <CharString name="bar">
          12 135 45 vstem
          59 -117 rmoveto
          10 13 13 7 5 hvcurveto
          37 54 56 535 94 10 1 11 10 vvcurveto
          31 -1 67 -45 -8 -11 0 -11 -22 10 -22 3 -22 vhcurveto
          6 -45 0 -45 -45 vvcurveto
          -145 -12 -147 -25 -143 vhcurveto
          -7 -45 -13 -44 -10 -44 rrcurveto
          -3 -16 -7 -19 -16 vvcurveto
          -1 1 0 0 vhcurveto
          endchar
        </CharString>
        <CharString name="braceleft">
          131 98 33 7 31 vstem
          423 724 rmoveto
          2 -2 -2 0 -2 hhcurveto
          -291 134 -277 -103 -117 hvcurveto
          -29 -25 -51 -8 -37 -4 -5 -8 rcurveline
          65 -1 52 -22 -73 -83 -40 -78 -83 vvcurveto
          -85 65 -10 69 3 7 0 3 2 vhcurveto
          -10 15 -103 -34 106 83 38 77 83 vvcurveto
          61 -48 40 -59 5 vhcurveto
          4 hlineto
          80 -1 59 74 22 70 rrcurveto
          124 37 -28 149 179 hhcurveto
          endchar
        </CharString>
        <CharString name="braceright">
          247 331 31 26 36 vstem
          471 296 rmoveto
          -51 5 -59 12 63 94 63 83 95 vvcurveto
          73 -78 1 -55 vhcurveto
          0 -6 10 callsubr
          vhcurveto
          2 -2 rlineto
          50 -11 52 15 -72 -91 -58 -81 -92 vvcurveto
          -61 58 -25 53 -4 vhcurveto
          -49 -5 -57 -30 -35 -33 -84 -80 7 -189 -77 -56 -44 -33 -59 14 -18 -11 rrcurveto
          -2 27 callgsubr
          hhcurveto
          348 -221 414 4 306 hvcurveto
          endchar
        </CharString>
        <CharString name="bracketleft">
          347 -17 22 682 31 hstem
          48 39 vstem
          573 697 rmoveto
          20 -85 1 -16 -24 -26 -4 -15 -20 vhcurveto
          -129 -93 -225 -429 -158 vvcurveto
          -37 83 1 25 22 90 -2 16 12 -21 0 -8 vhcurveto
          -25 -25 -5 -25 hhcurveto
          -38 -39 11 45 133 196 324 87 103 hvcurveto
          15 19 26 29 20 12 rrcurveto
          7 12 29 0 14 24 24 -4 24 hhcurveto
          5 5 0 1 4 hvcurveto
          1 4 0 5 4 vvcurveto
          endchar
        </CharString>
        <CharString name="bracketright">
          318 -17 25 681 27 hstem
          498 39 vstem
          538 679 rmoveto
          45 -41 -8 -32 -39 -40 -2 -30 -30 vhcurveto
          2 33 33 3 33 hhcurveto
          14 14 -1 -8 12 hvcurveto
          2 -12 2 -12 -13 vvcurveto
          -155 -141 -307 -99 -118 vhcurveto
          -46 -39 -47 -9 -57 hhcurveto
          -42 -8 7 -30 -34 hvcurveto
          -3 20 21 1 20 hhcurveto
          55 79 1 43 41 hvcurveto
          135 143 135 312 197 vvcurveto
          endchar
        </CharString>
        <CharString name="breve">
          -16 290 29 hstem
          219 343 rmoveto
          -4 4 rlineto
          -11 -17 -5 -9 -22 hvcurveto
          -9 -22 -18 -5 -14 hhcurveto
          -26 -16 8 16 -5 hvcurveto
          11 -3 -3 5 -3 hhcurveto
          -5 -4 -4 -7 -3 hvcurveto
          -3 -8 -1 -6 -5 vvcurveto
          -13 7 -10 13 -7 vhcurveto
          -6 12 13 -3 13 hhcurveto
          14 23 6 12 32 hvcurveto
          36 14 17 12 9 vvcurveto
          endchar
        </CharString>
        <CharString name="brokenbar">
          85 -133 -21 653 -20 hstem
          285 499 rmoveto
          -34 hlineto
          -60 -281 32 -3 rlineto
          -16 -71 rmoveto
          -31 3 -64 -301 rlineto
          35 hlineto
          endchar
        </CharString>
        <CharString name="bullet">
          213 377 13 hstem
          225 117 rmoveto
          37 32 13 27 27 hvcurveto
          27 27 13 32 37 vvcurveto
          38 -13 32 -27 27 vhcurveto
          26 -27 -32 14 -37 hhcurveto
          -38 -32 -14 -26 -27 hvcurveto
          -26 -27 -14 -32 -38 vvcurveto
          -37 14 -32 26 -27 vhcurveto
          -27 27 32 -13 38 hhcurveto
          endchar
        </CharString>
        <CharString name="c">
          -39 197 14 hstem
          202 66 rmoveto
          -46 callsubr
          -15 -60 8 -75 82 27 42 14 46 38 20 26 rrcurveto
          endchar
        </CharString>
        <CharString name="caron">
          -55 callsubr
        </CharString>
        <CharString name="ccedilla">
          -39 -142 11 90 12 226 14 hstem
          117 25 vstem
          142 -80 -21 callsubr
          5 5 11 8 vhcurveto
          11 -2 13 2 17 5 42 14 46 38 20 26 -46 callsubr
          -11 -44 1 -52 34 -14 -2 -1 -2 -3 -3 -2 -26 -21 rcurveline
          -61 callsubr
        </CharString>
        <CharString name="cedilla">
          15 -139 11 90 12 hstem
          192 25 vstem
          217 -77 -21 callsubr
          10 8 19 14 vhcurveto
          4 -1 -2 2 -2 hhcurveto
          -1 -8 -6 -12 -16 hvcurveto
          -26 -21 rlineto
          -61 callsubr
        </CharString>
        <CharString name="cent">
          -27 343 62 hstem
          25 14 107 67 vstem
          223 550 rmoveto
          2 4 1 4 4 vvcurveto
          10 -4 -1 -8 -13 vhcurveto
          -10 -16 -9 -19 -10 -24 -24 -61 rcurveline
          -4 hlineto
          -35 -32 -20 -41 -29 hvcurveto
          -25 -37 -13 -36 -37 vvcurveto
          -41 19 -22 37 -3 vhcurveto
          -30 -70 rlineto
          -17 -39 -7 -30 -20 vvcurveto
          -21 8 -13 16 -5 vhcurveto
          7 -3 -9 callsubr
          vvcurveto
          3 -2 2 -5 1 vhcurveto
          -9 3 -4 8 13 vvcurveto
          20 8 31 17 43 vhcurveto
          30 70 28 1 25 13 22 24 rlinecurve
          15 18 16 29 17 39 rrcurveto
          27 callgsubr
          3 vvcurveto
          2 -1 2 -2 -2 -3 -3 -5 -3 vhcurveto
          -78 -39 -36 -39 -35 hhcurveto
          -23 -12 15 29 -1 hvcurveto
          -2 36 13 36 27 37 13 18 15 15 17 11 16 11 14 4 11 -3 4 -1 4 -3 3 11 callgsubr
          1 -7 -1 -7 rrcurveto
          8 -3 -7 4 -12 hhcurveto
          -20 1 -11 -10 -1 -21 rrcurveto
          -9 25 callsubr
          -7 6 7 -3 10 hhcurveto
          10 8 4 8 7 hvcurveto
          7 8 3 10 1 12 rrcurveto
          25 -11 17 -24 8 vhcurveto
          27 72 9 23 5 14 4 6 rlinecurve
          endchar
        </CharString>
        <CharString name="circumflex">
          -55 callsubr
        </CharString>
        <CharString name="colon">
          -78 -4 61 61 61 hstem
          67 64 vstem
          192 148 -63 callgsubr
          -61 -121 -44 callgsubr
        </CharString>
        <CharString name="comma">
          -83 -82 -21 155 -20 hstem
          128 24 -51 callsubr
        </CharString>
        <CharString name="copyright">
          131 -7 11 211 84 62 10 hstem
          -6 11 54 25 7 7 155 9 44 9 49 -69 callsubr
          -48 58 rmoveto
          14 -9 11 -17 6 vhcurveto
          5 -13 -15 3 -18 hhcurveto
          -51 -42 -16 -32 -35 hvcurveto
          -11 11 -5 10 11 vvcurveto
          23 14 11 28 10 13 -4 -8 15 vhcurveto
          4 vlineto
          9 -9 -15 5 -20 hhcurveto
          -29 -15 -13 -24 -14 7 -12 14 -12 hvcurveto
          -36 -34 -17 -38 -43 vvcurveto
          -26 7 -21 16 -16 vhcurveto
          -16 15 21 -7 27 hhcurveto
          26 25 8 18 25 hvcurveto
          27 19 14 22 25 vvcurveto
          11 -4 5 callsubr
          -25 -17 -10 -21 -5 hvcurveto
          -1 -3 rlineto
          -1 1 -1 27 callsubr
          3 1 vhcurveto
          18 8 13 10 20 -29 callsubr
          -7 -10 vvcurveto
          -10 -4 -12 -8 -12 vhcurveto
          -38 -25 -32 -18 -39 hhcurveto
          -20 -16 8 17 -11 hvcurveto
          -10 14 -5 18 21 vvcurveto
          39 15 36 30 33 vhcurveto
          -15 25 31 -7 36 hhcurveto
          20 18 3 6 19 hvcurveto
          25 9 13 11 16 vvcurveto
          -8 3 rmoveto
          -15 -13 -12 -27 -8 vhcurveto
          -6 -18 -19 -2 -19 hhcurveto
          -30 -27 7 13 -23 hvcurveto
          36 35 38 18 43 hhcurveto
          40 20 -10 -21 hvcurveto
          endchar
        </CharString>
        <CharString name="currency">
          347 128 -21 80 27 153 28 78 -20 hstem
          222 147 vstem
          400 347 rmoveto
          133 126 -158 -96 rlineto
          13 -17 -21 5 -21 hhcurveto
          -23 -23 -6 -12 -20 hvcurveto
          -113 93 76 -121 -19 -20 -13 -26 -1 -29 rlinecurve
          -1 -14 3 -15 7 -12 -131 -126 rcurveline
          157 97 rlineto
          -12 18 21 -5 21 hhcurveto
          22 22 6 12 22 hvcurveto
          113 -94 -78 121 18 19 14 26 1 27 rlinecurve
          1 15 -3 15 -7 13 rrcurveto
          -103 20 rmoveto
          38 35 -32 -45 -1 hvcurveto
          -45 -2 -38 -31 -38 hhcurveto
          -36 -35 31 45 2 hvcurveto
          45 2 35 32 38 hhcurveto
          endchar
        </CharString>
        <CharString name="d">
          68 -4 13 hstem
          350 77 rmoveto
          -4 7 -69 -75 -35 16 -24 12 11 111 19 54 rrcurveto
          0 23 -12 -15 32 vhcurveto
          11 callsubr
          1 vvcurveto
          37 95 53 95 1 8 6 48 -43 -19 -34 -102 rrcurveto
          -26 -75 -14 -31 0 vvcurveto
          -125 66 -159 -298 101 -17 rrcurveto
          43 -7 107 151 -4 vvcurveto
          -1 -27 -123 34 -14 vhcurveto
          46 -19 101 81 -9 17 rrcurveto
          -119 151 rmoveto
          5 -4 -85 -133 -53 -51 -46 2 callgsubr
          19 49 29 71 101 119 37 -32 rrcurveto
          endchar
        </CharString>
        <CharString name="dagger">
          93 274 -35 callgsubr
          -163 -337 rlineto
          22 hlineto
          162 337 -3 callsubr
        </CharString>
        <CharString name="daggerdbl">
          93 135 19 120 -35 callgsubr
          -58 -120 rlineto
          -85 hlineto
          -12 -6 -5 -7 -6 vvcurveto
          93 hlineto
          -96 -198 rlineto
          22 hlineto
          95 198 rlineto
          116 hlineto
          12 6 6 6 -1 7 rrcurveto
          -124 hlineto
          58 120 -3 callsubr
        </CharString>
        <CharString name="degree">
          95 endchar
        </CharString>
        <CharString name="dieresis">
          -53 287 44 hstem
          25 -5 callgsubr
          vstem
          155 309 -90 callsubr
        </CharString>
        <CharString name="divide">
          -78 -4 61 61 61 -41 15 hstemhm
          -5 170 -98 64 hintmask 10110000
          224 138 rmoveto
          15 -229 -14 vlineto
          192 103 -63 callgsubr
          hintmask 11001000
          -56 -215 -44 callgsubr
        </CharString>
        <CharString name="dollar">
          61 280 59 70 13 hstem
          104 42 38 42 75 15 vstem
          317 325 rmoveto
          32 -17 19 -33 5 vhcurveto
          22 41 -21 -4 -19 -35 rlineto
          -35 -31 -8 -16 -28 hvcurveto
          -34 -20 -16 -26 -33 vvcurveto
          -23 13 -28 27 -34 vhcurveto
          -100 -181 -29 6 -24 12 -19 19 rlinecurve
          -6 hlineto
          12 callgsubr
          -5 -1 -4 12 -15 27 -12 43 -8 -23 -41 rcurveline
          23 4 18 36 rlineto
          42 38 11 21 33 hvcurveto
          39 25 19 32 40 vvcurveto
          26 -15 33 -30 40 vhcurveto
          78 141 25 -5 14 -14 3 -21 rlinecurve
          8 -2 -7 3 -11 hhcurveto
          -19 -10 -9 -19 -1 hvcurveto
          -1 -8 3 31 callgsubr
          rrcurveto
          -6 5 8 -3 8 hhcurveto
          11 8 4 9 7 hvcurveto
          7 8 4 11 12 vvcurveto
          -133 -209 rmoveto
          -30 -13 -25 -26 -20 vhcurveto
          -19 -24 -28 -10 -30 hhcurveto
          94 169 rlineto
          18 -24 9 -21 -20 vvcurveto
          59 255 rmoveto
          -72 -130 -6 9 -5 9 -5 10 rlinecurve
          -6 9 -2 10 9 vvcurveto
          21 9 18 19 15 vhcurveto
          13 18 19 7 21 hhcurveto
          endchar
        </CharString>
        <CharString name="dotaccent">
          -57 393 13 hstem
          141 371 rmoveto
          10 -2 8 -6 7 vhcurveto
          7 -5 -7 3 -9 hhcurveto
          -13 -14 -8 -17 -13 hvcurveto
          -13 -17 -6 -16 -13 vvcurveto
          -18 9 -8 18 16 14 6 13 12 vhcurveto
          13 13 6 15 15 vvcurveto
          endchar
        </CharString>
        <CharString name="dotlessi">
          -80 callgsubr
          endchar
        </CharString>
        <CharString name="e">
          -83 callsubr
          endchar
        </CharString>
        <CharString name="eacute">
          -83 callsubr
          84 161 -95 callsubr
        </CharString>
        <CharString name="ecircumflex">
          7 callsubr
          hstem
          -89 callsubr
          -4 203 -100 callgsubr
          -58 -94 -67 callgsubr
          endchar
        </CharString>
        <CharString name="edieresis">
          7 callsubr
          69 44 hstem
          112 -5 callgsubr
          vstem
          -89 callgsubr
          61 135 -90 callsubr
        </CharString>
        <CharString name="egrave">
          -83 callsubr
          -94 156 -90 callgsubr
        </CharString>
        <CharString name="eight">
          106 -29 19 301 76 33 13 hstem
          -22 32 104 32 21 33 vstem
          439 397 rmoveto
          8 6 3 14 -13 -5 -12 -4 -31 -15 -49 -26 rrcurveto
          25 -17 -30 12 -43 hhcurveto
          -37 -32 -9 -20 -27 hvcurveto
          -31 -21 -14 -34 -36 vvcurveto
          -21 5 -23 11 -24 vhcurveto
          -35 -28 -26 -22 -16 -14 rrcurveto
          -50 -47 -25 -36 -34 vvcurveto
          -17 5 -15 10 -12 vhcurveto
          10 -13 14 -6 19 -1 42 -2 38 16 33 33 rrcurveto
          34 33 17 39 43 vvcurveto
          22 -8 25 -20 39 vhcurveto
          6 11 130 98 17 6 12 -23 8 -12 4 -3 rrcurveto
          -4 4 3 -1 4 hhcurveto
          6 3 6 13 -1 hvcurveto
          -2 10 -4 14 -8 17 22 12 29 12 34 22 rrcurveto
          -123 -48 rmoveto
          -45 -29 -50 -40 -57 -42 rrcurveto
          -9 18 -9 22 20 vvcurveto
          87 139 28 31 -64 vhcurveto
          -149 -230 rmoveto
          -34 -15 -31 -28 -27 vhcurveto
          -25 -26 -25 -13 -25 hhcurveto
          -76 58 101 23 17 hvcurveto
          28 35 37 29 27 18 5 -9 5 -14 7 -19 rrcurveto
          7 -18 4 -12 -4 vvcurveto
          endchar
        </CharString>
        <CharString name="ellipsis">
          120 -9 55 hstem
          336 18 rmoveto
          1 8 -1 6 -5 24 callgsubr
          -7 -7 -2 -6 -7 14 callgsubr
          2 -6 4 20 callsubr
          8 32 callgsubr
          7 hvcurveto
          6 5 4 6 1 8 rrcurveto
          -137 hmoveto
          1 8 -2 6 -4 24 callgsubr
          -8 -7 -2 -6 -6 14 callgsubr
          1 -6 5 20 callsubr
          7 7 2 6 6 hvcurveto
          7 5 3 6 2 8 rrcurveto
          -130 hmoveto
          2 8 -2 6 -4 5 rrcurveto
          6 -5 -6 2 -7 hhcurveto
          -8 -7 -2 -6 -6 hvcurveto
          -7 -5 -3 -6 -1 33 callgsubr
          1 -6 4 -5 rrcurveto
          -6 5 6 -2 7 hhcurveto
          8 7 2 6 6 hvcurveto
          6 5 4 6 1 8 rrcurveto
          endchar
        </CharString>
        <CharString name="emdash">
          254 125 29 hstem
          444 -40 callgsubr
          6 -48 -89 3 -129 hhcurveto
          -67 -39 -2 -50 callsubr
          159 7 132 4 104 2 rrcurveto
          endchar
        </CharString>
        <CharString name="endash">
          162 119 35 hstem
          280 -40 callgsubr
          6 -48 -50 3 -52 hhcurveto
          -35 -23 -2 -50 callsubr
          28 1 38 3 49 3 40 3 39 2 37 1 rrcurveto
          endchar
        </CharString>
        <CharString name="equal">
          67 141 21 66 -21 hstem
          98 175 vstem
          273 215 rmoveto
          3 callgsubr
          -9 -13 4 -6 3 callsubr
          1 32 hhcurveto
          8 4 3 5 hvcurveto
          -67 vmoveto
          3 callgsubr
          -8 -13 4 -7 3 callsubr
          2 32 hhcurveto
          8 4 2 5 hvcurveto
          endchar
        </CharString>
        <CharString name="eth">
          -79 callgsubr
        </CharString>
        <CharString name="exclam">
          39 -20 60 hstem
          61 64 vstem
          389 513 rmoveto
          1 2 -1 3 -4 5 -4 5 -5 4 -5 4 rrcurveto
          7 -8 -8 3 -7 hhcurveto
          -3 -2 -1 -1 hvcurveto
          -29 -48 -39 -72 -50 -98 -50 -98 -32 -67 -14 -36 rrcurveto
          -1 -3 -1 -3 -3 vvcurveto
          -8 4 -5 8 10 7 6 12 4 vhcurveto
          22 59 77 131 130 202 rrcurveto
          -264 -504 -79 callsubr
          endchar
        </CharString>
        <CharString name="exclamdown">
          39 146 61 hstem
          174 64 vstem
          237 176 rmoveto
          8 -3 8 -58 callgsubr
          -14 callsubr
          -8 3 -8 7 -6 -49 callsubr
          6 3 8 8 vvcurveto
          -69 -116 rmoveto
          1 6 callsubr
          -4 4 -7 -10 -6 -5 -12 -4 vhcurveto
          -21 -60 -31 -66 -46 -70 -56 -87 -45 -65 -31 -44 -1 -1 1 -3 4 -5 4 -5 4 -5 6 -4 rrcurveto
          -6 9 8 -4 5 hhcurveto
          3 16 callsubr
          1 hvcurveto
          28 48 39 72 50 98 50 98 31 66 14 35 rrcurveto
          endchar
        </CharString>
        <CharString name="f">
          -87 496 15 hstem
          -63 callsubr
          endchar
        </CharString>
        <CharString name="fi">
          55 290 39 167 15 hstem
          293 49 vstem
          -63 callsubr
          10 -366 -47 callsubr
          -32 217 rmoveto
          -38 callsubr
          endchar
        </CharString>
        <CharString name="five">
          129 -27 24 253 25 87 19 hstem
          1 24 259 40 vstem
          401 361 rmoveto
          15 vlineto
          3 -14 -16 2 -17 hhcurveto
          -17 -26 -2 -5 -34 hvcurveto
          -4 -35 -25 -2 -16 hhcurveto
          -1 -4 0 1 -9 hvcurveto
          -15 hlineto
          -4 -6 -4 -8 -10 hvcurveto
          -20 -16 rlineto
          -6 2 -4 3 -2 vhcurveto
          10 -5 -5 -15 -12 -24 -21 -32 rlinecurve
          -8 -10 -8 -12 -8 -11 -8 -12 rcurveline
          -1 -4 -2 -2 -1 -1 rrcurveto
          -1 -3 -1 -2 -3 vvcurveto
          -10 6 -5 12 5 3 1 2 3 vhcurveto
          1 11 callsubr
          2 hvcurveto
          43 43 36 21 29 hhcurveto
          26 18 -4 -10 11 hvcurveto
          11 -10 6 -17 -25 vvcurveto
          -27 -11 -30 -22 -34 vhcurveto
          -21 -34 -25 -24 -26 -15 rrcurveto
          -15 -25 -26 -7 -26 hhcurveto
          -51 -26 26 52 6 2 8 4 10 hvcurveto
          3 9 2 5 2 vvcurveto
          7 -3 3 -6 -4 -5 -8 -16 -7 vhcurveto
          -6 -17 -4 -10 -5 vvcurveto
          -29 11 -24 23 -18 vhcurveto
          -17 21 24 -8 27 hhcurveto
          54 50 25 51 47 hvcurveto
          44 47 22 48 47 vvcurveto
          56 -34 28 -67 -23 -27 -6 -10 -32 vhcurveto
          18 33 15 24 13 15 rrcurveto
          1 2 1 4 vhcurveto
          6 2 rlineto
          5 hlineto
          22 9 32 7 43 4 19 2 33 2 48 2 rrcurveto
          endchar
        </CharString>
        <CharString name="fl">
          542 endchar
        </CharString>
        <CharString name="florin">
          95 endchar
        </CharString>
        <CharString name="four">
          130 165 28 hstem
          371 376 rmoveto
          15 vlineto
          25 -7 13 -13 vhcurveto
          -32 -40 -44 -42 -57 -42 -50 -36 -50 -34 -50 -35 -11 -8 -11 -6 -11 -7 rrcurveto
          -17 -12 -9 -8 -6 vvcurveto
          -9 5 -5 10 vhcurveto
          17 53 58 9 61 hhcurveto
          4 4 0 -1 1 hvcurveto
          -1 -4 -15 -31 -28 -60 rrcurveto
          -23 -49 -11 -29 -10 vvcurveto
          -10 4 -6 8 vhcurveto
          4 7 5 7 4 9 25 53 rcurveline
          29 60 20 41 11 21 rrcurveto
          12 hlineto
          4 1 3 0 0 vvcurveto
          3 10 -1 -3 18 hvcurveto
          17 -3 5 -1 rlineto
          1 1 0 2 1 hvcurveto
          -2 vlineto
          6 3 3 6 7 -8 5 -16 4 hvcurveto
          -12 1 -12 2 -12 3 rrcurveto
          -5 1 -3 1 0 vvcurveto
          6 18 31 36 56 vhcurveto
          35 57 22 31 7 6 rrcurveto
          -64 -24 rmoveto
          -107 -51 -30 -53 -9 hhcurveto
          1 -1 -2 0 -3 hhcurveto
          0 -6 1 -11 vhcurveto
          -11 -11 1 -13 hhcurveto
          -56 hlineto
          18 15 30 22 41 30 41 30 38 30 36 30 rrcurveto
          endchar
        </CharString>
        <CharString name="fraction">
          -68 callsubr
        </CharString>
        <CharString name="g">
          20 196 13 hstem
          132 28 vstem
          260 84 rmoveto
          13 14 10 22 -25 -22 -19 -17 -19 -16 -23 -15 -2 26 0 45 1 15 1 33 -16 -9 -58 callsubr
          20 49 17 43 43 60 40 34 rrcurveto
          51 44 43 -23 -23 -39 callsubr
          14 -42 22 -47 -19 -38 -36 -76 -65 callsubr
          7 -6 5 -37 5 -25 -125 -78 -155 -64 -87 -93 -45 -49 -9 -60 46 -46 51 -51 86 -3 67 28 39 16 36 25 30 32 85 91 22 131 -14 116 22 14 22 23 18 18 rrcurveto
          -86 -68 rmoveto
          17 -101 -9 -108 -75 -81 -32 -34 -39 -26 -42 -16 -56 -23 -90 -14 -45 44 -36 36 26 48 31 33 68 74 187 111 95 57 rrcurveto
          endchar
        </CharString>
        <CharString name="germandbls">
          270 -217 17 12 65 88 14 472 15 hstem
          -96 18 442 25 41 39 vstem
          510 377 rmoveto
          23 -8 20 -18 15 vhcurveto
          -20 18 -28 10 -37 3 -20 2 -17 -6 -14 -14 -8 -8 -11 -14 -9 -22 -161 -374 rcurveline
          -34 -77 -28 -54 -24 -31 -27 -34 -32 -21 -39 -10 rrcurveto
          -1 -4 -5 -1 -5 hhcurveto
          -21 -13 6 13 -5 hvcurveto
          -5 5 7 -3 8 hhcurveto
          9 8 3 7 7 hvcurveto
          7 6 4 8 1 9 1 9 -2 7 -6 7 rrcurveto
          6 -6 -7 3 -9 hhcurveto
          -13 -11 -5 -10 -9 hvcurveto
          -9 -10 -4 -12 1 -13 3 -32 23 -15 45 3 50 4 53 34 55 65 50 58 73 168 95 279 6 16 8 14 10 12 rrcurveto
          12 10 10 6 10 hhcurveto
          3 2 -1 -1 3 hvcurveto
          36 -12 18 -26 -1 -38 -1 -37 -24 -34 -46 -31 rrcurveto
          -21 -14 -10 -13 -11 vvcurveto
          -11 8 -10 17 -10 vhcurveto
          27 -16 14 -23 -31 vvcurveto
          -36 -17 -34 -33 -31 vhcurveto
          -36 -33 -44 -17 -52 -2 rrcurveto
          -16 -1 -7 -2 -5 vvcurveto
          -5 9 -2 19 5 7 0 1 7 vhcurveto
          59 4 48 20 38 35 rrcurveto
          34 32 18 36 39 vvcurveto
          47 -25 32 -49 18 vhcurveto
          -4 1 -2 3 4 vvcurveto
          7 5 6 9 4 vhcurveto
          30 16 25 19 19 22 rrcurveto
          22 23 11 22 22 vvcurveto
          endchar
        </CharString>
        <CharString name="grave">
          7 380 -21 86 -20 hstem
          79 415 -90 callgsubr
        </CharString>
        <CharString name="greater">
          -19 -42 callgsubr
          endchar
        </CharString>
        <CharString name="greaterequal">
          22 callsubr
          146 133 rmoveto
          8 -2 6 -3 2 vhcurveto
          -33 32 -64 59 -1 1 rlineto
          -2 -1 -1 -2 -5 vvcurveto
          -3 0 -3 1 -3 vhcurveto
          11 -15 10 -11 8 -9 43 -48 rcurveline
          -69 -67 rlineto
          -6 -6 -3 -4 -3 9 callsubr
          3 4 16 9 18 30 vhcurveto
          29 19 18 11 5 5 rrcurveto
          3 -9 callsubr
          7 vvcurveto
          -7 -119 -20 callsubr
        </CharString>
        <CharString name="guillemotleft">
          63 8 callsubr
          318 198 rmoveto
          -1 5 -4 2 rlineto
          -2 -47 -28 -58 -93 hvcurveto
          12 -53 5 -27 5 -16 4 -7 rlinecurve
          5 -2 5 2 3 7 1 90 56 40 29 21 17 15 5 9 rlinecurve
          -96 hmoveto
          -45 callsubr
        </CharString>
        <CharString name="guillemotright">
          63 -42 callgsubr
          233 85 rmoveto
          -15 66 -8 34 -2 2 -6 3 rcurveline
          -5 -3 rlineto
          -2 -3 -1 -9 -14 vvcurveto
          -1 -10 0 -14 1 -17 rrcurveto
          -30 vlineto
          -19 -13 -19 -13 -19 -14 -28 -20 -17 -15 -6 -9 rrcurveto
          -6 vlineto
          5 -1 5 1 rlineto
          endchar
        </CharString>
        <CharString name="guilsinglleft">
          57 70 278 hstem
          84 50 vstem
          100 217 rmoveto
          -18 -17 -7 -2 20 -20 30 -30 26 -30 23 -36 13 -23 13 14 -10 25 -8 20 -21 40 -27 54 72 68 9 14 21 25 23 26 -12 8 -8 -8 -63 -52 -16 -20 -60 -56 rrcurveto
          endchar
        </CharString>
        <CharString name="guilsinglright">
          47 79 278 hstem
          200 50 vstem
          234 210 rmoveto
          17 18 6 2 -18 19 -30 30 -27 30 -22 36 -14 23 -12 -13 10 -26 7 -19 21 -40 28 -53 -73 -70 -7 -13 -23 -26 -21 -25 10 -8 9 7 62 52 17 21 60 55 rrcurveto
          endchar
        </CharString>
        <CharString name="h">
          4 432 -25 callgsubr
          -86 -65 -69 -127 -32 -105 -70 callsubr
          -9 -11 rmoveto
          -7 callgsubr
          42 111 40 160 163 32 45 9 69 -5 19 -50 rrcurveto
          endchar
        </CharString>
        <CharString name="hbar">
          4 324 33 75 -25 callgsubr
          -55 -41 -47 -66 -36 -69 rrcurveto
          -57 hlineto
          -14 -32 rlineto
          56 hlineto
          -14 -30 -12 -31 -8 -28 -70 callsubr
          -272 -156 rmoveto
          -73 hlineto
          36 86 54 83 113 22 45 9 69 -5 19 -50 -7 callgsubr
          29 80 rcurveline
          72 hlineto
          endchar
        </CharString>
        <CharString name="hungarumlaut">
          -107 endchar
        </CharString>
        <CharString name="hyphen">
          15 112 42 hstem
          213 125 -33 callgsubr
          -34 3 -21 hhcurveto
          -21 -17 -2 -50 callsubr
          -6 callgsubr
          endchar
        </CharString>
        <CharString name="i">
          -96 290 39 hstem
          142 49 vstem
          145 303 rmoveto
          -38 callsubr
          32 -217 -47 callsubr
          endchar
        </CharString>
        <CharString name="iacute">
          -80 callgsubr
          30 242 -95 callsubr
        </CharString>
        <CharString name="icircumflex">
          -80 callgsubr
          -8 157 -96 callgsubr
        </CharString>
        <CharString name="idieresis">
          -102 1 22 254 44 hstemhm
          29 35 -21 -5 callgsubr
          hintmask 10100000
          -85 callgsubr
          hintmask 01011000
          -7 213 -90 callsubr
        </CharString>
        <CharString name="igrave">
          -80 callgsubr
          -137 243 -90 callgsubr
        </CharString>
        <CharString name="ij">
          34 -167 11 446 39 hstem
          142 49 48 15 vstem
          234 220 rmoveto
          4 6 -40 12 30 callsubr
          -6 -8 -60 -17 -72 -13 -14 -30 -22 -16 -13 -54 callgsubr
          19 14 19 17 12 13 -19 -80 -30 -92 -40 -47 -60 callgsubr
          44 83 -21 callgsubr
          -133 hmoveto
          -38 callsubr
          endchar
        </CharString>
        <CharString name="infinity">
          99 182 21 98 17 hstem
          30 9 271 7 vstem
          317 253 rmoveto
          19 -6 15 -13 12 vhcurveto
          13 -12 -16 6 -18 hhcurveto
          -14 -13 -6 -13 -14 hvcurveto
          -7 -6 -10 -11 -14 -18 rrcurveto
          35 -20 -28 17 -36 hhcurveto
          -20 -16 -7 -13 -12 hvcurveto
          -12 -13 -6 -16 -20 vvcurveto
          -18 5 -15 11 -13 vhcurveto
          -13 11 14 -6 18 hhcurveto
          14 14 6 12 14 hvcurveto
          8 7 11 12 14 17 10 -16 12 -12 15 -11 rrcurveto
          -13 18 16 -7 16 hhcurveto
          19 16 8 17 13 hvcurveto
          12 15 6 17 19 vvcurveto
          -7 -4 rmoveto
          -15 -5 -11 -10 -10 vhcurveto
          -10 -10 -12 -4 -14 hhcurveto
          -9 -11 2 5 -10 hvcurveto
          -11 5 -9 8 -8 10 rrcurveto
          1 -6 10 -12 19 vhcurveto
          3 5 2 16 callsubr
          rrcurveto
          20 17 19 11 22 hhcurveto
          16 14 -5 -9 12 hvcurveto
          14 -10 7 -13 -15 vvcurveto
          -149 -8 rmoveto
          -25 -25 -24 -13 -23 hhcurveto
          -13 -12 3 8 -10 hvcurveto
          -10 7 -5 10 13 vvcurveto
          14 4 12 8 10 vhcurveto
          10 9 11 5 14 hhcurveto
          30 25 -18 -36 21 hvcurveto
          endchar
        </CharString>
        <CharString name="integral">
          95 endchar
        </CharString>
        <CharString name="itilde">
          -102 1 22 287 25 hstemhm
          29 35 hintmask 10100000
          -85 callgsubr
          hintmask 01000000
          9 247 -91 callgsubr
        </CharString>
        <CharString name="j">
          18 callsubr
          164 303 -21 callgsubr
          -44 -83 -47 callgsubr
          endchar
        </CharString>
        <CharString name="jcircumflex">
          18 callsubr
          120 220 -47 callgsubr
          71 52 -96 callgsubr
        </CharString>
        <CharString name="k">
          -73 callgsubr
          endchar
        </CharString>
        <CharString name="kcommaaccent">
          -73 callgsubr
          -186 -563 -66 callgsubr
          endchar
        </CharString>
        <CharString name="kgreenlandic">
          -10 callgsubr
          250 377 -15 callgsubr
          -51 -71 -15 -84 rrcurveto
          -9 -49 -16 -98 -78 callgsubr
          37 164 -33 callsubr
          endchar
        </CharString>
        <CharString name="l">
          -72 -5 13 415 13 hstem
          -62 callgsubr
          endchar
        </CharString>
        <CharString name="ldot">
          62 -20 60 -45 13 415 13 hstemhm
          61 64 hintmask 01100000
          -62 callgsubr
          hintmask 10010000
          -12 -275 -79 callsubr
          endchar
        </CharString>
        <CharString name="less">
          -19 8 callsubr
          222 198 rmoveto
          -45 callsubr
        </CharString>
        <CharString name="lessequal">
          22 callsubr
          141 61 rmoveto
          3 -2 4 -6 6 vhcurveto
          -70 67 43 48 19 20 rlineto
          7 9 4 8 7 vvcurveto
          5 17 callgsubr
          -1 -15 -14 -28 -31 vhcurveto
          -30 -28 -17 -17 -5 -5 rrcurveto
          -3 -2 -1 -6 -8 vvcurveto
          -8 1 -5 3 -2 vhcurveto
          7 -6 18 -11 27 -17 rrcurveto
          -19 30 17 -9 3 hhcurveto
          3 1 2 3 hvcurveto
          -2 -47 -20 callsubr
        </CharString>
        <CharString name="logicalnot">
          301 153 32 hstem
          446 185 rmoveto
          -379 hlineto
          -3 -4 -3 -6 -5 hvcurveto
          -5 -6 -3 -5 -4 vvcurveto
          -5 5 -3 9 vhcurveto
          348 hlineto
          -28 -129 rlineto
          -4 1 -3 3 -3 vhcurveto
          -3 2 3 -2 4 hhcurveto
          10 6 5 10 2 hvcurveto
          endchar
        </CharString>
        <CharString name="lozenge">
          348 7 -21 700 -20 hstem
          275 -14 rmoveto
          14 7 7 11 5 hvcurveto
          36 55 161 255 1 39 rrcurveto
          5 -1 6 5 vvcurveto
          -28 51 -31 52 -27 52 -22 46 -17 48 -19 47 rrcurveto
          10 -6 -7 11 -11 hhcurveto
          -28 -196 -329 -40 -1 hvcurveto
          -9 1 -4 3 -7 vhcurveto
          43 -83 48 -79 36 -87 6 -15 4 -15 7 -14 rrcurveto
          -10 5 7 -8 10 hhcurveto
          37 629 rmoveto
          30 -97 77 -92 37 -96 -47 -79 -70 -127 -47 -76 -30 95 -74 100 -35 94 43 79 70 120 46 79 rrcurveto
          endchar
        </CharString>
        <CharString name="lslash">
          -72 -5 13 111 35 269 13 hstem
          198 -40 callgsubr
          -40 5 -40 3 -43 1 3 9 2 10 3 8 -15 callsubr
          -30 callsubr
          12 callgsubr
          -6 -3 -4 -26 -1 -17 -2 -10 -3 rrcurveto
          -53 callsubr
          18 21 2 1 26 hvcurveto
          -14 -84 18 -28 31 -7 -37 callgsubr
          -17 12 4 44 9 44 4 1 5 -1 5 1 40 3 39 2 37 1 rrcurveto
          69 354 -41 callgsubr
          endchar
        </CharString>
        <CharString name="m">
          164 198 13 hstem
          478 103 rmoveto
          0 -2 9 -5 -3 vhcurveto
          -5 -5 -32 -42 -35 -22 -51 -33 -32 22 7 62 4 31 8 45 7 40 9 51 -44 -41 -8 -29 -35 -50 -28 -28 -31 -37 rrcurveto
          4 24 4 43 36 vvcurveto
          71 -32 -25 -21 -34 vhcurveto
          -28 -47 -40 -60 -30 -27 5 8 13 127 13 32 12 31 -66 -21 3 -30 8 -71 -33 -115 -5 -22 -5 -19 37 12 11 29 10 29 87 108 26 35 rrcurveto
          -37 -17 -117 -12 -37 vhcurveto
          -3 -10 57 26 1 43 27 37 45 48 16 17 -10 -58 -13 -77 47 -21 63 -29 95 123 4 8 rrcurveto
          endchar
        </CharString>
        <CharString name="macron">
          85 269 33 hstem
          288 301 rmoveto
          -155 hlineto
          -14 -32 rlineto
          155 hlineto
          endchar
        </CharString>
        <CharString name="minus">
          11 138 15 hstem
          71 170 vstem
          241 138 rmoveto
          15 -170 -14 vlineto
          endchar
        </CharString>
        <CharString name="mu">
          -22 -4 7 hstem
          144 25 vstem
          275 107 rmoveto
          -1 2 rlineto
          -4 hlineto
          -10 -23 -12 -22 -13 -19 rrcurveto
          -29 -21 -18 -15 -16 hhcurveto
          -8 -3 5 9 16 15 37 31 58 hvcurveto
          52 101 rlineto
          -2 hlineto
          -9 -4 -7 -4 -10 hhcurveto
          -5 -6 2 3 -6 hvcurveto
          -1 hlineto
          -22 -44 -17 -33 -12 -22 rrcurveto
          -78 -44 -34 -39 -26 hhcurveto
          -11 -5 6 12 22 13 33 26 44 hvcurveto
          8 14 11 17 12 22 15 27 11 17 6 7 -1 1 rcurveline
          -9 -12 -10 -5 -10 hhcurveto
          -4 -4 1 3 -3 hvcurveto
          -1 hlineto
          -12 -18 -12 -21 -13 -25 -32 -66 rcurveline
          -129 -253 rlineto
          -1 0 17 callgsubr
          vhcurveto
          -3 5 8 -1 10 hhcurveto
          5 3 0 2 1 hvcurveto
          86 188 rlineto
          -13 6 10 -6 15 hhcurveto
          26 28 24 49 31 hvcurveto
          -5 -13 -2 -12 -11 vvcurveto
          -25 12 -13 23 30 32 37 75 34 vhcurveto
          endchar
        </CharString>
        <CharString name="multiply">
          -79 30 -21 140 -20 hstem
          143 131 rmoveto
          2 -1 2 -2 4 vhcurveto
          4 -2 -1 2 -2 hhcurveto
          -49 -53 -28 57 -7 -6 -6 -8 29 -56 -49 -53 rlineto
          -1 1 -3 1 -4 vhcurveto
          -3 2 2 -3 1 hhcurveto
          49 53 28 -56 rlineto
          2 2 2 4 3 hvcurveto
          4 3 2 3 1 vvcurveto
          -29 56 rlineto
          endchar
        </CharString>
        <CharString name="n">
          15 194 13 hstem
          -77 callsubr
          endchar
        </CharString>
        <CharString name="nacute">
          15 194 13 hstem
          -77 callsubr
          -3 341 -95 callsubr
        </CharString>
        <CharString name="nbspace">
          -54 endchar
        </CharString>
        <CharString name="nine">
          -79 callgsubr
        </CharString>
        <CharString name="notequal">
          67 141 18 48 18 hstem
          98 175 vstem
          261 141 rmoveto
          8 4 2 5 7 -5 3 -9 1 hvcurveto
          -82 2 36 45 rlineto
          1 16 16 0 16 hhcurveto
          13 callsubr
          -30 1 21 29 rlineto
          1 2 1 2 1 vvcurveto
          2 -1 1 -2 -7 -5 -3 -7 -4 vhcurveto
          -20 -26 rlineto
          1 -51 -34 0 -19 hhcurveto
          -7 -4 -4 -9 -4 1 -5 -2 callgsubr
          2 hhcurveto
          41 5 29 3 17 1 -36 -44 rcurveline
          -51 hlineto
          -7 -4 -4 -8 -5 1 -5 -2 callgsubr
          2 hhcurveto
          28 4 -9 -13 -9 -11 -8 -10 rlinecurve
          -1 -2 -1 -2 -1 vvcurveto
          -2 2 -1 3 6 5 2 6 4 vhcurveto
          28 36 rlineto
          4 37 35 2 32 hhcurveto
          endchar
        </CharString>
        <CharString name="ntilde">
          15 194 13 95 25 hstemhm
          hintmask 10000000
          -77 callsubr
          hintmask 01000000
          -18 301 -91 callgsubr
        </CharString>
        <CharString name="numbersign">
          259 153 31 94 32 hstem
          479 310 rmoveto
          -98 hlineto
          92 154 rlineto
          -36 hlineto
          -92 -154 rlineto
          -94 hlineto
          94 154 rlineto
          -37 hlineto
          -92 -154 rlineto
          -113 hlineto
          -20 -32 rlineto
          114 hlineto
          -56 -94 rlineto
          -104 hlineto
          -20 -31 rlineto
          105 hlineto
          -92 15 callgsubr
          92 hlineto
          -91 15 callgsubr
          107 hlineto
          19 31 rlineto
          -107 hlineto
          55 94 rlineto
          100 hlineto
          -136 hmoveto
          -56 -94 rlineto
          -93 hlineto
          57 94 rlineto
          endchar
        </CharString>
        <CharString name="o">
          -83 callgsubr
          endchar
        </CharString>
        <CharString name="oacute">
          -83 callgsubr
          73 191 -95 callsubr
        </CharString>
        <CharString name="ocircumflex">
          -83 callgsubr
          58 97 -96 callgsubr
        </CharString>
        <CharString name="odieresis">
          -22 callgsubr
          77 44 hstemhm
          103 -5 callgsubr
          hintmask 11000000
          -92 callsubr
          hintmask 00111000
          50 147 -90 callsubr
        </CharString>
        <CharString name="oe">
          110 -9 17 180 17 hstem
          3 33 221 18 vstem
          116 205 rmoveto
          2 3 11 callsubr
          vvcurveto
          7 -6 4 -12 -8 -9 -6 -11 -9 vhcurveto
          -36 -4 -18 -20 -37 vvcurveto
          -8 0 -8 1 -8 vhcurveto
          -13 -33 -6 -29 -24 vvcurveto
          -36 14 -18 30 30 29 16 33 27 vhcurveto
          -26 7 20 -13 31 hhcurveto
          28 33 10 20 39 hvcurveto
          34 18 26 18 16 20 rrcurveto
          2 6 callsubr
          -4 0 -9 1 callgsubr
          -27 -9 -23 -18 callgsubr
          12 20 callgsubr
          -23 -17 -18 -10 -18 -19 vhcurveto
          -7 -7 -8 -8 -7 -10 -8 25 -17 17 -27 9 rrcurveto
          -10 -10 rmoveto
          14 -1 11 -6 8 -12 rrcurveto
          7 -12 4 -14 -16 vvcurveto
          -4 0 -4 -1 -5 vhcurveto
          -12 -24 -5 -20 -16 vvcurveto
          -1 vlineto
          -5 -10 -39 5 -24 21 -8 37 rlinecurve
          12 31 17 28 21 23 rrcurveto
          141 -54 rmoveto
          -13 -22 -24 -12 callgsubr
          10 hhcurveto
          5 3 -4 -8 -10 -5 -12 -8 -15 hvcurveto
          -203 -65 rmoveto
          17 -23 24 -14 33 -4 rrcurveto
          -22 -15 -18 -11 -21 hhcurveto
          -17 -9 12 24 10 2 13 4 14 hvcurveto
          endchar
        </CharString>
        <CharString name="ogonek">
          -16 -101 19 hstem
          97 21 vstem
          206 -73 rmoveto
          4 -2 2 -5 -1 -6 -3 -5 -13 vhcurveto
          -5 -13 -10 -3 -7 hhcurveto
          -20 -10 9 19 17 7 20 15 21 hvcurveto
          -2 2 rlineto
          -9 -10 -11 -21 -10 hvcurveto
          -9 -19 -4 -16 -11 vvcurveto
          -19 13 -9 24 8 14 2 6 18 vhcurveto
          21 7 11 7 6 vvcurveto
          endchar
        </CharString>
        <CharString name="ograve">
          -83 callgsubr
          -88 181 -90 callgsubr
        </CharString>
        <CharString name="one">
          6 400 13 hstem
          271 388 rmoveto
          3 vlineto
          5 -2 5 -6 5 vhcurveto
          5 -6 -6 2 -6 hhcurveto
          -3 -2 0 -1 -3 hvcurveto
          -56 -54 -40 -41 -26 -25 rrcurveto
          -8 -7 -4 -6 -4 vvcurveto
          -3 2 callsubr
          3 3 2 4 5 vhcurveto
          7 6 11 9 18 13 15 11 8 7 3 1 -18 -47 -22 -53 -27 -58 -24 -52 -25 -51 -25 -52 rrcurveto
          -1 -3 -1 -3 -2 vvcurveto
          -7 4 -3 7 8 4 3 4 2 vhcurveto
          27 68 37 74 45 83 40 71 33 55 28 37 rrcurveto
          endchar
        </CharString>
        <CharString name="onehalf">
          177 22 10 188 10 278 19 hstem
          204 178 51 12 vstem
          415 444 -18 callsubr
          345 46 rmoveto
          8 3 4 6 1 9 rrcurveto
          21 1 -35 10 -70 hhcurveto
          5 4 16 13 29 19 16 10 16 10 16 9 20 13 16 13 10 12 rrcurveto
          15 17 7 17 18 vvcurveto
          13 -3 10 -8 8 vhcurveto
          8 -8 -10 4 -13 hhcurveto
          -23 -23 -9 -18 -24 hvcurveto
          -24 -19 -14 -19 -4 -21 rrcurveto
          -4 -31 callsubr
          2 hhcurveto
          2 2 1 3 1 hvcurveto
          9 28 24 23 39 17 rrcurveto
          6 15 13 24 callsubr
          -7 -17 -16 -20 hvcurveto
          -20 -24 -29 -25 -38 -26 -35 -23 -29 -15 -24 -8 rrcurveto
          -7 -7 -3 -6 -7 hvcurveto
          -6 -5 -3 -6 -5 vvcurveto
          -4 2 -2 6 3 5 2 2 5 vhcurveto
          41 15 31 7 21 1 rrcurveto
          12 13 -2 -4 14 hvcurveto
          14 -5 7 -5 -5 vvcurveto
          -4 -4 -3 -7 -4 vhcurveto
          -3 -5 callsubr
          -2 vvcurveto
          -4 2 -1 4 2 vhcurveto
          -143 462 -57 callgsubr
          endchar
        </CharString>
        <CharString name="onequarter">
          177 101 17 hstem
          -74 callgsubr
          202 508 -57 callgsubr
          138 -231 -34 callgsubr
        </CharString>
        <CharString name="onesuperior">
          6 217 13 hstem
          190 445 rmoveto
          1 2 -1 3 -3 -23 callsubr
          -26 -26 8 callgsubr
          -1 1 1 16 callsubr
          2 vhcurveto
          13 13 12 9 11 5 -10 -27 -13 -31 -15 -33 -43 -90 rcurveline
          -37 callsubr
          21 43 26 -11 callsubr
          endchar
        </CharString>
        <CharString name="ordfeminine">
          11 363 13 hstem
          23 17 vstem
          176 320 rmoveto
          -32 callgsubr
          -1 2 -1 2 -1 -1 -4 -3 rrcurveto
          -22 -20 -17 -11 -14 hhcurveto
          -13 -7 9 17 13 4 14 9 15 hvcurveto
          1 1 0 3 1 vhcurveto
          2 1 2 1 2 vvcurveto
          7 -7 4 -12 -6 -7 -2 -3 -8 vhcurveto
          -19 -9 -16 -15 -14 -22 rrcurveto
          -6 -9 -3 -10 -9 vvcurveto
          -10 4 -6 8 6 8 4 8 9 vhcurveto
          9 7 8 10 8 11 2 -24 9 -13 15 -2 19 -2 22 13 26 27 rrcurveto
          -83 44 rmoveto
          -4 -8 -3 -10 -2 -11 -4 -10 -7 -10 -12 -10 rrcurveto
          -5 -6 -5 -3 -4 hhcurveto
          -4 -3 3 7 5 3 6 3 7 hvcurveto
          26 14 15 13 19 hhcurveto
          endchar
        </CharString>
        <CharString name="ordmasculine">
          -56 275 9 99 13 hstem
          39 16 47 11 vstem
          49 321 rmoveto
          9 -11 12 -7 17 -2 rrcurveto
          -11 -8 -9 -6 -11 hhcurveto
          -8 -4 6 13 5 1 6 1 7 hvcurveto
          32 60 rmoveto
          14 -1 8 -10 -19 vvcurveto
          -14 -4 -14 -8 -15 vhcurveto
          -20 3 -12 11 -4 18 7 16 8 13 11 12 rrcurveto
          6 6 rmoveto
          1 27 callsubr
          vvcurveto
          4 -3 2 -7 -4 -4 -3 -6 -5 vhcurveto
          -18 -2 -9 -10 -18 -4 1 -4 -4 vvcurveto
          -7 -17 -3 -14 -13 vvcurveto
          -17 7 -9 15 16 15 8 17 14 vhcurveto
          21 19 7 15 17 hvcurveto
          2 2 1 2 1 vvcurveto
          2 0 1 -2 -1 -1 callsubr
          vhcurveto
          -13 -13 -17 -7 -21 hhcurveto
          1 1 rlineto
          8 13 3 14 14 vvcurveto
          18 -9 12 -19 6 vhcurveto
          endchar
        </CharString>
        <CharString name="oslash">
          95 endchar
        </CharString>
        <CharString name="otilde">
          -22 callgsubr
          95 25 hstemhm
          hintmask 11000000
          -92 callsubr
          hintmask 00100000
          69 166 -91 callgsubr
        </CharString>
        <CharString name="p">
          -12 165 27 -32 callsubr
          16 54 -25 callsubr
          -12 -31 -68 callgsubr
        </CharString>
        <CharString name="paragraph">
          31 0 13 390 33 hstem
          403 436 rmoveto
          -115 hlineto
          -29 -23 -3 -6 -16 hvcurveto
          -43 -17 -30 -30 -16 -43 rrcurveto
          -5 -15 -3 -13 -11 vvcurveto
          -37 25 -19 49 vhcurveto
          -89 -242 21 callsubr
          33 hlineto
          -148 -403 21 callsubr
          14 hlineto
          endchar
        </CharString>
        <CharString name="parenleft">
          115 40 39 vstem
          407 565 rmoveto
          13 -6 7 -10 -11 -19 -9 -16 -26 vhcurveto
          -89 -55 -68 -58 -46 -63 rrcurveto
          -61 -83 -31 -97 -109 vvcurveto
          -26 3 -31 6 -37 vhcurveto
          8 -44 9 -27 10 -10 rrcurveto
          -6 6 6 -3 5 hhcurveto
          7 3 3 7 4 -1 4 -3 4 hvcurveto
          -14 18 -6 57 97 vvcurveto
          91 35 92 70 94 vhcurveto
          66 89 75 61 82 33 rrcurveto
          endchar
        </CharString>
        <CharString name="parenright">
          173 334 40 vstem
          373 397 rmoveto
          25 -3 31 -7 37 vhcurveto
          -8 44 -9 27 -10 11 rrcurveto
          6 -6 -6 3 -5 hhcurveto
          -7 -4 -3 -7 -5 2 -4 3 -5 hvcurveto
          14 -17 6 -57 -98 vvcurveto
          -90 -35 -92 -70 -94 vhcurveto
          -66 -89 -74 -61 -81 -34 rrcurveto
          -13 5 -6 11 11 18 8 17 27 vhcurveto
          89 55 68 59 45 62 rrcurveto
          62 83 30 97 110 vvcurveto
          endchar
        </CharString>
        <CharString name="partialdiff">
          7 -3 13 389 16 hstem
          42 29 146 24 vstem
          241 251 rmoveto
          45 -9 36 -17 29 vhcurveto
          36 -22 -31 18 -42 hhcurveto
          -26 -13 -5 -9 -3 3 -2 5 2 4 0 1 6 hvcurveto
          1 5 4 1 3 hhcurveto
          34 27 -21 -41 20 hvcurveto
          16 -33 7 -36 -39 vvcurveto
          -34 -6 -31 -12 -28 vhcurveto
          5 14 3 14 12 vvcurveto
          26 -11 13 -22 -25 -26 -13 -25 -27 vhcurveto
          -25 -23 -16 -24 -7 -27 rrcurveto
          -4 -15 -2 -14 -14 vvcurveto
          -16 3 -14 6 -11 vhcurveto
          -15 8 11 -7 15 hhcurveto
          36 31 19 37 28 hvcurveto
          22 30 16 35 11 41 rrcurveto
          8 31 4 30 31 vvcurveto
          -38 -76 rmoveto
          -22 -6 -23 -14 -23 vhcurveto
          -71 -39 -32 -35 -24 hhcurveto
          -11 -6 10 20 22 5 23 9 26 hvcurveto
          7 21 12 22 17 23 rrcurveto
          28 21 19 14 18 hhcurveto
          16 8 -12 -23 hvcurveto
          endchar
        </CharString>
        <CharString name="percent">
          176 -19 14 198 21 40 15 197 22 hstem
          41 37 51 43 42 17 127 18 vstem
          413 441 rmoveto
          3 -2 1 -6 -4 10 callsubr
          -2 vhcurveto
          -2 -1 -18 -19 -33 -36 -34 -38 -23 -23 -11 -9 rrcurveto
          -30 -38 -30 -15 -21 hhcurveto
          -12 -10 5 11 -5 hvcurveto
          16 15 16 23 15 29 rrcurveto
          16 33 9 28 23 vvcurveto
          32 -17 16 -32 1 vhcurveto
          -22 1 -24 -11 -24 -22 -24 -22 -19 -27 -14 4 callgsubr
          -20 31 -1 vhcurveto
          18 20 7 16 20 hvcurveto
          -11 10 13 -6 16 hhcurveto
          28 36 18 37 42 hvcurveto
          -137 -169 -104 -123 -72 -76 1 -3 rcurveline
          24 hlineto
          324 270 rmoveto
          -23 1 -23 -11 -24 -22 -25 -22 -19 -27 -13 4 callgsubr
          -19 31 -1 vhcurveto
          31 -1 32 21 33 44 rrcurveto
          31 42 16 39 37 vvcurveto
          33 -16 17 -33 1 vhcurveto
          -138 252 rmoveto
          16 8 -10 -20 -16 -5 -22 -11 -27 hvcurveto
          -9 -21 -9 -18 -9 -12 rrcurveto
          27 callgsubr
          2 vvcurveto
          14 -6 6 -14 -15 -7 -9 -19 -11 3 -11 7 -11 vhcurveto
          -12 -14 -13 -5 -11 hhcurveto
          -15 -7 9 20 20 7 27 15 33 hvcurveto
          12 25 14 21 17 17 rrcurveto
          17 16 15 8 14 hhcurveto
          169 -303 rmoveto
          -15 -5 -21 -10 -25 vhcurveto
          -9 -25 -10 -19 -9 -11 rrcurveto
          -35 -28 -23 -17 -17 hhcurveto
          -16 -8 9 20 21 8 27 15 33 hvcurveto
          12 25 14 20 16 17 rrcurveto
          17 17 15 9 13 hhcurveto
          17 8 -10 -20 hvcurveto
          endchar
        </CharString>
        <CharString name="period">
          -78 -20 60 hstem
          61 64 vstem
          125 9 -79 callsubr
          endchar
        </CharString>
        <CharString name="periodcentered">
          311 endchar
        </CharString>
        <CharString name="perthousand">
          221 -14 7 166 9 130 83 47 9 hstem
          77 26 29 25 110 11 15 26 109 11 vstem
          439 117 -8 callgsubr
          -27 -24 -13 -26 -19 hvcurveto
          -19 -25 -9 -26 -29 -2 callsubr
          -13 10 13 -7 16 hhcurveto
          25 23 16 33 20 hvcurveto
          18 28 9 28 26 vvcurveto
          -114 317 rmoveto
          -21 hlineto
          -67 -112 -2 -4 -5 -5 -7 -3 rlinecurve
          -4 -7 -6 -2 -5 hhcurveto
          -5 -4 1 2 -4 hvcurveto
          -1 2 rlineto
          19 21 9 26 31 vvcurveto
          14 -4 12 -8 10 vhcurveto
          10 -7 -11 4 -14 hhcurveto
          -27 -24 -13 -27 -19 hvcurveto
          -18 -24 -10 -26 -28 -2 callsubr
          -14 8 13 -7 15 hhcurveto
          24 21 16 32 19 hvcurveto
          -3 5 5 -1 6 hhcurveto
          8 8 2 6 8 hvcurveto
          -208 -317 rlineto
          22 hlineto
          235 127 -8 callgsubr
          -28 -23 -13 -26 -20 hvcurveto
          -18 -25 -8 -26 -29 -2 callsubr
          -13 9 12 -7 17 hhcurveto
          25 22 16 33 21 hvcurveto
          18 28 9 28 26 vvcurveto
          -65 264 rmoveto
          -5 1 -3 0 0 vvcurveto
          -10 -8 -5 -10 -5 hvcurveto
          -4 -9 -3 -9 -11 vvcurveto
          -11 3 -10 7 -10 vhcurveto
          -2 -2 rlineto
          -29 -14 -19 -15 -21 hhcurveto
          -17 -9 16 31 12 2 12 3 11 hvcurveto
          5 19 9 18 13 17 15 callsubr
          -16 -31 hvcurveto
          216 -258 rmoveto
          -23 -9 21 callgsubr
          -22 hhcurveto
          -16 16 callgsubr
          5 20 9 18 13 16 15 callsubr
          -12 -24 hvcurveto
          -162 hmoveto
          -23 -8 21 callgsubr
          -21 hhcurveto
          -17 16 callgsubr
          6 20 8 18 12 16 rrcurveto
          21 16 16 10 17 hhcurveto
          20 9 -12 -24 hvcurveto
          endchar
        </CharString>
        <CharString name="pi">
          43 -4 13 171 29 hstem
          271 240 rmoveto
          1 vlineto
          1 -1 0 1 -1 hhcurveto
          0 -5 -6 -8 -11 vhcurveto
          -11 -8 -12 -6 -15 hhcurveto
          -14 -21 6 12 -27 hvcurveto
          12 -28 -20 6 -14 hhcurveto
          -5 -5 -1 -2 -4 hvcurveto
          -9 -4 -9 -7 -10 -13 rrcurveto
          -9 -12 -5 -10 -9 vvcurveto
          -3 2 callsubr
          2 3 5 9 5 vhcurveto
          4 10 8 5 11 2 rrcurveto
          2 16 callsubr
          hhcurveto
          4 5 -1 -1 5 hvcurveto
          -46 -217 rlineto
          12 hlineto
          45 215 8 -3 14 -5 19 -8 rlinecurve
          18 -7 14 -4 10 -3 -39 -183 rcurveline
          12 hlineto
          39 182 rlineto
          7 6 0 3 5 hvcurveto
          9 4 10 7 11 13 rrcurveto
          13 13 5 12 8 vvcurveto
          endchar
        </CharString>
        <CharString name="plus">
          67 141 18 hstem
          307 159 rmoveto
          -86 hlineto
          9 50 6 33 5 17 rrcurveto
          7 2 -2 -19 callsubr
          1 -24 hvcurveto
          -39 hlineto
          -10 -5 -6 -12 -10 19 callgsubr
          25 1 -11 -41 -7 -30 -5 -19 rrcurveto
          -7 -1 3 -4 8 hhcurveto
          5 4 1 3 5 hvcurveto
          5 2 3 3 2 vvcurveto
          6 37 5 31 5 24 rrcurveto
          2 45 30 2 13 hhcurveto
          9 5 3 5 7 -4 3 -8 hvcurveto
          endchar
        </CharString>
        <CharString name="plusminus">
          67 23 18 132 18 hstem
          88 199 vstem
          311 191 rmoveto
          1 -38 -29 0 -19 hhcurveto
          9 49 7 33 4 17 rrcurveto
          8 1 -1 -19 callsubr
          -24 hhcurveto
          1 -21 -13 0 -5 hhcurveto
          -10 -5 -6 -13 -9 19 callgsubr
          26 1 -24 -90 rcurveline
          -8 -2 4 -3 8 hhcurveto
          5 4 1 2 5 hvcurveto
          5 3 3 2 3 vvcurveto
          6 37 5 30 5 24 rrcurveto
          3 45 30 1 13 hhcurveto
          9 5 3 6 6 -4 3 -8 hvcurveto
          -36 -168 rmoveto
          13 callsubr
          -106 4 rlineto
          1 -36 -22 1 -10 hhcurveto
          -7 -4 -5 -8 -4 1 -5 3 -4 hvcurveto
          2 -5 3 -2 2 1 rrcurveto
          6 51 58 2 67 hhcurveto
          endchar
        </CharString>
        <CharString name="product">
          95 endchar
        </CharString>
        <CharString name="q">
          -6 198 13 hstem
          227 245 rmoveto
          -73 callsubr
          -27 -70 -22 -79 -1 -60 -2 -47 23 -61 63 -8 11 -1 11 9 7 17 6 15 -8 -1 -5 -9 -6 -10 -21 -13 -20 12 -15 9 -9 18 -3 24 -10 72 40 126 33 89 rrcurveto
          2 33 -20 -7 -71 callgsubr
          -53 callgsubr
          rrcurveto
          endchar
        </CharString>
        <CharString name="question">
          162 -20 60 472 29 hstem
          57 64 243 41 vstem
          405 473 rmoveto
          21 -9 17 -19 14 vhcurveto
          11 -16 -17 5 -19 hhcurveto
          -50 -55 -19 -39 -59 hvcurveto
          -47 -30 -32 -27 -17 -25 rrcurveto
          -5 -7 -2 -6 -5 vvcurveto
          -5 3 -3 6 6 4 2 4 3 vhcurveto
          16 23 29 25 44 28 rrcurveto
          37 58 54 18 51 hhcurveto
          21 11 -10 -21 -20 -12 -26 -28 -28 hvcurveto
          -39 -41 -32 -29 -21 -18 -45 -41 -31 -30 -17 -20 rrcurveto
          -29 -34 -14 -30 -25 vvcurveto
          -6 2 -6 3 -6 vhcurveto
          -8 4 6 -4 8 hhcurveto
          8 5 4 8 1 hvcurveto
          1 6 2 4 4 vvcurveto
          -5 -3 3 6 hvcurveto
          1 vlineto
          23 13 26 30 26 vhcurveto
          40 36 33 24 21 16 45 33 32 28 19 22 rrcurveto
          30 33 14 31 30 vvcurveto
          -284 -464 -79 callsubr
          endchar
        </CharString>
        <CharString name="questiondown">
          162 -356 29 473 61 hstem
          -9 41 244 64 vstem
          340 176 -63 callgsubr
          -8 -392 rmoveto
          5 7 2 6 4 vvcurveto
          7 -3 3 -7 -5 -5 -3 -4 -3 vhcurveto
          -17 -24 -30 -25 -42 -27 rrcurveto
          -36 -57 -54 -19 -52 hhcurveto
          -21 -11 11 20 19 13 26 28 30 hvcurveto
          39 41 32 28 21 19 45 40 31 31 17 20 rrcurveto
          29 34 14 29 26 vvcurveto
          6 -1 6 -3 6 vhcurveto
          8 -5 -6 4 -7 hhcurveto
          -8 -6 -4 -9 -2 hvcurveto
          -4 -1 -4 -2 -5 vhcurveto
          5 3 -3 -5 hvcurveto
          -3 vlineto
          -23 -13 -26 -28 -26 vhcurveto
          -41 -36 -33 -23 -22 -17 -45 -33 -32 -27 -19 -22 rrcurveto
          -30 -32 -14 -31 -31 vvcurveto
          -21 10 -17 19 -14 vhcurveto
          -11 17 17 -6 18 hhcurveto
          50 54 20 38 60 hvcurveto
          47 30 32 28 17 24 rrcurveto
          endchar
        </CharString>
        <CharString name="quotedbl">
          -26 298 -21 190 -20 hstem
          201 447 rmoveto
          13 -7 7 19 callsubr
          -6 -4 -7 -1 -9 -19 -159 rcurveline
          10 4 callsubr
          9 28 11 vvcurveto
          -104 1 rmoveto
          12 -6 7 -12 -8 -8 -4 -6 -7 vhcurveto
          -7 -6 -3 33 callgsubr
          -18 -158 rcurveline
          9 4 callsubr
          8 28 12 vvcurveto
          endchar
        </CharString>
        <CharString name="quotedblbase">
          -75 40 -21 189 -20 hstem
          201 189 rmoveto
          13 -7 6 19 callsubr
          -5 -4 -8 -1 -9 -19 -158 rcurveline
          10 13 callgsubr
          45 9 28 11 vvcurveto
          -104 hmoveto
          13 -6 6 -12 -8 -8 -3 -7 -7 vhcurveto
          -7 -6 -3 -7 -1 -8 -18 -158 rcurveline
          9 13 callgsubr
          44 8 28 12 vvcurveto
          endchar
        </CharString>
        <CharString name="quotedblleft">
          50 69 462 rmoveto
          -27 callsubr
          11 17 28 8 9 22 22 -6 17 -24 -30 callgsubr
          86 hmoveto
          -27 callsubr
          11 17 28 -24 callsubr
        </CharString>
        <CharString name="quotedblright">
          50 259 553 rmoveto
          -7 47 -49 -19 -34 vvcurveto
          -17 5 -9 11 -1 vhcurveto
          -2 -12 -17 -27 -8 -20 callgsubr
          -86 hmoveto
          -7 47 -49 -19 -34 vvcurveto
          -17 6 -9 10 -1 vhcurveto
          -2 -12 -16 -27 -9 -20 callgsubr
          endchar
        </CharString>
        <CharString name="quoteleft">
          -51 370 13 hstem
          29 273 rmoveto
          -27 callsubr
          12 17 27 -24 callsubr
        </CharString>
        <CharString name="quoteright">
          -65 366 13 hstem
          187 351 rmoveto
          -6 47 -50 -20 -34 vvcurveto
          -17 6 -9 10 -1 vhcurveto
          -2 -12 -16 -27 -9 -9 -21 -22 6 -17 23 21 8 7 17 23 8 12 20 27 8 19 -2 18 callgsubr
        </CharString>
        <CharString name="quotesinglbase">
          -135 -15 -21 155 -20 hstem
          184 91 rmoveto
          -3 18 -9 9 -15 1 rrcurveto
          -13 -9 -3 -7 -7 hvcurveto
          12 callgsubr
          -8 -9 vvcurveto
          -17 6 -8 10 -1 vhcurveto
          -15 -28 -17 -24 -18 -20 rrcurveto
          -8 -9 -4 -7 -4 vvcurveto
          -2 5 callgsubr
          13 21 20 20 27 19 27 9 19 -2 18 callgsubr
        </CharString>
        <CharString name="quotesingle">
          -93 364 13 hstem
          184 349 rmoveto
          19 -3 -9 9 -15 hhcurveto
          -13 1 -9 -4 -7 -7 rrcurveto
          -38 callgsubr
          10 -1 vhcurveto
          -15 -27 -17 -24 -18 -21 rrcurveto
          -8 -9 -4 -6 -5 vvcurveto
          -1 5 callgsubr
          12 21 20 20 28 19 26 9 19 -2 18 callgsubr
        </CharString>
        <CharString name="r">
          -52 callsubr
          endchar
        </CharString>
        <CharString name="radical">
          95 endchar
        </CharString>
        <CharString name="rcaron">
          -52 callsubr
          24 95 -96 callgsubr
        </CharString>
        <CharString name="rcommaaccent">
          -16 callsubr
          99 -77 -66 callgsubr
          108 269 -66 callsubr
          endchar
        </CharString>
        <CharString name="registered">
          131 -7 11 69 7 109 123 49 10 hstem
          -6 11 41 13 100 8 126 17 54 -69 callsubr
          -40 -60 rmoveto
          -1 1 rlineto
          -3 hlineto
          -3 -13 -7 -13 -12 -13 rrcurveto
          -15 -13 -12 -8 -11 hhcurveto
          -3 -3 1 1 -4 hvcurveto
          -6 2 -6 11 -3 19 -2 13 -1 13 -1 14 -2 15 -2 12 -3 8 22 2 18 6 16 10 rrcurveto
          19 12 10 16 19 vvcurveto
          21 -14 15 -28 10 vhcurveto
          12 9 14 5 19 2 1 1 rcurveline
          0 -1 1 -2 -15 -16 -5 -11 -17 vhcurveto
          6 -18 -21 3 -23 hhcurveto
          -31 -29 -4 -10 -24 hvcurveto
          -31 -12 -21 -18 -12 -23 rrcurveto
          -5 -10 -2 -11 -11 vvcurveto
          -15 5 -13 11 -10 vhcurveto
          -9 11 13 -5 16 hhcurveto
          17 16 5 11 13 hvcurveto
          13 11 6 15 17 vvcurveto
          11 -3 5 callsubr
          -8 -8 -3 -6 -7 hvcurveto
          -8 -6 -3 -7 -9 vvcurveto
          -8 4 -4 9 3 2 1 3 1 -31 callsubr
          vhcurveto
          0 -31 callsubr
          vvcurveto
          -1 -1 rlineto
          -7 -4 3 6 8 3 6 6 5 hvcurveto
          5 6 7 3 7 hhcurveto
          22 10 -12 -23 -15 -5 -13 -12 -10 hvcurveto
          -11 -11 -13 -5 -15 hhcurveto
          -13 -11 4 9 -8 hvcurveto
          -8 9 -4 11 13 vvcurveto
          13 4 13 7 12 vhcurveto
          39 23 43 19 61 hhcurveto
          24 20 -3 -5 16 hvcurveto
          -28 -20 -25 -32 -22 -44 -21 -45 -15 -28 -7 -11 rrcurveto
          -32 -23 -25 -16 -28 hhcurveto
          -16 -8 6 10 9 3 4 7 1 1 0 -1 1 hvcurveto
          3 hlineto
          1 0 1 1 2 -2 1 -3 -12 -6 -6 -13 -12 9 -6 19 7 7 0 2 8 hvcurveto
          29 7 24 15 19 24 14 16 13 25 14 34 rrcurveto
          -1 3 3 0 4 hhcurveto
          8 hlineto
          -1 1 -19 2 -39 vhcurveto
          2 -26 7 -17 12 -8 rrcurveto
          -4 5 5 -2 6 hhcurveto
          13 14 8 17 15 hvcurveto
          13 14 8 15 6 15 rrcurveto
          -30 113 rmoveto
          -16 -7 -14 -16 -12 vhcurveto
          -13 -9 -16 -6 -18 -3 -4 8 -6 5 -8 3 19 40 18 28 20 18 rrcurveto
          21 -10 10 -13 -19 vvcurveto
          -80 -61 rmoveto
          -15 hlineto
          5 13 4 -3 3 -4 3 -6 rlinecurve
          endchar
        </CharString>
        <CharString name="ring">
          -30 245 11 63 12 hstem
          70 11 62 12 vstem
          155 288 -67 callsubr
        </CharString>
        <CharString name="s">
          -40 212 70 rmoveto
          -28 -20 -51 -24 0 vvcurveto
          28 57 -102 25 25 66 19 48 70 34 4 -39 1 -6 6 -3 2 7 13 32 -88 50 -59 -98 -23 -39 35 -50 36 -31 23 -20 6 -17 -14 -22 -21 -6 -59 -2 -24 -2 rrcurveto
          -35 -2 -3 -23 12 -7 26 -13 100 15 14 27 rrcurveto
          1 45 24 19 13 vhcurveto
          29 20 -3 8 -3 -3 rrcurveto
          endchar
        </CharString>
        <CharString name="section">
          202 -39 117 184 9 191 9 hstem
          -4 13 100 7 94 7 54 14 33 15 29 7 vstem
          437 176 rmoveto
          15 -1 15 -3 13 vhcurveto
          -6 26 -13 27 -18 27 -27 39 -16 24 -4 8 rrcurveto
          13 31 7 24 16 vvcurveto
          20 -8 10 -14 -16 -8 -11 -21 -9 2 -13 4 -16 vhcurveto
          -8 -17 -4 -24 -33 vvcurveto
          -9 vlineto
          -14 -23 -19 -24 -25 -27 rrcurveto
          18 -21 -28 9 -35 hhcurveto
          -23 -23 -5 -9 -22 hvcurveto
          -33 -13 -26 -22 -21 -31 rrcurveto
          -21 -31 -10 -34 -35 vvcurveto
          -36 11 -30 24 -22 vhcurveto
          21 -21 30 -13 37 -6 9 -17 18 -13 24 -8 4 -2 4 17 callgsubr
          rrcurveto
          10 5 3 5 2 -1 2 -3 -2 -2 -1 -1 -4 hvcurveto
          -2 -3 -3 0 -1 hhcurveto
          -2 -2 0 2 -4 hvcurveto
          -19 6 -13 11 -10 15 rrcurveto
          -1 6 6 -1 5 hhcurveto
          48 46 17 34 43 hvcurveto
          -2 9 8 -1 8 hhcurveto
          40 33 18 37 25 hvcurveto
          22 32 11 38 42 vvcurveto
          -190 58 rmoveto
          -58 -47 -38 -46 -20 -45 rrcurveto
          -9 9 -5 10 12 vvcurveto
          7 2 7 4 7 vhcurveto
          4 7 2 4 0 25 callgsubr
          -4 -3 -4 -9 -3 vhcurveto
          -3 -8 -2 -7 -5 vvcurveto
          -15 5 -12 11 -10 vhcurveto
          -13 -32 -6 -29 -24 vvcurveto
          -12 1 -11 4 -10 vhcurveto
          -29 2 -25 12 -21 22 rrcurveto
          -20 23 -10 26 29 vvcurveto
          43 16 40 34 36 vhcurveto
          37 34 37 18 43 hhcurveto
          29 25 -9 -18 20 hvcurveto
          74 -33 rmoveto
          -71 -21 -57 -41 -43 vhcurveto
          -23 13 -13 17 -4 23 20 8 16 13 12 18 rrcurveto
          12 18 6 20 21 vvcurveto
          24 -7 20 -15 15 vhcurveto
          21 22 19 22 14 22 1 -7 1 -18 1 -28 rrcurveto
          1 -21 0 -17 -14 vvcurveto
          -66 -175 rmoveto
          -35 -37 -44 -18 -52 hhcurveto
          -4 11 -3 11 14 vvcurveto
          22 7 26 13 28 vhcurveto
          -7 10 14 -4 18 hhcurveto
          12 12 2 4 12 hvcurveto
          5 -22 14 -18 23 -14 rrcurveto
          16 153 rmoveto
          -16 -5 -17 -11 -16 vhcurveto
          -10 -16 -13 -13 -15 -9 rrcurveto
          9 vlineto
          11 2 9 4 6 vhcurveto
          6 11 rlineto
          2 -1 1 -1 callsubr
          0 vhcurveto
          -10 -11 -5 -13 -15 vvcurveto
          -5 0 -4 1 -3 vhcurveto
          -7 -12 -13 -3 -13 hhcurveto
          -14 -12 4 8 -10 hvcurveto
          21 45 39 46 55 47 rrcurveto
          13 -15 6 -16 -19 vvcurveto
          123 hmoveto
          -8 0 -7 -1 -7 vhcurveto
          -1 -29 -11 -29 -19 -30 rrcurveto
          -33 -22 -24 -17 -27 hhcurveto
          49 42 25 49 55 vvcurveto
          23 -3 28 -7 33 vhcurveto
          -7 27 -7 28 -6 27 4 9 4 8 3 9 23 -53 12 -28 1 -4 rrcurveto
          9 -28 5 -30 -35 vvcurveto
          -32 264 rmoveto
          -18 -5 -22 -11 -27 vhcurveto
          -11 24 -6 20 17 vvcurveto
          17 7 8 13 9 4 -6 -13 vhcurveto
          -21 -79 rmoveto
          -10 -22 rlineto
          -2 10 -1 9 8 vvcurveto
          8 1 31 callsubr
          vhcurveto
          2 -8 3 -9 4 -9 rrcurveto
          endchar
        </CharString>
        <CharString name="semicolon">
          -83 139 60 hstem
          152 64 vstem
          216 169 rmoveto
          8 -3 7 -44 callsubr
          -7 -8 vvcurveto
          -8 3 -7 -43 callgsubr
          7 8 vvcurveto
          -88 -145 -51 callsubr
        </CharString>
        <CharString name="seven">
          93 385 23 hstem
          332 369 rmoveto
          22 -4 -36 17 -20 hhcurveto
          -51 -63 -14 -27 -74 hvcurveto
          -10 -4 -13 -1 -5 -9 rrcurveto
          -6 -8 -3 -9 -9 vvcurveto
          -11 7 -12 6 7 vhcurveto
          22 24 86 42 103 8 rrcurveto
          12 1 6 -3 -6 vvcurveto
          -28 -194 -209 -32 -44 vhcurveto
          -27 -35 -26 -22 21 -48 2 -4 15 -22 5 12 -3 19 12 46 26 38 45 68 83 75 57 61 42 44 19 29 -2 18 callgsubr
        </CharString>
        <CharString name="six">
          90 -32 21 239 24 hstem
          18 33 215 37 vstem
          305 429 rmoveto
          6 3 -1 2 -6 hhcurveto
          -3 -3 0 -2 -4 hvcurveto
          -57 -22 -59 -48 -61 -73 rrcurveto
          -64 -77 -32 -68 -58 vvcurveto
          -31 7 -27 14 -23 vhcurveto
          -27 16 23 -13 29 hhcurveto
          42 44 20 40 44 hvcurveto
          44 41 22 41 43 vvcurveto
          27 -8 23 -18 20 vhcurveto
          19 -17 -23 10 -28 hhcurveto
          -13 -17 -7 -13 -24 hvcurveto
          -24 -14 -12 -12 -10 9 callsubr
          1 -2 vhcurveto
          2 -1 rlineto
          2 6 2 5 9 hvcurveto
          22 30 25 11 20 hhcurveto
          34 17 -20 -41 -15 -2 -15 -5 -14 hvcurveto
          -12 -35 -19 -31 -27 -26 rrcurveto
          -28 -28 -30 -14 -30 hhcurveto
          -21 -16 10 18 -11 hvcurveto
          -9 15 -5 19 24 vvcurveto
          9 1 9 1 8 vhcurveto
          10 58 29 59 49 60 43 52 50 45 57 38 8 6 5 5 1 5 rrcurveto
          endchar
        </CharString>
        <CharString name="slash">
          -68 callsubr
        </CharString>
        <CharString name="space">
          -54 endchar
        </CharString>
        <CharString name="sterling">
          144 -84 8 50 8 247 19 289 -20 hstem
          462 10 vstem
          470 486 rmoveto
          -3 16 -8 14 -12 9 rrcurveto
          8 -11 -12 4 -13 hhcurveto
          -65 -56 -97 -195 -46 hvcurveto
          2 -12 -10 1 -9 hhcurveto
          -24 -18 -4 -9 -11 hvcurveto
          -5 callsubr
          -2 1 -4 rrcurveto
          -8 2 2 -4 2 hhcurveto
          0 1 1 3 2 vhcurveto
          7 12 16 3 19 hhcurveto
          8 7 -1 -1 9 hvcurveto
          -15 -62 -8 -36 -3 -9 -12 -42 -14 -32 -14 -21 -26 23 -20 15 -12 9 rrcurveto
          15 -23 -20 7 -18 hhcurveto
          -13 -12 -4 -9 -8 hvcurveto
          -10 -10 -3 -14 4 -17 4 -21 13 -17 22 -13 rrcurveto
          -10 19 18 -5 17 hhcurveto
          19 17 6 12 17 hvcurveto
          13 -8 24 -12 36 -16 35 -15 25 -9 16 -5 rrcurveto
          -8 25 22 -3 20 hhcurveto
          58 26 27 54 -6 hvcurveto
          -1 2 rlineto
          5 -1 -1 2 -2 hhcurveto
          -2 0 -2 -3 hvcurveto
          5 -26 -5 -21 -17 -13 rrcurveto
          -12 -13 -17 -5 -21 hhcurveto
          -12 -12 2 4 -11 hvcurveto
          -18 5 -25 10 -33 18 -33 17 -25 15 -16 13 47 43 34 70 19 97 rrcurveto
          -3 16 13 -1 12 hhcurveto
          13 11 3 4 8 hvcurveto
          1 1 0 3 -1 4 rrcurveto
          8 -1 -2 4 -2 hhcurveto
          -12 -5 rlineto
          -2 -6 -7 -1 -6 hhcurveto
          -9 -11 1 2 -13 hvcurveto
          13 82 5 33 6 27 6 20 rlinecurve
          10 30 12 26 16 22 rrcurveto
          27 21 21 14 22 hhcurveto
          17 10 -10 -20 4 hvcurveto
          8 -41 -17 -51 -42 -60 rrcurveto
          -2 -3 -1 -2 -2 29 callgsubr
          2 callsubr
          hhcurveto
          3 2 2 3 3 hvcurveto
          15 18 14 23 10 28 13 33 5 30 -5 25 rrcurveto
          -322 -486 rmoveto
          -12 -13 -16 -6 -19 hhcurveto
          -4 -4 0 1 -4 hvcurveto
          -14 2 -14 6 -14 11 -16 13 -10 15 -3 16 rrcurveto
          17 -3 5 9 14 hhcurveto
          11 19 -9 -20 27 hvcurveto
          20 -13 19 -15 19 -15 rrcurveto
          endchar
        </CharString>
        <CharString name="summation">
          95 endchar
        </CharString>
        <CharString name="t">
          -71 -4 13 187 15 hstem
          218 233 rmoveto
          7 -62 3 -40 -2 vhcurveto
          49 98 8 17 -33 44 -10 -22 rlinecurve
          -15 -31 -31 -106 0 vvcurveto
          -24 -1 -42 -2 -12 -5 -12 -5 4 -21 5 1 rrcurveto
          2 14 42 7 18 hhcurveto
          2 -39 -95 -44 -8 hvcurveto
          -13 -73 16 -8 37 -2 rrcurveto
          52 -1 91 76 14 vvcurveto
          -1 16 -35 -40 -29 -16 -50 -27 -52 -28 16 85 rrcurveto
          11 58 35 86 0 vvcurveto
          16 5 92 5 5 vvcurveto
          endchar
        </CharString>
        <CharString name="thorn">
          12 501 15 hstem
          135 45 -32 callsubr
          98 294 -25 callsubr
          -94 -271 -68 callgsubr
        </CharString>
        <CharString name="three">
          139 -39 21 181 20 229 -20 hstem
          72 15 215 45 59 32 vstem
          72 292 rmoveto
          -2 -20 16 -1 1 20 rrcurveto
          62 3 107 39 84 hhcurveto
          86 88 -67 -77 -82 hvcurveto
          -52 -49 -110 -19 -69 3 rrcurveto
          -16 1 -7 -4 -8 vvcurveto
          -6 6 -3 11 vhcurveto
          21 1 33 -3 31 -8 rrcurveto
          62 -15 19 -26 -27 vvcurveto
          -104 -262 -33 -21 73 vhcurveto
          -3 10 2 12 11 12 7 9 8 4 8 -1 rrcurveto
          8 4 1 4 3 -4 1 -7 hvcurveto
          -38 -6 -19 -26 3 -26 rrcurveto
          15 -106 333 54 121 vvcurveto
          40 -32 40 -101 5 vhcurveto
          70 12 64 12 54 50 120 113 -201 103 -174 -76 -52 -23 -21 -33 -2 -38 rrcurveto
          endchar
        </CharString>
        <CharString name="threequarters">
          177 101 17 64 -13 callgsubr
          -74 callgsubr
          36 427 -80 callsubr
          304 -150 -34 callgsubr
        </CharString>
        <CharString name="threesuperior">
          0 182 -13 callgsubr
          61 364 -80 callsubr
          endchar
        </CharString>
        <CharString name="tilde">
          85 283 25 hstem
          259 306 -91 callgsubr
        </CharString>
        <CharString name="trademark">
          398 273 37 37 30 8 17 hstem
          12 13 49 11 363 16 2 8 vstem
          333 374 rmoveto
          8 -5 4 -11 -12 -13 -4 -9 -13 vhcurveto
          19 -54 -38 10 -22 hhcurveto
          -25 -22 -7 -13 -17 hvcurveto
          -18 -14 -9 -20 -26 vvcurveto
          -5 0 -5 1 -5 vhcurveto
          -17 -3 -15 -8 -12 -14 rrcurveto
          -13 -14 -6 -16 -17 vvcurveto
          -18 7 -14 14 -11 vhcurveto
          -11 14 16 -6 18 hhcurveto
          36 32 12 24 30 hvcurveto
          26 22 20 28 15 36 14 33 14 24 13 14 rrcurveto
          -4 12 10 -2 8 hhcurveto
          15 7 4 8 hvcurveto
          -58 -4 rmoveto
          -14 -10 -15 -18 -17 -26 -14 -20 -13 -21 -13 -21 rrcurveto
          -49 -31 -34 -25 -39 hhcurveto
          -40 -20 17 33 16 5 15 9 13 hvcurveto
          10 14 13 10 15 5 rrcurveto
          -20 6 14 -10 20 hhcurveto
          5 5 1 1 5 hvcurveto
          -1 1 -2 -3 vvcurveto
          -27 -16 -16 -32 -4 vhcurveto
          -3 -1 callsubr
          -4 callgsubr
          15 12 5 9 11 hvcurveto
          10 10 6 12 13 3 -1 4 3 vvcurveto
          9 3 10 7 9 11 rrcurveto
          9 11 5 10 9 vvcurveto
          1 0 0 -1 -2 0 -1 -1 -9 -5 -9 -8 -10 vhcurveto
          -9 -9 -9 -6 -9 -4 -5 20 -15 10 -24 -1 rrcurveto
          -5 hlineto
          2 -1 3 3 vvcurveto
          23 10 19 18 14 vhcurveto
          12 17 20 7 24 hhcurveto
          23 33 -7 -15 45 hvcurveto
          358 20 rmoveto
          12 -11 6 -21 -40 -54 -39 -78 -66 vhcurveto
          -34 -41 -29 -28 -25 -14 15 12 14 24 11 35 14 41 12 26 9 11 rrcurveto
          -6 16 11 -4 6 hhcurveto
          9 4 4 8 12 -9 6 -18 -11 -11 -3 -7 -12 hvcurveto
          23 -54 -38 12 -20 hhcurveto
          -7 -6 -1 -2 -6 hvcurveto
          -9 -3 -4 -4 -4 vvcurveto
          -4 1 -3 2 1 27 callsubr
          vhcurveto
          9 4 9 4 14 hhcurveto
          27 36 -10 -21 46 hvcurveto
          -18 -11 -23 -23 -29 -34 -33 -38 -23 -26 -14 -12 rrcurveto
          -24 -28 -27 -12 -27 hhcurveto
          -5 -4 -5 callsubr
          hvcurveto
          -1 1 3 -1 6 hhcurveto
          49 49 35 68 49 hvcurveto
          27 37 26 27 26 15 9 -4 rcurveline
          -8 -9 -9 -13 -9 -17 -21 -42 rcurveline
          -7 -12 -5 -12 -6 -12 -9 -18 -7 -11 -4 -3 -21 -11 rcurveline
          -1 4 -1 5 19 21 11 21 24 vhcurveto
          9 8 17 18 24 27 48 53 42 35 36 17 rrcurveto
          8 16 14 4 14 hhcurveto
          11 5 -4 -8 -4 -1 -4 -3 -3 hvcurveto
          -3 -4 -1 -1 0 vvcurveto
          -1 0 0 1 3 -22 callsubr
          vhcurveto
          2 5 2 4 4 vvcurveto
          -78 -16 rmoveto
          -4 -1 -12 -12 -21 -22 -18 -19 -12 -14 -6 -8 -8 -11 -7 -9 -4 -9 rrcurveto
          -10 -20 -5 -20 -20 vvcurveto
          -17 5 -8 10 3 7 3 5 9 vhcurveto
          9 5 5 4 3 vvcurveto
          0 0 1 -1 -1 0 -5 callsubr
          vhcurveto
          -12 -8 rlineto
          -4 -5 -4 -2 -3 hhcurveto
          -3 -2 3 7 14 7 22 14 31 hvcurveto
          11 24 12 21 12 18 8 13 10 12 10 11 rrcurveto
          -417 -86 rmoveto
          -2 -4 -5 -1 -4 hhcurveto
          -16 -11 10 19 -4 hvcurveto
          1 -32 callgsubr
          hhcurveto
          21 13 -9 -18 4 hvcurveto
          335 81 rmoveto
          -5 -3 -3 -5 -4 -9 3 5 -15 vhcurveto
          8 9 rlineto
          -3 -4 -2 -6 -5 hvcurveto
          -8 4 rlineto
          6 11 9 3 8 hhcurveto
          13 7 -5 -9 hvcurveto
          -136 14 rmoveto
          -6 -6 -3 -13 -6 -9 2 4 -11 vhcurveto
          9 10 10 5 10 hhcurveto
          10 5 -4 -7 hvcurveto
          endchar
        </CharString>
        <CharString name="two">
          139 37 18 335 17 hstem
          301 8 89 22 vstem
          285 -33 rmoveto
          15 5 8 12 1 16 rrcurveto
          36 2 -63 19 -125 hhcurveto
          8 8 30 22 52 34 28 18 29 16 27 18 37 23 27 23 20 22 rrcurveto
          26 29 13 31 32 vvcurveto
          23 -7 18 -13 14 vhcurveto
          14 -14 -19 7 -24 hhcurveto
          -97 -84 -65 -87 -18 hvcurveto
          10 callsubr
          -2 9 callsubr
          2 4 3 3 6 2 vhcurveto
          69 21 108 68 67 hhcurveto
          31 16 -13 -27 -25 -14 -30 -27 -34 hvcurveto
          -35 -44 -52 -45 -69 -46 -62 -41 -52 -27 -42 -14 rrcurveto
          -13 -12 -5 -10 -12 hvcurveto
          -12 -11 -5 -9 -9 vvcurveto
          -7 4 -4 10 6 8 2 4 9 vhcurveto
          73 26 56 15 38 1 rrcurveto
          21 24 -4 -8 24 hvcurveto
          24 -8 13 -9 -9 vvcurveto
          -7 -7 -6 -12 -6 vhcurveto
          -4 -2 -3 -3 -2 29 callgsubr
          -1 3 -2 vhcurveto
          2 -1 2 0 2 1 rrcurveto
          endchar
        </CharString>
        <CharString name="twosuperior">
          0 227 11 188 10 hstem
          -7 178 50 12 vstem
          158 189 rmoveto
          8 3 5 6 9 vvcurveto
          21 2 -35 10 -71 hhcurveto
          5 4 16 13 30 19 15 10 16 9 16 10 20 13 16 13 11 12 rrcurveto
          14 17 7 17 18 vvcurveto
          12 -3 10 -8 9 vhcurveto
          8 -8 -10 4 -13 hhcurveto
          -22 -23 -9 -18 -24 hvcurveto
          -25 -19 -14 -19 -4 -21 rrcurveto
          -4 0 -2 11 callsubr
          2 3 1 vhcurveto
          9 28 24 23 40 17 rrcurveto
          6 15 12 24 callsubr
          -8 -17 -15 -20 hvcurveto
          -19 -24 -29 -25 -39 -26 -35 -23 -29 -15 -23 -8 rrcurveto
          -8 -7 -3 -6 -6 hvcurveto
          -6 -5 -4 -6 -5 vvcurveto
          -4 3 -2 5 3 5 1 2 5 vhcurveto
          15 41 31 8 21 hhcurveto
          13 1 13 -2 13 -5 rrcurveto
          14 -4 7 -5 -5 vvcurveto
          -4 -4 -4 -6 -3 vhcurveto
          10 callsubr
          -2 -1 vvcurveto
          -4 1 -1 4 2 vhcurveto
          endchar
        </CharString>
        <CharString name="u">
          -84 callsubr
          endchar
        </CharString>
        <CharString name="uacute">
          -84 callsubr
          -49 251 -95 callsubr
        </CharString>
        <CharString name="ucircumflex">
          -84 callsubr
          -69 191 -96 callgsubr
        </CharString>
        <CharString name="udieresis">
          43 -7 15 215 15 17 44 hstemhm
          139 -5 callgsubr
          hintmask 11000000
          -87 callsubr
          hintmask 00111000
          -71 210 -90 callsubr
        </CharString>
        <CharString name="ugrave">
          -84 callsubr
          -221 246 -90 callgsubr
        </CharString>
        <CharString name="underscore">
          522 -21 -20 hstem
          714 -48 -33 callgsubr
          -167 1 -21 hhcurveto
          -21 -385 0 -50 callsubr
          32 1 395 1 23 3 20 3 160 4 35 1 rrcurveto
          endchar
        </CharString>
        <CharString name="v">
          -1 -3 13 182 13 hstem
          52 35 46 26 vstem
          280 197 rmoveto
          0 -18 -19 -31 18 vhcurveto
          0 14 80 -39 -6 vhcurveto
          -15 -3 -7 -41 31 -35 -3 -25 -27 -46 -31 -38 -33 -39 -37 -30 -16 10 rrcurveto
          -21 12 54 152 41 vvcurveto
          9 -44 7 -6 -10 vhcurveto
          -12 -18 -6 -13 6 -2 6 -2 6 -13 2 -8 7 -29 -74 -138 53 -11 33 -8 41 20 52 57 rrcurveto
          37 40 26 55 18 vvcurveto
          13 -8 18 -2 14 4 12 4 6 15 -11 2 rrcurveto
          endchar
        </CharString>
        <CharString name="w">
          169 8 callsubr
          459 192 rmoveto
          -35 -5 -52 4 -9 21 -7 19 -35 -7 -4 -9 -8 -19 9 -11 18 -26 4 -22 -2 -25 -6 -23 -19 -67 -51 -40 -24 29 -23 30 16 104 4 41 2 20 -51 -4 -2 -23 rrcurveto
          1 -7 2 -12 -4 -10 -43 -96 -54 -58 -21 10 -21 11 43 140 47 52 16 19 -48 4 -19 -29 -22 -33 -80 -165 59 -19 65 -21 61 116 23 50 -1 -4 0 -24 2 -23 rrcurveto
          11 -148 121 49 30 89 12 32 7 24 -8 50 15 -2 11 -3 20 1 26 2 46 20 -22 -2 rrcurveto
          endchar
        </CharString>
        <CharString name="x">
          -26 188 13 hstem
          -1 95 vstem
          274 56 rmoveto
          0 -4 6 -3 -2 vhcurveto
          -3 -4 -19 -27 -26 -15 -62 -37 -11 110 -6 35 rrcurveto
          2 77 69 14 16 hvcurveto
          43 42 -13 17 -4 -2 -3 -1 -3 -7 -13 -19 -22 -33 -73 -60 -10 -6 rrcurveto
          0 -10 73 -10 21 vhcurveto
          -7 15 -35 -19 -19 -17 -13 -11 8 -11 9 9 6 6 7 6 7 -1 rrcurveto
          14 -6 12 -92 0 vvcurveto
          -33 -25 -74 -46 -1 -44 rrcurveto
          -15 10 0 0 vhcurveto
          13 4 -34 4 80 73 rrcurveto
          8 7 34 29 0 vvcurveto
          1 -25 4 -68 43 -14 58 -19 57 80 2 6 rrcurveto
          endchar
        </CharString>
        <CharString name="y">
          -76 callgsubr
          endchar
        </CharString>
        <CharString name="yacute">
          -76 callgsubr
          47 366 -95 callsubr
        </CharString>
        <CharString name="ydieresis">
          4 199 13 75 44 hstemhm
          56 44 -23 26 39 44 hintmask 10010000
          -86 callsubr
          hintmask 01101000
          50 340 -90 callsubr
        </CharString>
        <CharString name="yen">
          243 -29 9 147 15 62 15 148 9 25 9 hstem
          48 8 420 9 vstem
          485 365 rmoveto
          12 -4 11 -9 9 vhcurveto
          9 -8 -11 4 -12 hhcurveto
          -38 -52 -49 -99 -63 hvcurveto
          -12 -19 -9 -16 -7 -10 rrcurveto
          -4 -7 -3 -3 -2 vvcurveto
          -13 -20 -2 27 -5 26 -8 25 rlinecurve
          -9 29 -14 25 -17 20 rrcurveto
          26 -22 -25 13 -26 hhcurveto
          -19 -16 -9 -19 -12 hvcurveto
          -12 -17 -5 -18 -20 vvcurveto
          -20 6 -18 11 -16 vhcurveto
          -1 1 2 callsubr
          hhcurveto
          3 1 2 3 -1 -3 5 -5 13 hvcurveto
          -6 12 -3 12 10 vvcurveto
          17 5 16 10 15 vhcurveto
          18 12 13 8 16 hhcurveto
          26 22 -19 -38 20 hvcurveto
          14 -27 10 -30 5 -34 rrcurveto
          -82 hlineto
          -1 -3 -1 -4 -3 hvcurveto
          -3 -3 -2 -3 -2 vvcurveto
          -1 1 0 1 vhcurveto
          94 hlineto
          3 -19 2 -20 -19 vvcurveto
          -3 -5 rlineto
          -152 hlineto
          -2 -2 -2 -3 -3 hvcurveto
          -3 -3 -2 -3 -2 vvcurveto
          -1 -4 callgsubr
          vhcurveto
          152 hlineto
          -28 -41 -23 -30 -17 -20 rrcurveto
          -38 -35 -30 -19 -27 hhcurveto
          -7 -3 -1 -3 -3 5 -1 8 37 37 18 37 37 hvcurveto
          23 23 27 33 30 45 rrcurveto
          66 hlineto
          3 2 2 3 3 hvcurveto
          3 4 11 callsubr
          vvcurveto
          1 0 1 -2 vhcurveto
          -67 hlineto
          16 28 12 20 7 15 rrcurveto
          67 hlineto
          2 3 -27 callgsubr
          hvcurveto
          3 16 callsubr
          2 vvcurveto
          2 0 0 -1 vhcurveto
          -70 hlineto
          122 69 50 60 33 hhcurveto
          10 8 -3 -8 7 hvcurveto
          7 -7 4 -8 -10 -5 callsubr
          -2 -1 -1 -2 -1 vvcurveto
          -3 2 -1 3 4 1 4 8 vhcurveto
          endchar
        </CharString>
        <CharString name="z">
          -22 -16 -21 41 30 -30 234 hstemhm
          hintmask 10100000
          255 227 rmoveto
          6 2 -10 5 -8 hhcurveto
          -50 -58 6 -10 -49 hvcurveto
          -12 -9 -14 -22 -8 -20 rrcurveto
          -17 27 32 4 3 vhcurveto
          32 29 48 -7 39 -3 -36 -40 -135 -123 -17 -36 -2 -3 -1 -5 1 -3 rrcurveto
          -5 3 -4 4 -3 vhcurveto
          7 hlineto
          19 20 4 2 19 hvcurveto
          2 32 19 0 32 hhcurveto
          8 35 0 -11 2 hvcurveto
          1 -11 -21 -10 1 -8 rrcurveto
          -2 1 -1 3 vhcurveto
          hintmask 11000000
          11 71 71 -85 hhcurveto
          -50 -42 -7 -6 -49 hvcurveto
          26 50 90 75 41 35 18 3 24 22 7 21 rrcurveto
          endchar
        </CharString>
        <CharString name="zero">
          309 -29 20 356 18 27 15 hstem
          3 33 477 33 vstem
          460 100 rmoveto
          27 25 21 27 16 30 rrcurveto
          15 29 8 28 26 vvcurveto
          31 -11 25 -23 18 vhcurveto
          -24 19 -37 9 -48 -2 -49 -1 -53 -16 -55 -31 -38 -20 -21 -17 -3 -12 rrcurveto
          -8 -2 3 -3 8 hhcurveto
          3 2 1 2 1 hvcurveto
          60 52 67 29 73 6 rrcurveto
          76 6 37 -24 -53 vvcurveto
          -25 -8 -28 -17 -30 vhcurveto
          -17 -30 -22 -27 -26 -24 -40 -36 -42 -29 -44 -21 rrcurveto
          -23 -48 -45 -12 -43 hhcurveto
          -42 -32 9 20 -22 hvcurveto
          -19 18 -9 24 32 vvcurveto
          32 9 34 20 37 vhcurveto
          19 37 26 33 32 28 30 26 40 23 49 17 45 17 46 10 46 4 rrcurveto
          8 1 4 2 5 vvcurveto
          4 -4 3 -6 vhcurveto
          1 -7 -7 0 -8 hhcurveto
          -43 -50 -12 -24 -59 hvcurveto
          -55 -22 -42 -24 -31 -26 -46 -38 -29 -47 -15 -56 rrcurveto
          -4 -16 -2 -16 -15 vvcurveto
          -42 15 -34 29 -25 vhcurveto
          30 -26 38 -13 46 -1 47 -1 52 12 56 25 55 24 48 31 41 38 rrcurveto
          endchar
        </CharString>
      <CharString index="0">
        235 140 -86 callgsubr
        60 342 -97 callsubr
        195 28 rmoveto
        -5 2 -4 -4 4 -3 45 -28 -12 -9 -46 10 -40 10 -45 8 -45 5 -72 callgsubr
        rrcurveto
        -102 callgsubr
        87 -18 -25 50 -38 15 rrcurveto
        return
      </CharString>
      <CharString index="1">
        127 559 rmoveto
        6 -2 1 7 -5 2 -84 34 -108 -81 20 -87 3 -13 6 -11 7 -10 -13 -27 -6 -30 6 -30 5 -28 22 -25 41 -21 8 -4 7 8 -7 3 -67 25 6 64 18 38 2 4 rcurveline
        22 -19 30 -14 36 -8 -111 -168 99 -166 153 4 rrcurveto
        -34 12 29 -20 38 hhcurveto
        71 70 91 86 53 hvcurveto
        27 44 23 43 15 27 -3 -22 -13 -81 3 -70 3 -101 67 -27 52 55 22 23 10 21 10 28 2 5 -10 3 -2 -5 -10 -26 -11 -18 -19 -19 rrcurveto
        -16 -17 -56 -35 133 vvcurveto
        160 83 205 28 66 vhcurveto
        5 28 -58 6 -4 -24 -55 -168 -70 -162 -41 -68 rrcurveto
        -84 -50 -63 -77 -60 hhcurveto
        -26 -16 12 25 -6 hvcurveto
        22 4 24 8 24 12 99 48 24 120 -47 28 -5 3 -3 -6 5 -3 34 -20 -18 -109 -102 -50 -20 -10 -20 -7 -20 -4 -13 107 104 119 30 115 36 13 32 16 21 18 rrcurveto
        84 71 -91 47 -57 -4 -18 -2 -19 -3 -18 -4 -88 76 -215 -67 -66 -118 -5 8 -4 9 -3 10 -19 82 103 77 78 -32 rrcurveto
        -22 -230 rmoveto
        3 3 0 -1 3 hvcurveto
        57 -8 85 9 76 20 -38 -106 -95 -113 21 -110 1 -4 rcurveline
        -145 -7 -88 152 117 168 rrcurveto
        -107 53 rmoveto
        58 108 188 82 74 -66 -77 -24 -75 -47 -52 -60 -10 -11 -8 -12 -8 -11 -31 7 -34 13 -25 21 rrcurveto
        112 -45 rmoveto
        20 25 51 61 72 50 73 25 rlinecurve
        9 -12 7 -15 3 -18 5 -31 -4 -32 -11 -31 -65 -19 -75 -10 -55 3 -9 1 -10 1 -11 2 rrcurveto
        268 35 rmoveto
        6 26 2 25 -5 25 -4 24 -10 19 -13 15 17 5 16 2 17 2 59 4 68 -43 -72 -61 -18 -16 -29 -14 -34 -13 rrcurveto
        return
      </CharString>
      <CharString index="2">
        125 420 rmoveto
        -84 callgsubr
        -62 73 -78 32 -64 -32 -57 -27 -19 -58 2 -55 rrcurveto
        230 -101 -99 callgsubr
        54 27 67 -28 56 -61 rrcurveto
        -93 callgsubr
        return
      </CharString>
      <CharString index="3">
        -31 callgsubr
        hstem
        -107 callgsubr
        return
      </CharString>
      <CharString index="4">
        -107 callsubr
        57 1 -74 callsubr
        return
      </CharString>
      <CharString index="5">
        36 109 23 123 11 75 rrcurveto
        24 40 -1 18 hhcurveto
        26 8 -8 14 -3 hvcurveto
        -4 15 -60 1 -45 2 rrcurveto
        -2 45 -38 -46 0 vvcurveto
        -27 -2 -27 2 -24 -1 -69 169 -248 -69 36 -272 20 -148 107 -61 98 7 -14 -38 -16 -36 -19 -33 rrcurveto
        1 -3 -4 0 -3 hhcurveto
        -41 -131 -1 -63 -22 25 -18 16 -11 hvcurveto
        10 -6 15 3 -9 6 rrcurveto
        -11 7 -19 20 14 vvcurveto
        40 98 6 43 1 vhcurveto
        -8 -13 -9 -12 -9 -11 -12 3 -8 6 -5 4 -12 8 1 9 -6 -1 -15 -1 19 -25 30 -13 -21 -25 -23 -19 -24 -13 -31 -17 -39 -8 -19 25 -3 4 -6 11 callgsubr
        rrcurveto
        18 -28 45 9 32 16 28 14 25 21 24 27 17 -6 19 -1 16 9 19 10 17 callsubr
        20 48 -3 48 -7 42 -8 return
      </CharString>
      <CharString index="6">
        rmoveto
        -56 -1 -60 -5 -58 -8 rrcurveto
        -15 32 -9 38 41 vvcurveto
        368 398 -72 -159 -323 vhcurveto
        -11 -23 -14 -24 -16 -23 rrcurveto
        -176 -37 rmoveto
        19 -33 27 -27 29 -17 -74 -64 -87 -38 -84 22 -5 1 -2 32 callsubr
        88 -24 92 39 77 67 23 -9 rcurveline
        -70 -63 -82 -52 -96 12 -44 5 -56 26 7 51 6 41 45 25 38 13 35 11 53 12 56 11 rrcurveto
        400 227 rmoveto
        -8 -54 -9 -84 -2 -45 -43 -2 -51 0 -15 1 48 66 46 58 34 60 rrcurveto
        -235 -205 rmoveto
        -24 -33 -27 -31 -30 -27 -28 15 -24 25 -19 31 53 9 55 7 44 4 rrcurveto
        return
      </CharString>
      <CharString index="7">
        -100 callsubr
        -76 callsubr
        return
      </CharString>
      <CharString index="8">
        rmoveto
        1 5 -7 3 -2 -5 -36 -90 -101 32 -45 64 rrcurveto
        54 53 63 39 53 hhcurveto
        5 8 -2 8 6 -7 1 -5 -64 -66 -37 -49 -51 hvcurveto
        -3 5 -6 14 -4 15 -3 16 rlinecurve
        55 56 77 27 82 hhcurveto
        14 13 -1 -3 13 hvcurveto
        43 -51 34 -70 16 -78 6 -27 3 -25 1 -25 -59 -115 -135 -78 -105 -5 -12 -1 -11 0 -10 2 -50 42 -32 64 -11 67 16 50 32 51 39 43 49 -63 108 -38 40 100 rrcurveto
        25 172 rmoveto
        1 -9 -9 1 -9 hhcurveto
        -76 -79 -21 -45 -62 hvcurveto
        -2 51 18 50 51 25 return
      </CharString>
      <CharString index="9">
        rmoveto
        4 8 -2 6 -8 4 rrcurveto
        1 -45 callgsubr
        -8 -9 -3 -7 -10 hvcurveto
        -31 -23 -27 -21 -24 -17 -75 callsubr
        39 18 21 12 3 5 rrcurveto
        return
      </CharString>
      <CharString index="10">
        67 rmoveto
        0 -4 -61 callgsubr
        -38 -21 -14 15 -8 41 -3 20 1 29 2 27 1 33 -16 -9 -71 callgsubr
        rrcurveto
        -53 callgsubr
        -73 callsubr
        -1 -4 -87 41 -14 vhcurveto
        56 -18 66 79 3 6 rrcurveto
        return
      </CharString>
      <CharString index="11">
        -100 callgsubr
        endchar
      </CharString>
      <CharString index="12">
        324 -97 callgsubr
        return
      </CharString>
      <CharString index="13">
        -43 -57 -52 -21 -48 5 43 36 39 38 32 35 rrcurveto
        31 49 -2 3 45 hvcurveto
        -2 -40 1 -57 5 -33 22 -138 126 40 35 102 4 12 -9 4 -5 -12 -35 -79 -67 -36 -25 105 -9 38 1 51 1 48 25 4 23 7 17 10 10 6 6 16 -18 -11 rrcurveto
        -9 -6 -25 -4 -29 -2 6 121 23 135 -1 51 rrcurveto
        return
      </CharString>
      <CharString index="14">
        -163 -522 rmoveto
        102 5 103 58 66 84 rrcurveto
        -102 -22 -69 -66 -83 hhcurveto
        -36 -33 8 13 -28 hvcurveto
        201 500 rmoveto
        62 -21 44 -53 -76 vvcurveto
        -31 -5 -30 -10 -27 vhcurveto
        -2 15 -2 15 -3 16 -16 76 -31 66 -37 50 rrcurveto
        -273 -129 rmoveto
        -35 -36 -28 -42 -16 -40 rrcurveto
        12 -1 12 1 12 vhcurveto
        3 24 8 25 10 20 11 23 15 21 16 18 3 -14 4 -13 4 -12 rrcurveto
        return
      </CharString>
      <CharString index="15">
        -53 -74 -53 -72 -15 -15 rrcurveto
        -45 hlineto
        14 28 callsubr
        11 22 175 357 -438 50 -1 -375 rrcurveto
        -41 10 -38 15 -34 vhcurveto
        -44 -7 -43 -9 -38 -13 -56 -18 -45 -41 -8 -53 -8 -59 42 -36 54 -6 30 -4 36 5 36 12 60 19 65 43 61 49 52 -9 58 21 49 65 return
      </CharString>
      <CharString index="16">
        -98 callsubr
        endchar
      </CharString>
      <CharString index="17">
        -94 callsubr
        endchar
      </CharString>
      <CharString index="18">
        -89 callsubr
        -62 109 -67 callgsubr
        return
      </CharString>
      <CharString index="19">
        100 62 85 162 59 164 18 3 18 2 18 1 22 1 5 13 -33 -3 -44 -3 rcurveline
        42 117 27 117 10 81 rrcurveto
        0 54 -1 27 26 8 -8 14 -3 vhcurveto
        -3 15 -61 1 -44 2 rrcurveto
        -2 2 10 5 -2 hvcurveto
        15 -7 -30 -31 -1 hhcurveto
        -20 -2 -45 -3 -59 -6 -32 -9 rlinecurve
        -19 -6 -17 -6 -16 -7 -50 28 -53 -15 -32 -21 -121 -80 42 -213 148 -6 19 -1 2 6 -20 1 -136 5 -35 212 105 69 29 20 44 12 44 -24 -149 -76 24 -132 187 -35 rrcurveto
        11 -2 11 13 -11 1 -117 9 -91 133 157 74 9 -8 9 -10 9 -11 49 -66 6 -97 -22 -100 rrcurveto
        50 -5 rmoveto
        -53 -150 -74 -148 -87 -61 -210 -144 -115 128 187 199 return
      </CharString>
      <CharString index="20">
        hstem
        -107 callsubr
        return
      </CharString>
      <CharString index="21">
        rmoveto
        -91 -9 -100 52 -21 148 -36 251 215 86 63 -166 -222 -24 -78 -134 228 -68 9 -3 10 10 -9 2 -168 30 20 143 217 22 3 -14 3 -15 2 -17 8 -80 -17 -111 -36 -103 rrcurveto
        return
      </CharString>
      <CharString index="22">
        180 86 -56 callgsubr
        -45 -38 -7 34 6 40 6 41 4 -52 callgsubr
        1 15 -42 -1 -2 -10 -3 -14 -25 -80 -5 -40 -9 -91 38 -8 59 43 28 21 28 29 6 10 rrcurveto
        return
      </CharString>
      <CharString index="23">
        -11 -9 -11 -10 -10 -11 -32 -33 -23 -43 1 -46 rrcurveto
        -1 vlineto
        -33 3 -32 8 -30 vhcurveto
        -29 -108 37 -94 139 -2 rrcurveto
        -18 35 39 -10 42 hhcurveto
        95 80 81 121 19 hvcurveto
        32 49 19 57 58 vvcurveto
        97 -69 66 -86 18 vhcurveto
        return
      </CharString>
      <CharString index="24">
        -22 callgsubr
        hstem
        -92 callsubr
        return
      </CharString>
      <CharString index="25">
        -1 -31 callsubr
        vvcurveto
        -2 3 -1 5 1 vhcurveto
        6 5 -27 callgsubr
        hvcurveto
        return
      </CharString>
      <CharString index="26">
        rmoveto
        -50 1 -53 25 -28 43 7 21 14 21 22 18 5 4 -10 -1 -3 -2 -18 -12 -15 -16 -10 -17 -114 234 273 143 -1 -307 rrcurveto
        -36 -6 -58 -13 -61 vhcurveto
        242 121 rmoveto
        -31 -71 -58 -68 -91 -25 17 50 rcurveline
        39 18 36 34 27 55 3 4 -8 4 -2 -5 -24 -49 -33 -32 -35 -18 9 29 9 27 10 27 135 366 73 -179 -76 -167 rrcurveto
        -252 -296 rmoveto
        0 -37 -86 -101 12 vhcurveto
        return
      </CharString>
      <CharString index="27">
        -102 1 22 hstem
        29 35 vstem
        -85 callgsubr
        return
      </CharString>
      <CharString index="28">
        102 147 22 244 19 hstem
        21 35 265 22 vstem
        319 320 rmoveto
        5 2 5 7 6 12 rrcurveto
        5 11 3 12 13 vvcurveto
        37 -24 18 -47 -46 -52 -23 -47 -58 vhcurveto
        -60 -48 -32 -46 -3 -44 rrcurveto
        -51 -3 18 -26 39 hhcurveto
        22 26 8 14 30 hvcurveto
        25 12 23 15 22 16 -61 -119 -31 -85 -2 -51 rrcurveto
        -8 3 -4 5 6 4 4 7 2 vhcurveto
        2 6 1 6 1 5 9 45 35 73 64 101 rrcurveto
        36 56 18 30 2 vvcurveto
        4 -3 4 -6 7 vhcurveto
        6 -6 -6 3 -5 hhcurveto
        -2 -3 -1 -2 -1 hvcurveto
        -6 -5 -12 -14 -19 -21 -15 -17 -13 -13 -11 -8 -16 -12 -19 -11 -22 -11 rrcurveto
        -13 -26 -21 -7 -16 hhcurveto
        -21 -10 12 23 40 26 45 52 50 hvcurveto
        49 52 46 25 41 hhcurveto
        32 16 -12 -25 -8 -2 -9 -3 -11 hvcurveto
        -4 -13 -1 -7 1 9 callsubr
        1 vhcurveto
        2 -3 rlineto
        2 vlineto
        endchar
      </CharString>
      <CharString index="29">
        -39 vvcurveto
        7 -3 27 -39 26 vvcurveto
        5 vlineto
        6 40 16 37 23 34 18 -37 28 -39 7 -9 24 -30 10 0 18 -7 22 -8 48 11 -13 2 -48 11 -72 69 -30 54 20 26 22 24 20 20 54 51 51 23 10 -18 rrcurveto
        3 -5 8 5 -3 5 -16 29 -71 -10 -51 -49 -20 -20 -21 -27 -18 -30 rrcurveto
        1 vlineto
        -11 32 -8 -19 5 -21 1 -3 1 -5 2 -4 -13 -23 -10 -25 -8 -25 17 149 return
      </CharString>
      <CharString index="30">
        -34 -22 -27 -40 -5 -10 -5 -12 12 -3 5 12 3 7 30 39 23 15 63 42 -29 -126 -4 -26 -11 -14 -16 -20 -20 -28 return
      </CharString>
      <CharString index="31">
        4 199 13 hstem
        77 26 vstem
        -86 callsubr
        return
      </CharString>
      <CharString index="32">
        rmoveto
        18 -2 -9 10 -14 hhcurveto
        -13 -10 -3 -7 -8 hvcurveto
        -38 callgsubr
        12 -2 vhcurveto
        -21 -34 -17 -24 -13 -13 rrcurveto
        -8 -9 -5 -7 8 callgsubr
        return
      </CharString>
      <CharString index="33">
        405 229 rmoveto
        8 vlineto
        16 -5 8 -8 vhcurveto
        -20 -25 -26 -25 -35 -26 -30 -22 -30 -21 -31 -21 -20 -12 rcurveline
        -10 -7 -5 -6 -3 vvcurveto
        -6 3 -3 5 vhcurveto
        11 33 35 6 37 hhcurveto
        3 2 -1 -1 1 hvcurveto
        -27 -58 rlineto
        -14 -29 -7 -18 -6 vvcurveto
        -6 2 -3 5 vhcurveto
        3 3 3 5 2 6 16 32 rcurveline
        17 37 13 24 6 13 rrcurveto
        12 hlineto
        1 7 0 -2 10 hvcurveto
        11 -2 rlineto
        3 hlineto
        1 1 0 1 hvcurveto
        -1 vlineto
        4 2 2 4 3 -5 3 -11 2 hvcurveto
        -7 2 -7 1 -7 1 rrcurveto
        -3 -14 callgsubr
        0 vvcurveto
        3 11 19 22 34 vhcurveto
        21 35 13 19 5 4 rrcurveto
        10 215 -18 callsubr
        return
      </CharString>
      <CharString index="34">
        -10 callgsubr
        285 486 -15 callgsubr
        -41 -73 -25 -82 rrcurveto
        -35 -115 -25 -141 -78 callgsubr
        72 273 -33 callsubr
        return
      </CharString>
      <CharString index="35">
        25 39 22 50 19 54 35 22 27 34 11 45 1 5 -7 4 -1 -5 -7 -37 -23 -31 -31 -22 return
      </CharString>
      <CharString index="36">
        -58 callsubr
        19 49 18 43 43 60 40 34 return
      </CharString>
      <CharString index="37">
        rmoveto
        76 37 87 36 71 28 -14 -46 -17 -44 -23 -35 -58 -91 -107 -80 -98 12 -38 5 -41 19 -26 31 13 21 23 20 22 16 30 20 41 23 47 22 7 -28 -2 -31 -16 -28 rrcurveto
        -3 -5 7 -4 3 5 18 32 5 34 -7 31 rrcurveto
        return
      </CharString>
      <CharString index="38">
        rmoveto
        2 -79 -88 -88 -84 -29 -134 -46 -80 94 100 87 rrcurveto
        40 46 94 29 79 hhcurveto
        -3 -15 -7 -17 -11 -18 -32 -52 -73 -33 -72 1 -18 1 -7 -9 23 -1 72 -3 73 31 42 63 13 18 7 18 3 16 20 -1 18 -3 17 -4 rrcurveto
        -474 -230 rmoveto
        -12 55 8 64 32 62 93 179 179 11 78 -31 61 -23 27 -36 6 -37 -16 5 -17 3 -18 1 4 117 -247 11 -127 -229 -28 -51 -16 -52 -7 -49 rrcurveto
        return
      </CharString>
      <CharString index="39">
        1 vvcurveto
        1 -18 -7 -5 -17 vhcurveto
        -2 -6 10 -2 4 -2 rrcurveto
        0 -95 -263 -22 -105 vhcurveto
        -10 -48 20 -52 34 -5 29 -5 -5 9 -13 3 -38 6 15 59 3 24 10 86 101 284 2 -1 rrcurveto
        25 -11 25 -60 -26 vvcurveto
        -1 -50 -38 -9 -11 vhcurveto
        -27 -33 -13 -55 54 13 43 11 34 39 3 75 rrcurveto
        1 20 12 22 13 vhcurveto
        -77 -40 rmoveto
        2 -8 -1 -30 -14 -27 -20 -37 -47 0 27 45 10 16 29 29 14 18 callgsubr
      </CharString>
      <CharString index="40">
        rmoveto
        -2 -8 -6 -14 -7 -14 rrcurveto
        -29 -20 -1 -1 -37 hvcurveto
        13 25 17 18 13 12 25 25 47 19 -14 -61 rrcurveto
        return
      </CharString>
      <CharString index="41">
        -75 callgsubr
        -2 2 1 vhcurveto
        38 10 75 85 -3 32 rrcurveto
        return
      </CharString>
      <CharString index="42">
        -140 25 -6 -169 147 -26 69 -13 50 30 38 58 rrcurveto
        0 139 -103 102 -11 vhcurveto
        45 -5 69 13 21 57 4 12 -9 -1 -4 -10 -14 -38 -45 -5 -28 3 rrcurveto
        -113 12 -157 95 0 vvcurveto
        return
      </CharString>
      <CharString index="43">
        -9 -3 -7 -6 -6 vhcurveto
        -6 -6 -8 -3 -9 hhcurveto
        -8 -7 3 6 -6 hvcurveto
        -6 6 -3 7 9 vvcurveto
        8 3 8 6 6 vhcurveto
        6 6 7 3 8 -29 callsubr
        -14 callsubr
        endchar
      </CharString>
      <CharString index="44">
        rmoveto
        8 -3 8 -44 callsubr
        -14 callsubr
        -8 3 -8 -43 callgsubr
        8 8 vvcurveto
        return
      </CharString>
      <CharString index="45">
        282 485 rmoveto
        -30 callsubr
        -24 -25 2 -11 14 3 -22 -102 19 -32 33 -8 -37 callgsubr
        rrcurveto
        -25 18 21 92 15 53 -15 callsubr
        rrcurveto
        -15 -6 -41 callgsubr
        return
      </CharString>
      <CharString index="46">
        6 -3 -2 vhcurveto
        -4 -4 -22 -27 -27 -15 return
      </CharString>
      <CharString index="47">
        -16 -19 -17 -11 -20 -1 -24 -1 -12 19 1 12 rrcurveto
        10 -7 4 -2 -15 vhcurveto
        -3 -18 4 -13 11 -3 61 -21 54 42 24 39 44 72 14 122 19 85 22 4 5 60 1 2 rrcurveto
        return
      </CharString>
      <CharString index="48">
        80 165 -109 182 -119 -218 -37 -66 -21 -100 -13 -68 rrcurveto
        -3 -12 -11 -2 -12 hhcurveto
        15 61 7 58 38 vvcurveto
        157 -80 47 -61 -31 vhcurveto
        -86 -43 -15 -132 59 -86 return
      </CharString>
      <CharString index="49">
        -6 6 vhcurveto
        6 -6 -8 -26 callsubr
        -7 -3 -6 -6 hvcurveto
        -7 -6 -3 return
      </CharString>
      <CharString index="50">
        rmoveto
        2 2 -1 3 -4 -23 callsubr
        -25 -26 -5 vvcurveto
        -31 callsubr
        11 callsubr
        -27 callgsubr
        vhcurveto
        13 13 11 9 11 5 -10 -27 -13 -30 -16 -34 -14 -30 -13 -30 -15 -30 rrcurveto
        -37 callsubr
        20 43 27 -11 callsubr
        return
      </CharString>
      <CharString index="51">
        rmoveto
        3 6 11 callgsubr
        -4 -12 -14 -32 -23 -17 -14 return
      </CharString>
      <CharString index="52">
        6 79 -110 40 -117 5 10 11 10 7 11 2 11 2 3 13 -11 -1 return
      </CharString>
      <CharString index="53">
        -46 -38 -6 34 6 40 5 41 5 -52 callgsubr
        15 -41 -1 -2 -10 vhcurveto
        -4 -14 -25 -80 -4 -40 -9 -91 38 -8 58 43 return
      </CharString>
      <CharString index="54">
        51 44 42 -23 -22 -39 callsubr
        14 return
      </CharString>
      <CharString index="55">
        44 5 1 rrcurveto
        15 3 10 37 10 vvcurveto
        return
      </CharString>
      <CharString index="56">
        -50 -194 -153 -196 -152 22 rrcurveto
        -5 -1 -8 5 hhcurveto
        157 -23 161 203 51 200 13 3 14 3 14 2 rrcurveto
        return
      </CharString>
      <CharString index="57">
        rmoveto
        -58 -5 -65 8 -51 29 -38 21 -26 24 -16 24 38 65 62 35 57 -6 11 -11 10 -12 10 -13 40 -55 19 -49 7 -55 rrcurveto
        return
      </CharString>
      <CharString index="58">
        rmoveto
        -59 16 -29 48 6 62 18 -50 29 -43 35 -33 rrcurveto
        return
      </CharString>
      <CharString index="59">
        -84 5 -98 -26 -53 -44 -135 -113 113 -111 157 58 85 32 85 88 10 81 11 -5 rcurveline
        15 -9 -3 15 -10 6 -4 2 -4 2 -4 1 1 67 -57 43 -58 16 -130 37 -165 -64 -76 -111 -84 -123 8 -131 68 -83 return
      </CharString>
      <CharString index="60">
        rmoveto
        4 6 -40 12 -3 -11 -3 -13 -37 -270 -80 -93 -60 callgsubr
        return
      </CharString>
      <CharString index="61">
        rmoveto
        -43 -19 -39 -21 -36 -25 -28 -19 -21 -22 -13 -22 -75 125 126 114 98 -75 13 -10 10 -12 8 -14 rrcurveto
        return
      </CharString>
      <CharString index="62">
        -4 -4 1 -4 hhcurveto
        return
      </CharString>
      <CharString index="63">
        rmoveto
        8 -3 7 -7 6 vhcurveto
        6 -6 -7 -26 callsubr
        -8 -3 -6 -6 hvcurveto
        -6 -6 -3 -7 -8 vvcurveto
        -9 25 callsubr
        -6 6 8 -26 callgsubr
        31 callsubr
        6 hvcurveto
        7 6 3 7 9 vvcurveto
        endchar
      </CharString>
      <CharString index="64">
        6 -6 vhcurveto
        -6 7 7 -26 callgsubr
        31 callsubr
        7 hvcurveto
        6 6 3 return
      </CharString>
      <CharString index="65">
        8 callsubr
        165 100 rmoveto
        -10 51 -4 22 -4 17 -6 12 rlinecurve
        -6 3 -5 -3 -3 -6 -1 -91 -55 -39 rlineto
        -35 -26 -18 -16 -6 vvcurveto
        1 -3 rlineto
        -1 2 2 0 1 hhcurveto
        5 1 rlineto
        return
      </CharString>
      <CharString index="66">
        rmoveto
        -2 -80 -127 -147 -52 -49 21 72 66 155 41 48 23 28 31 17 -1 -44 rrcurveto
        return
      </CharString>
      <CharString index="67">
        1 callsubr
        9 3 5 vvcurveto
        5 -9 -9 callgsubr
        return
      </CharString>
      <CharString index="68">
        531 142 13 254 13 return
      </CharString>
      <CharString index="69">
        12 callgsubr
        -14 callsubr
        -17 6 -9 return
      </CharString>
      <CharString index="70">
        36 -9 78 45 21 27 7 9 5 28 -19 -24 -29 -38 -70 -33 -24 17 return
      </CharString>
      <CharString index="71">
        -6 -74 -16 -73 -15 -47 -2 -5 8 -2 1 5 15 47 18 74 7 74 return
      </CharString>
      <CharString index="72">
        19 hstem
        320 293 rmoveto
        -117 hlineto
        72 151 rlineto
        -21 hlineto
        -73 -151 rlineto
        -91 hlineto
        -12 -6 -6 -6 1 -7 rrcurveto
        99 hlineto
        return
      </CharString>
      <CharString index="73">
        rmoveto
        -65 -30 -18 -32 -6 hhcurveto
        1 -1 -12 0 -23 hhcurveto
        -34 hlineto
        11 9 19 14 25 18 25 19 23 18 21 18 rrcurveto
        endchar
      </CharString>
      <CharString index="74">
        rmoveto
        20 1 10 3 5 vvcurveto
        5 -10 7 callgsubr
        return
      </CharString>
      <CharString index="75">
        2 2 0 2 return
      </CharString>
      <CharString index="76">
        -12 15 378 19 3 13 return
      </CharString>
      <CharString index="77">
        -21 -8 -7 -16 -23 -9 -12 -19 -27 -9 -19 2 -12 rrcurveto
        return
      </CharString>
      <CharString index="78">
        rmoveto
        -54 -7 -57 -33 -40 -54 -52 95 99 87 104 -88 rrcurveto
        return
      </CharString>
      <CharString index="79">
        -104 -38 -65 -141 -132 hhcurveto
        return
      </CharString>
      <CharString index="80">
        1 3 3 return
      </CharString>
      <CharString index="81">
        -3 9 hhcurveto
        9 return
      </CharString>
      <CharString index="82">
        13 hstem
        245 15 vstem
        477 512 rmoveto
        -22 56 -60 21 -56 -12 -32 -7 -33 -15 -29 -23 return
      </CharString>
      <CharString index="83">
        hhcurveto
        52 45 14 28 39 hvcurveto
        1 2 0 1 2 vvcurveto
        2 -1 -1 1 -2 -1 callsubr
        hhcurveto
        return
      </CharString>
      <CharString index="84">
        -8 11 -8 9 -8 9 41 -12 36 -35 20 -63 return
      </CharString>
      <CharString index="85">
        -3 144 17 43 13 return
      </CharString>
      <CharString index="86">
        rmoveto
        10 -33 -9 -32 -26 vhcurveto
        -7 -6 25 -9 12 3 rrcurveto
        14 4 21 27 6 vvcurveto
        return
      </CharString>
      <CharString index="87">
        -9 -21 -22 6 -18 23 22 8 7 16 23 9 12 19 26 9 19 -2 12 rrcurveto
        return
      </CharString>
</ttFont>
